M48
;Layer_Color=9474304
;FILE_FORMAT=4:3
METRIC,LZ
;TYPE=PLATED
T01F00S00C0.610
%
T01
X0000889Y0002263
X0002159
X0003429
X0007207
X0008477
X0009747
X0013525
Y0012263
X0009747
X0008477
X0007207
X0003429
X0002159
X0000889
X0014795
X0016065
X0019843
X0021113
X0022383
X0026161
X0027431
X0028701
X0032479
X0033749
X0035019
Y0002263
X0033749
X0032479
X0028701
X0027431
X0026161
X0022383
X0021113
X0019843
X0016065
X0014795
Y0022263
X0016065
X0019843
X0021113
X0022383
X0026161
X0027431
X0028701
X0032479
X0033749
X0035019
Y0032263
X0033749
X0032479
X0028701
X0027431
X0026161
X0022383
X0021113
X0019843
X0016065
X0014795
Y0042263
X0016065
X0019843
X0021113
X0022383
X0026161
X0027431
X0028701
X0032479
X0033749
X0035019
Y0052263
X0033749
X0032479
X0028701
X0027431
X0026161
X0022383
X0021113
X0019843
X0016065
X0014795
X0013525
X0009747
X0008477
X0007207
X0003429
X0002159
X0000889
Y0042263
X0002159
X0003429
X0007207
X0008477
X0009747
X0013525
Y0032263
X0009747
X0008477
X0007207
X0003429
X0002159
X0000889
Y0022263
X0002159
X0003429
X0007207
X0008477
X0009747
X0013525
Y0072263
X0009747
X0008477
X0007207
X0003429
X0002159
X0000889
Y0082263
X0002159
X0003429
X0007207
X0008477
X0009747
X0013525
Y0092263
X0009747
X0008477
X0007207
X0003429
X0002159
X0000889
X0014795
X0016065
X0019843
X0021113
X0022383
X0026161
X0027431
X0028701
X0032479
X0033749
X0035019
Y0082263
X0033749
X0032479
X0028701
X0027431
X0026161
X0022383
X0021113
X0019843
X0016065
X0014795
Y0072263
X0016065
X0019843
X0021113
X0022383
X0026161
X0027431
X0028701
X0032479
X0033749
X0035019
Y0102263
X0033749
X0032479
X0028701
X0027431
X0026161
X0022383
X0021113
X0019843
X0016065
X0014795
Y0112263
X0016065
X0019843
X0021113
X0022383
X0026161
X0027431
X0028701
X0032479
X0033749
X0035019
Y0122263
X0033749
X0032479
X0028701
X0027431
X0026161
X0022383
X0021113
X0019843
X0016065
X0014795
Y0132263
X0016065
X0019843
X0021113
X0022383
X0026161
X0027431
X0028701
X0032479
X0033749
X0035019
X0013525
X0009747
X0008477
X0007207
X0003429
X0002159
X0000889
Y0122263
X0002159
X0003429
X0007207
X0008477
X0009747
X0013525
Y0112263
X0009747
X0008477
X0007207
X0003429
X0002159
X0000889
Y0102263
X0002159
X0003429
X0007207
X0008477
X0009747
X0013525
Y0142263
X0009747
X0008477
X0007207
X0003429
X0002159
X0000889
Y0152263
X0002159
X0003429
X0007207
X0008477
X0009747
X0013525
Y0162263
X0009747
X0008477
X0007207
X0003429
X0002159
X0000889
X0014795
X0016065
X0019843
X0021113
X0022383
X0026161
X0027431
X0028701
X0032479
X0033749
X0035019
Y0152263
X0033749
X0032479
X0028701
X0027431
X0026161
X0022383
X0021113
X0019843
X0016065
X0014795
Y0142263
X0016065
X0019843
X0021113
X0022383
X0026161
X0027431
X0028701
X0032479
X0033749
X0035019
M30
