M48
;Layer_Color=9474304
;FILE_FORMAT=4:4
METRIC,LZ
;TYPE=PLATED
T01F00S00C0.3000
T02F00S00C0.5000
T03F00S00C0.9000
T04F00S00C1.0000
T05F00S00C1.6000
T06F00S00C3.5000
%
T01
X00014827Y00104565
Y00111565
Y00118575
X00014886Y00125565
X00021886
Y00118575
Y00111565
X0002189Y00104565
Y00097555
X00029077Y0009759
Y0009059
X0003614
X0004314
X0005014
X00057136
X00064077
Y0009759
X00057136
X00050136
X00043136
X00036136
Y001046
Y0011159
Y0011859
X00029136
Y0011159
X00029077Y001046
X00043136Y001046
Y0011159
X00050077
Y0011859
X00043136
Y001256
X00050077
Y0013259
X00043136
Y0013959
X00050077
X00057077
X00064077
Y0013259
Y001256
X00057077
Y0013259
X00071077
Y001256
Y0011859
Y0011159
Y001046
X00064077
X00057136
X00050136
X00057077Y0011159
Y0011859
X00064077
Y0011159
X00071077Y0009759
X00078077
Y0009059
X00071077
X00071017Y00083577
Y00076577
X00064017
Y0006958
X00071017Y00069577
Y00062577
Y00055636
X00064017
Y00062577
X00057007
Y0006958
X0005014
Y0007658
X00057007
Y0008358
X0005014
X0004314
X0003614
X0004314Y0007658
X00064017Y0008358
X00085077Y0009059
X00071017Y00048636
X00071077Y0013959
Y001466
X00064077
X00057077
X00050077
X00043136
X00036136
X00029136
Y0013959
X00036136
Y0013259
Y001256
X00029136
Y0013259
X00021886Y00132565
X00014886
Y00139575
Y00146565
X00021886
Y00139575
Y00153565
X00014886
Y00160575
X00021886
X00022166Y00167725
Y00174725
X00015166
Y00167725
Y00181735
X00022166
X00029166Y0018175
X00036166
Y0018875
X00029166
Y0019576
X00036166
X00043166
X00050107
X00057107
X00064107
X00071107
Y0018875
Y0018175
X00064107
X00057107
Y0018875
X00064107
X00050107
X00043166
Y0018175
X00050107
X00050357Y00174831
X00043416
X00036416
X00029416
Y0016776
X00036416
X00043416
X00050357
X00057357
X00064357
X00071357
Y0016075
Y0015375
X00064357
X00057357
Y0016075
X00064357
X00050357
X00043416
Y0015375
X00050357
X00036416
X00029416
Y0016075
X00036416
X00057357Y00174831
X00064357
X00071357
X00071107Y00202831
X00064107
X00057107
X00050107
X00043166
X00036166
X00029166
X00021916Y00202725
X00014916
Y00195725
X00021916
X00022166Y00188806
X00015166
X00014916Y00209735
X00021916
Y00216806
X00014916
X00014666Y00223975
Y00230975
X00021666
Y00223975
X00028916Y0022401
X00035916
X00042916
X00049857
X00056857
X00063857
X00070857
Y00217
Y0021
X00063857
X00056857
Y00217
X00063857
X00049857
X00042916
Y0021
X00049857
X00035916
X00028916
Y00217
X00035916
Y00231081
X00028916
X00028886Y0023809
Y0024509
X00028827Y00252008
X00035768
X00035886Y0024509
Y0023809
X00042886
X00049827
Y0024509
X00042886
Y002521
X00049827
X00056827
X00063827
X00070827
Y0024509
Y0023809
X00063827
Y0024509
X00056827
Y0023809
X00056857Y00231081
X00063857
X00070857
X00049857
X00042916
X00042886Y00259171
X00049827
X00056827
X00063827
X00070827
X00070577Y0026609
Y0027309
X00063577
X00056577
Y0026609
X00063577
X00049577
X00042636
Y0027309
X00049577
Y002801
X00042636
Y00287171
X00049577
X00056577
X00063577
X00070577
Y002801
X00063577
X00056577
X00056327Y0029434
Y0030134
X00063327
Y0029434
X00070327
Y0030134
Y0030835
X00063327
X00056327
X00049327
X00042386
Y0030134
X00049327
Y0029434
X00042386
X00035268Y00294249
X00028327
Y00301248
X00035268
Y00308258
X00028327
Y00315329
X00035268
X00042386Y00315421
X00049327
X00056327
X00063327
X00070327
X00021018Y00315223
X00014077
Y00308223
X00021018
X00021268Y00301054
X00014327
Y00293983
X00021268
Y00286973
X00014327
Y00279973
X00021268
X00021518Y00273054
X00014577
Y00265983
X00021518
X00021636Y00259065
Y00252065
X00014636
Y00259065
X00014666Y00245056
X00021666
Y00237985
X00014666
X00028827Y00259079
X00035768
X00035518Y00265998
X00028577
Y00272998
X00035518
Y00280008
X00028577
Y00287079
X00035518
X00250095Y00304056
X00250029Y00311056
X00257158
X00257195Y00304056
X0045058Y00211564
Y00204364
Y00197364
X0045783
Y00204364
Y00211564
X0046508
Y00204364
Y00197364
X00540419Y00209586
Y00216586
X00547429
Y00209586
X005545
Y00216586
X00561669
Y00209586
X00568919
Y00216586
Y00223786
X00561669
X00554642Y00223689
X00547429
X00540392
X00544028Y00548023
Y00555023
Y00562033
Y00569173
Y00576173
Y00583173
Y00590273
Y00597273
Y00604283
Y00611423
Y00618423
Y00625423
X00551278
Y00618423
Y00611423
Y00604283
Y00597273
Y00590273
Y00583173
Y00576173
Y00569173
Y00562033
Y00555023
Y00548023
X00513312Y00546023
X0050659
Y00539023
X00513404
X0049934
Y00546023
Y00553033
Y00560173
Y00567173
Y00574173
X0050659
X00513404Y0057425
X00513312Y00567349
X0050659Y00567173
Y00560173
X00513312Y00560107
Y00553033
X0050659
X0049209
Y00546023
Y00539023
Y00560173
Y00567173
Y00574173
X00474248Y00576371
Y00583235
X00467362Y00583349
X004674Y00590273
X00460404
Y005835
X0045359Y00583423
Y00590273
Y00597273
X00460312
Y00604283
X0045359
Y00611423
X00460312Y00611357
X00467335Y00611423
Y00604301
Y00597273
X00474463
Y00604301
X004745Y00611357
X00474248Y00618371
Y00625235
X00467362Y00625349
X00467258Y00618485
X00460312Y00618599
X00440012Y00619198
X00432883
X00425861Y00619179
X00419139
X00411889
X00404639
X00399434Y0062818
X00399434Y00633977
X00425438Y00633754
X00425437Y00627957
X00446451Y0062766
X00446451Y00633457
X0044634Y00604283
Y00597273
Y00590273
Y00583423
Y00576423
Y00569423
Y00562283
Y00555273
Y00548273
X0045359
X00460404
X00460312Y00555273
X0045359
Y00562283
X00460312
Y00569357
X0045359Y00569423
Y00576423
X00460312Y00576599
X00467258Y00576485
X00467335Y00569423
X004745Y00590273
X0043909
Y00583423
Y00576423
Y00569423
Y00562283
Y00555273
Y00548273
X00432213Y0054811
Y00555109
Y00562119
X00432067Y00569188
X00425253Y00568998
Y00575998
X00431975Y00576188
Y00583198
X00425253Y00583008
Y00590148
X00431975Y00590273
Y00597324
X00425253Y00597148
Y00604148
X00432067Y00604225
X0043909Y00604283
Y00597273
X00424963Y00562119
Y00555109
Y0054811
X00423563Y00676023
X00423526Y00683023
Y00690051
X00416397
Y00683023
X00416463Y00676023
X00505264Y00677023
X00505199Y00684023
Y00691051
X00512327
Y00684023
X00512364Y00677023
X00535605Y00676546
X0053554Y00683546
Y00690574
X00542668
Y00683546
X00542705Y00676546
X00623199Y00661801
Y00654773
X00623264Y00647773
X00630364
X00630327Y00654773
Y00661801
X00600077Y00607639
Y00600611
X00600114Y0059361
X00593014
X00592948Y00600611
Y00607639
X00592699Y00560051
Y00553023
X00592764Y00546023
X00599864
X00599827Y00553023
Y00560051
X00395658Y00583163
X0038885Y00583423
Y00590148
X0039575Y00590273
X00395658Y00597479
X003887
X0038885Y00604614
X0039575Y0060438
X003815Y00604806
Y00597806
Y00590806
Y00583666
Y00576656
Y00569656
X0037425
Y00576656
Y00583666
Y00590806
Y00597806
Y00604806
X0037409Y00611834
Y00618834
X00367028Y00618946
Y00611946
Y00604806
Y00597796
Y00590796
Y00583946
Y00576946
Y00569946
X00359778
Y00576946
Y00583946
Y00590796
Y00597796
Y00604806
Y00611946
Y00618946
Y00625946
X00367028
X00380184Y00627951
X00380184Y00633748
X0038109Y00611734
X00390802Y00619045
X00397616Y00619121
X00335904Y0057675
X0032909Y00576673
Y00569673
X00335812Y00569849
Y00562607
X0032909Y00562673
Y00555533
X00335812
Y00548523
X0032909
Y00541523
X00335904
X0032184
Y00548523
Y00555533
Y00562673
Y00569673
Y00576673
X0031459
Y00569673
Y00562673
Y00555533
Y00548523
Y00541523
X00285748Y00553235
X00278862Y00553349
X00278963Y00560113
X00285963
X00286136Y00567113
X00279136
Y00574113
Y00581113
X00286136
Y00574113
X00293284Y00573947
Y00580947
Y00588007
X00286136Y00588173
X00279136
X00272077
X0026509
Y00595195
X00272077
X00279007
Y00602195
Y00609195
X00278862Y00616202
X00285963
Y00623201
X0029339
Y00616202
Y00609223
Y00602223
Y00595223
X0028614
Y00602223
Y00609223
X00271758
Y00602195
X00272077Y00581113
X0026509
Y00574113
X00272077
Y00567113
X0026509
Y00560113
Y00553423
X00271904Y005535
Y00560113
X0025784
Y00553423
X0025059
Y00560113
Y00567113
Y00574113
Y00581113
Y00588173
X00243421
Y00581113
Y00574113
Y00567113
Y00560113
Y00553423
X0023635
Y00560113
Y00567113
Y00574113
Y00581113
X0022934
Y00574113
X0022234
Y00581113
X00215126Y00580884
X00208126
Y00573884
X00215126
Y00566884
X00208126
Y00559884
Y00553194
X00215126
Y00559884
X0022234Y00560113
Y00553423
X0022934
Y00560113
Y00567113
X0022234
X0023635Y00588173
X0025784
Y00581113
Y00574113
Y00567113
X0021925Y006095
X00192914Y00676509
X00185914Y00676444
Y00683572
X00192914Y00683609
X00166Y00690514
X0016008
X0015333Y0069059
X00132651
X0012564
X0011864
X0011158
X0010458
X0009758
X0009058
X0006289Y0069109
X0005589
X0004889
X0004183
X0003483
X0002783
X0002083
X0001384Y0069092
Y0068392
Y0067692
Y0066992
Y0066286
Y0065586
Y0064886
Y0064186
Y0063517
Y0062817
Y0062092
Y0061392
Y0060692
Y0059992
Y0059286
Y0058586
Y0057886
Y0057186
Y0056517
Y0055817
X0003525Y0060438
X0008525Y00557503
X0009375Y00665503
X00128279Y00404334
Y00397306
X00128345Y00390306
X00135445
X00135408Y00397306
Y00404334
X0007033Y00384779
Y00377909
Y0037112
Y0036425
Y0035737
Y003505
Y00343596
Y003366
X0006333
Y003436
Y003505
Y0035741
Y0036425
Y0037116
Y0037791
Y0038482
X00056327Y003436
Y003366
X00049327
X00049252Y00343463
X00042311
X00042386Y003366
Y0032959
X00049327
Y0032259
X00042386
X00035268Y00322499
X00028327
Y00329498
X00035268
Y00336508
X00035193Y00343371
X00028252
X00028327Y00336508
X00021018Y00336473
X00014077
X00014221Y00342608
X00021018Y00343473
X00021018Y00329304
X00014077
Y00322233
X00021018
X00056327Y0032259
Y0032959
X00063327
Y0032259
X00070327
Y0032959
X000265Y0035975
X00250029Y00318085
X00257158
X0020825Y007215
X00416764Y00728773
X00416699Y00735773
Y00742801
X00423827
Y00735773
X00423864Y00728773
X00447014Y00728872
X00446949Y00735872
Y007429
X00454077
Y00735872
X00454114Y00728872
X00535605Y00739045
X0053554Y00746045
Y00753074
X00542668
Y00746045
X00542705Y00739045
T02
X00632926Y00113215
X0064Y001065
X0064004Y00120047
X00647184Y00113296
X0058675Y0018125
X0049025Y0065599
X00287048Y00642988
X002415Y0069725
X0017075Y0062644
X0016775Y007215
X0051225Y00734
T03
X001873Y0045
X002127
T04
X00299689Y00248671
X00350489
X00401289
X00477489
X00528289
X00579089
X0057905Y00553
X0052825
X0047745
X0040125
X0035045
X0029965
T05
X002792Y0004
X0033
X003808
X003554Y0073
X003046
T06
X00537Y0011675
M30
