G04*
G04 #@! TF.GenerationSoftware,Altium Limited,Altium Designer,24.3.1 (35)*
G04*
G04 Layer_Physical_Order=6*
G04 Layer_Color=16711680*
%FSLAX44Y44*%
%MOMM*%
G71*
G04*
G04 #@! TF.SameCoordinates,EE9A5EF0-155C-4C8F-B462-BE7DD29FB847*
G04*
G04*
G04 #@! TF.FilePolarity,Positive*
G04*
G01*
G75*
%ADD11C,0.2540*%
%ADD12C,1.0000*%
%ADD60C,0.5000*%
G04:AMPARAMS|DCode=73|XSize=2.4mm|YSize=2.4mm|CornerRadius=0.6mm|HoleSize=0mm|Usage=FLASHONLY|Rotation=0.000|XOffset=0mm|YOffset=0mm|HoleType=Round|Shape=RoundedRectangle|*
%AMROUNDEDRECTD73*
21,1,2.4000,1.2000,0,0,0.0*
21,1,1.2000,2.4000,0,0,0.0*
1,1,1.2000,0.6000,-0.6000*
1,1,1.2000,-0.6000,-0.6000*
1,1,1.2000,-0.6000,0.6000*
1,1,1.2000,0.6000,0.6000*
%
%ADD73ROUNDEDRECTD73*%
%ADD74C,2.4000*%
%ADD75C,1.5000*%
%ADD76O,2.0000X3.0000*%
%ADD77C,2.0000*%
%ADD78C,0.7000*%
%ADD79C,0.8000*%
%ADD80C,1.0000*%
%ADD81R,25.0277X3.7099*%
G36*
X274500Y696750D02*
X395250D01*
X404068Y705568D01*
X531432D01*
X540250Y696750D01*
X587500Y696750D01*
X595750Y688500D01*
Y638250D01*
X611543Y622457D01*
X619750D01*
X619750Y580500D01*
X561250D01*
Y635150D01*
X499550D01*
X499550Y656450D01*
X493412Y662588D01*
X486338Y662588D01*
X468207Y644457D01*
X375957D01*
X368138Y636638D01*
X290715D01*
X290454Y637869D01*
X290453Y637908D01*
X292135Y639589D01*
X293048Y641794D01*
Y644181D01*
X292135Y646386D01*
X290447Y648074D01*
X288242Y648988D01*
X285855D01*
X283650Y648074D01*
X281962Y646386D01*
X281048Y644181D01*
Y641794D01*
X281962Y639589D01*
X283650Y637901D01*
X284363Y637606D01*
X284610Y636360D01*
X247750Y599500D01*
X193500D01*
Y540323D01*
X158838D01*
Y609162D01*
Y636638D01*
Y659600D01*
X179234Y679996D01*
X180229Y681484D01*
X180578Y683240D01*
Y688090D01*
X185151Y692662D01*
X237603D01*
X238101Y692163D01*
X240306Y691250D01*
X242694D01*
X244899Y692163D01*
X246587Y693851D01*
X247500Y696057D01*
Y696750D01*
Y698444D01*
X246587Y700649D01*
X244899Y702337D01*
X242694Y703250D01*
X240306D01*
X238101Y702337D01*
X237603Y701838D01*
X183250D01*
X181494Y701489D01*
X180006Y700494D01*
X175088Y695577D01*
D01*
X174611Y695099D01*
X172746Y693234D01*
X171751Y691746D01*
X171402Y689990D01*
Y685141D01*
X151006Y664744D01*
X150011Y663256D01*
X149662Y661500D01*
Y540323D01*
X147838D01*
Y620521D01*
Y695099D01*
X160827Y708088D01*
X263162D01*
X274500Y696750D01*
D02*
G37*
G36*
X447500Y637500D02*
X450000Y635000D01*
Y624099D01*
X439651Y613750D01*
X389550D01*
X376500Y626800D01*
X376500Y634900D01*
X379100Y637500D01*
X447500Y637500D01*
D02*
G37*
G36*
X389250Y608500D02*
X441250D01*
X461707Y628957D01*
X554750D01*
Y529750D01*
X202250D01*
Y594500D01*
X251750Y594500D01*
X286961Y629711D01*
X368039D01*
X389250Y608500D01*
D02*
G37*
G36*
X146676Y706915D02*
X140006Y700244D01*
X139011Y698756D01*
X138662Y697000D01*
Y540323D01*
X4276D01*
Y708088D01*
X146190D01*
X146676Y706915D01*
D02*
G37*
G36*
X656500Y670000D02*
X656500Y529750D01*
X561250Y529750D01*
Y576173D01*
X622923D01*
X625000Y578250D01*
Y626950D01*
X620450Y631500D01*
X613500Y631500D01*
X603750Y641250D01*
Y690500D01*
X587750Y706500D01*
X545450D01*
X532700Y719250D01*
X404250D01*
X385779Y700779D01*
X343409D01*
X343400Y700800D01*
Y765750D01*
X560750D01*
X656500Y670000D01*
D02*
G37*
G36*
X286185Y309750D02*
X330000D01*
X362250Y277500D01*
X362250Y233685D01*
X338273Y233664D01*
X337375Y234561D01*
Y277400D01*
X337375Y277400D01*
X337350Y277460D01*
Y278150D01*
X328500Y287000D01*
X255840D01*
X180090Y362750D01*
X115500D01*
Y390849D01*
X113200Y393148D01*
Y409148D01*
X186786D01*
X286185Y309750D01*
D02*
G37*
G36*
X81300Y103200D02*
X91750Y92750D01*
X104250D01*
X207750Y196250D01*
X389469D01*
X414720Y221500D01*
X481750D01*
X523921Y263671D01*
X534068Y263671D01*
X572500Y225239D01*
Y201750D01*
X467842Y97092D01*
X290312Y97092D01*
X227969Y34750D01*
X75000D01*
Y35000D01*
X3750Y106000D01*
X3750Y409121D01*
X81300D01*
Y103200D01*
D02*
G37*
G36*
X654032Y113218D02*
X625495Y84680D01*
X611353Y98822D01*
X639890Y127360D01*
X654032Y113218D01*
D02*
G37*
%LPC*%
G36*
X171943Y632439D02*
X169557D01*
X167351Y631526D01*
X165663Y629838D01*
X164750Y627633D01*
Y625246D01*
X165663Y623041D01*
X167351Y621353D01*
X169557Y620439D01*
X171943D01*
X174149Y621353D01*
X175837Y623041D01*
X176750Y625246D01*
Y627633D01*
X175837Y629838D01*
X174149Y631526D01*
X171943Y632439D01*
D02*
G37*
G36*
X220344Y615000D02*
X218156D01*
X216134Y614163D01*
X214587Y612616D01*
X213750Y610594D01*
Y608406D01*
X214587Y606385D01*
X216134Y604837D01*
X218156Y604000D01*
X220344D01*
X222365Y604837D01*
X223913Y606385D01*
X224750Y608406D01*
Y610594D01*
X223913Y612616D01*
X222365Y614163D01*
X220344Y615000D01*
D02*
G37*
G36*
X528250Y568086D02*
X525639Y567743D01*
X523207Y566735D01*
X521118Y565132D01*
X519515Y563043D01*
X518507Y560611D01*
X518164Y558000D01*
Y548000D01*
X518507Y545390D01*
X519515Y542957D01*
X521118Y540868D01*
X523207Y539265D01*
X525639Y538257D01*
X528250Y537914D01*
X530861Y538257D01*
X533293Y539265D01*
X535382Y540868D01*
X536985Y542957D01*
X537993Y545390D01*
X538336Y548000D01*
Y558000D01*
X537993Y560611D01*
X536985Y563043D01*
X535382Y565132D01*
X533293Y566735D01*
X530861Y567743D01*
X528250Y568086D01*
D02*
G37*
G36*
X477450D02*
X474840Y567743D01*
X472407Y566735D01*
X470318Y565132D01*
X468715Y563043D01*
X467707Y560611D01*
X467364Y558000D01*
Y548000D01*
X467707Y545390D01*
X468715Y542957D01*
X470318Y540868D01*
X472407Y539265D01*
X474840Y538257D01*
X477450Y537914D01*
X480061Y538257D01*
X482493Y539265D01*
X484582Y540868D01*
X486185Y542957D01*
X487193Y545390D01*
X487536Y548000D01*
Y558000D01*
X487193Y560611D01*
X486185Y563043D01*
X484582Y565132D01*
X482493Y566735D01*
X480061Y567743D01*
X477450Y568086D01*
D02*
G37*
G36*
X401250D02*
X398639Y567743D01*
X396207Y566735D01*
X394118Y565132D01*
X392515Y563043D01*
X391507Y560611D01*
X391164Y558000D01*
Y548000D01*
X391507Y545390D01*
X392515Y542957D01*
X394118Y540868D01*
X396207Y539265D01*
X398639Y538257D01*
X401250Y537914D01*
X403861Y538257D01*
X406293Y539265D01*
X408382Y540868D01*
X409985Y542957D01*
X410993Y545390D01*
X411336Y548000D01*
Y558000D01*
X410993Y560611D01*
X409985Y563043D01*
X408382Y565132D01*
X406293Y566735D01*
X403861Y567743D01*
X401250Y568086D01*
D02*
G37*
G36*
X299650D02*
X297040Y567743D01*
X294607Y566735D01*
X292518Y565132D01*
X290915Y563043D01*
X289907Y560611D01*
X289564Y558000D01*
Y548000D01*
X289907Y545390D01*
X290915Y542957D01*
X292518Y540868D01*
X294607Y539265D01*
X297040Y538257D01*
X299650Y537914D01*
X302261Y538257D01*
X304693Y539265D01*
X306782Y540868D01*
X308385Y542957D01*
X309393Y545390D01*
X309736Y548000D01*
Y558000D01*
X309393Y560611D01*
X308385Y563043D01*
X306782Y565132D01*
X304693Y566735D01*
X302261Y567743D01*
X299650Y568086D01*
D02*
G37*
G36*
X94844Y671003D02*
X92656D01*
X90634Y670165D01*
X89087Y668618D01*
X88250Y666597D01*
Y664409D01*
X89087Y662387D01*
X90634Y660840D01*
X92656Y660003D01*
X94844D01*
X96866Y660840D01*
X98413Y662387D01*
X99250Y664409D01*
Y666597D01*
X98413Y668618D01*
X96866Y670165D01*
X94844Y671003D01*
D02*
G37*
G36*
X36344Y609880D02*
X34156D01*
X32134Y609043D01*
X30587Y607495D01*
X29750Y605474D01*
Y603286D01*
X30587Y601264D01*
X32134Y599717D01*
X34156Y598880D01*
X36344D01*
X38365Y599717D01*
X39913Y601264D01*
X40750Y603286D01*
Y605474D01*
X39913Y607495D01*
X38365Y609043D01*
X36344Y609880D01*
D02*
G37*
G36*
X86344Y563003D02*
X84156D01*
X82135Y562166D01*
X80587Y560619D01*
X79750Y558597D01*
Y556409D01*
X80587Y554388D01*
X82135Y552841D01*
X84156Y552003D01*
X86344D01*
X88365Y552841D01*
X89913Y554388D01*
X90750Y556409D01*
Y558597D01*
X89913Y560619D01*
X88365Y562166D01*
X86344Y563003D01*
D02*
G37*
G36*
X27594Y365250D02*
X25406D01*
X23385Y364413D01*
X21837Y362865D01*
X21000Y360844D01*
Y358656D01*
X21837Y356634D01*
X23385Y355087D01*
X25406Y354250D01*
X27594D01*
X29616Y355087D01*
X31163Y356634D01*
X32000Y358656D01*
Y360844D01*
X31163Y362865D01*
X29616Y364413D01*
X27594Y365250D01*
D02*
G37*
%LPD*%
D11*
X634225Y377447D02*
X636764Y372368D01*
X641842Y367290D01*
X646921D01*
X649460Y369829D01*
Y374907D01*
X646921Y377447D01*
X644382D01*
X641842Y374907D01*
Y367290D01*
D12*
X381238Y39562D02*
X565695D01*
X632926Y106793D01*
Y113215D01*
D60*
X287500Y703250D02*
X345276D01*
X269250Y721500D02*
X287500Y703250D01*
X348205Y706179D02*
Y712805D01*
X345276Y703250D02*
X348205Y706179D01*
Y712805D02*
X355400Y720000D01*
X208250Y721500D02*
X269250D01*
X154250Y508450D02*
Y661500D01*
Y508450D02*
X212700Y450000D01*
X154250Y661500D02*
X175990Y683240D01*
Y689990D01*
X183250Y697250D01*
X241500D01*
X143250Y493000D02*
X186250Y450000D01*
X187300D01*
X143250Y493000D02*
Y697000D01*
X167750Y721500D01*
D73*
X279200Y40000D02*
D03*
X355400Y730000D02*
D03*
D74*
X330000Y40000D02*
D03*
X380800D02*
D03*
X304600Y730000D02*
D03*
D75*
X212700Y450000D02*
D03*
X187300D02*
D03*
D76*
X528289Y248671D02*
D03*
X477489D02*
D03*
X579089D02*
D03*
X299689D02*
D03*
X350489D02*
D03*
X401289D02*
D03*
X528250Y553000D02*
D03*
X477450D02*
D03*
X579050D02*
D03*
X299650D02*
D03*
X350450D02*
D03*
X401250D02*
D03*
D77*
X537000Y116750D02*
D03*
D78*
X166000Y690514D02*
D03*
X132651Y690590D02*
D03*
X153330D02*
D03*
X160080Y690514D02*
D03*
X125640Y690590D02*
D03*
X118640D02*
D03*
X111580D02*
D03*
X104580D02*
D03*
X97580D02*
D03*
X90580D02*
D03*
X388700Y597479D02*
D03*
X388850Y590148D02*
D03*
Y583423D02*
D03*
X395750Y590273D02*
D03*
X395658Y583163D02*
D03*
Y597479D02*
D03*
X395750Y604380D02*
D03*
X453590Y604283D02*
D03*
X450580Y211564D02*
D03*
Y197364D02*
D03*
Y204364D02*
D03*
X465080Y211564D02*
D03*
Y197364D02*
D03*
Y204364D02*
D03*
X457830D02*
D03*
Y197364D02*
D03*
Y211564D02*
D03*
X424963Y548110D02*
D03*
X432213D02*
D03*
Y555109D02*
D03*
X424963D02*
D03*
Y562119D02*
D03*
X432213D02*
D03*
X431975Y576188D02*
D03*
X432067Y569188D02*
D03*
X431975Y583198D02*
D03*
Y590273D02*
D03*
X380184Y633748D02*
D03*
X380184Y627951D02*
D03*
X399434Y633977D02*
D03*
X399434Y628180D02*
D03*
X425438Y633754D02*
D03*
X425437Y627957D02*
D03*
X425861Y619179D02*
D03*
X432883Y619198D02*
D03*
X440012D02*
D03*
X404639Y619179D02*
D03*
X419139D02*
D03*
X411889D02*
D03*
X397616Y619121D02*
D03*
X390802Y619045D02*
D03*
X446451Y627660D02*
D03*
X446451Y633457D02*
D03*
X14221Y342608D02*
D03*
X21636Y252065D02*
D03*
X14636D02*
D03*
X21636Y259065D02*
D03*
X14636D02*
D03*
X15166Y188806D02*
D03*
X22166D02*
D03*
X15166Y181735D02*
D03*
X22166D02*
D03*
X15166Y174725D02*
D03*
X22166D02*
D03*
X15166Y167725D02*
D03*
X22166D02*
D03*
X14916Y216806D02*
D03*
X21916D02*
D03*
X14916Y209735D02*
D03*
X21916D02*
D03*
X14916Y202725D02*
D03*
X21916D02*
D03*
X14916Y195725D02*
D03*
X21916D02*
D03*
X14666Y245056D02*
D03*
X21666D02*
D03*
X14666Y237985D02*
D03*
X21666D02*
D03*
X14666Y230975D02*
D03*
X21666D02*
D03*
X14666Y223975D02*
D03*
X21666D02*
D03*
X21886Y146565D02*
D03*
X14886D02*
D03*
X21886Y153565D02*
D03*
X14886D02*
D03*
X21886Y160575D02*
D03*
X14886D02*
D03*
X21886Y125565D02*
D03*
X14886D02*
D03*
X21886Y132565D02*
D03*
X14886D02*
D03*
X21886Y139575D02*
D03*
X14886D02*
D03*
X21890Y104565D02*
D03*
X14827D02*
D03*
X21886Y111565D02*
D03*
X14827D02*
D03*
X21886Y118575D02*
D03*
X14827Y118575D02*
D03*
X21890Y97555D02*
D03*
X21018Y343473D02*
D03*
Y336473D02*
D03*
X14077D02*
D03*
X21518Y273054D02*
D03*
X14577D02*
D03*
X21518Y265983D02*
D03*
X14577D02*
D03*
X21268Y301054D02*
D03*
X14327D02*
D03*
X21268Y293983D02*
D03*
X14327D02*
D03*
X21268Y286973D02*
D03*
X14327D02*
D03*
X21268Y279973D02*
D03*
X14327D02*
D03*
X21018Y329304D02*
D03*
X14077D02*
D03*
X21018Y322233D02*
D03*
X14077D02*
D03*
X21018Y315223D02*
D03*
X14077D02*
D03*
X21018Y308223D02*
D03*
X14077D02*
D03*
X257158Y311056D02*
D03*
X250029D02*
D03*
X257195Y304056D02*
D03*
X250095D02*
D03*
X250029Y318085D02*
D03*
X257158D02*
D03*
X135408Y397306D02*
D03*
X128279D02*
D03*
X135445Y390306D02*
D03*
X128345D02*
D03*
X128279Y404334D02*
D03*
X135408D02*
D03*
X185914Y683572D02*
D03*
Y676444D02*
D03*
X192914Y683609D02*
D03*
Y676509D02*
D03*
X542668Y690574D02*
D03*
X535540D02*
D03*
X535605Y676546D02*
D03*
X542705D02*
D03*
X535540Y683546D02*
D03*
X542668D02*
D03*
X423526Y690051D02*
D03*
X416397D02*
D03*
X416463Y676023D02*
D03*
X423563D02*
D03*
X416397Y683023D02*
D03*
X423526D02*
D03*
X512327Y691051D02*
D03*
X505199D02*
D03*
X505264Y677023D02*
D03*
X512364D02*
D03*
X505199Y684023D02*
D03*
X512327D02*
D03*
X454077Y742900D02*
D03*
X446949D02*
D03*
X447014Y728872D02*
D03*
X454114D02*
D03*
X446949Y735872D02*
D03*
X454077D02*
D03*
X423827Y742801D02*
D03*
X416699D02*
D03*
X416764Y728773D02*
D03*
X423864D02*
D03*
X416699Y735773D02*
D03*
X423827D02*
D03*
X542668Y753074D02*
D03*
X535540D02*
D03*
X535605Y739045D02*
D03*
X542705D02*
D03*
X535540Y746045D02*
D03*
X542668D02*
D03*
X630327Y661801D02*
D03*
X623199D02*
D03*
X623264Y647773D02*
D03*
X630364D02*
D03*
X623199Y654773D02*
D03*
X630327D02*
D03*
X600077Y607639D02*
D03*
X592948D02*
D03*
X593014Y593610D02*
D03*
X600114D02*
D03*
X592948Y600611D02*
D03*
X600077D02*
D03*
X599827Y560051D02*
D03*
X592699D02*
D03*
X592764Y546023D02*
D03*
X599864D02*
D03*
X592699Y553023D02*
D03*
X599827D02*
D03*
X293390Y616202D02*
D03*
X285963D02*
D03*
Y623201D02*
D03*
X293390D02*
D03*
X278862Y616202D02*
D03*
X272077Y595195D02*
D03*
X265090D02*
D03*
X271758Y609223D02*
D03*
Y602195D02*
D03*
X279007Y595195D02*
D03*
Y602195D02*
D03*
Y609195D02*
D03*
X425253Y575998D02*
D03*
Y568998D02*
D03*
Y583008D02*
D03*
Y604148D02*
D03*
Y597148D02*
D03*
Y590148D02*
D03*
X432067Y604225D02*
D03*
X431975Y597324D02*
D03*
X293284Y588007D02*
D03*
Y580947D02*
D03*
Y573947D02*
D03*
X293390Y609223D02*
D03*
Y602223D02*
D03*
Y595223D02*
D03*
X286140D02*
D03*
Y602223D02*
D03*
Y609223D02*
D03*
X374090Y618834D02*
D03*
X381090Y611734D02*
D03*
X374090Y611834D02*
D03*
X381500Y604806D02*
D03*
Y597806D02*
D03*
Y590806D02*
D03*
X388850Y604614D02*
D03*
X374250Y590806D02*
D03*
Y597806D02*
D03*
Y604806D02*
D03*
X381500Y583666D02*
D03*
X374250D02*
D03*
Y576656D02*
D03*
X381500D02*
D03*
Y569656D02*
D03*
X374250D02*
D03*
X314590Y541523D02*
D03*
X321840D02*
D03*
Y548523D02*
D03*
X314590D02*
D03*
X335812D02*
D03*
X329090D02*
D03*
Y541523D02*
D03*
X335904D02*
D03*
X335812Y555533D02*
D03*
Y562607D02*
D03*
Y569849D02*
D03*
X335904Y576750D02*
D03*
X314590Y576673D02*
D03*
Y569673D02*
D03*
Y562673D02*
D03*
Y555533D02*
D03*
X329090Y576673D02*
D03*
Y569673D02*
D03*
Y562673D02*
D03*
Y555533D02*
D03*
X321840D02*
D03*
Y562673D02*
D03*
Y569673D02*
D03*
Y576673D02*
D03*
X208126Y559884D02*
D03*
Y566884D02*
D03*
Y573884D02*
D03*
Y580884D02*
D03*
Y553194D02*
D03*
X215126Y559884D02*
D03*
Y566884D02*
D03*
Y573884D02*
D03*
Y580884D02*
D03*
Y553194D02*
D03*
X257840Y588173D02*
D03*
Y553423D02*
D03*
Y581113D02*
D03*
Y574113D02*
D03*
Y567113D02*
D03*
Y560113D02*
D03*
X265090D02*
D03*
Y567113D02*
D03*
Y574113D02*
D03*
Y581113D02*
D03*
Y553423D02*
D03*
Y588173D02*
D03*
X250590Y560113D02*
D03*
Y567113D02*
D03*
Y574113D02*
D03*
Y581113D02*
D03*
Y553423D02*
D03*
Y588173D02*
D03*
X243421D02*
D03*
Y553423D02*
D03*
Y581113D02*
D03*
Y574113D02*
D03*
Y567113D02*
D03*
Y560113D02*
D03*
X236350Y588173D02*
D03*
Y553423D02*
D03*
Y581113D02*
D03*
Y574113D02*
D03*
Y567113D02*
D03*
Y560113D02*
D03*
X229340Y553423D02*
D03*
Y581113D02*
D03*
Y574113D02*
D03*
Y567113D02*
D03*
Y560113D02*
D03*
X222340Y553423D02*
D03*
Y581113D02*
D03*
Y574113D02*
D03*
Y567113D02*
D03*
Y560113D02*
D03*
X286136Y567113D02*
D03*
X279136D02*
D03*
X272077D02*
D03*
X286136Y574113D02*
D03*
X279136D02*
D03*
X272077D02*
D03*
X286136Y581113D02*
D03*
X279136D02*
D03*
X272077D02*
D03*
X286136Y588173D02*
D03*
X279136D02*
D03*
X272077D02*
D03*
X271904Y560113D02*
D03*
X278963D02*
D03*
X285963D02*
D03*
X271904Y553500D02*
D03*
X278862Y553349D02*
D03*
X285748Y553235D02*
D03*
X367028Y583946D02*
D03*
Y576946D02*
D03*
Y569946D02*
D03*
X359778D02*
D03*
Y576946D02*
D03*
Y583946D02*
D03*
X367028Y625946D02*
D03*
Y618946D02*
D03*
Y611946D02*
D03*
X359778Y604806D02*
D03*
Y611946D02*
D03*
Y618946D02*
D03*
Y625946D02*
D03*
Y597796D02*
D03*
X367028Y604806D02*
D03*
Y597796D02*
D03*
X359778Y590796D02*
D03*
X367028D02*
D03*
X551278Y583173D02*
D03*
Y576173D02*
D03*
Y569173D02*
D03*
X544028Y562033D02*
D03*
Y569173D02*
D03*
Y576173D02*
D03*
Y583173D02*
D03*
Y555023D02*
D03*
X551278Y562033D02*
D03*
Y555023D02*
D03*
X544028Y548023D02*
D03*
X551278D02*
D03*
Y590273D02*
D03*
X544028D02*
D03*
X551278Y597273D02*
D03*
Y604283D02*
D03*
X544028Y597273D02*
D03*
Y625423D02*
D03*
Y618423D02*
D03*
Y611423D02*
D03*
Y604283D02*
D03*
X551278Y611423D02*
D03*
Y618423D02*
D03*
Y625423D02*
D03*
X499340Y574173D02*
D03*
Y567173D02*
D03*
Y560173D02*
D03*
Y553033D02*
D03*
X506590D02*
D03*
Y560173D02*
D03*
Y567173D02*
D03*
Y574173D02*
D03*
X492090Y553033D02*
D03*
Y560173D02*
D03*
Y567173D02*
D03*
Y574173D02*
D03*
X513404Y574250D02*
D03*
X513312Y567349D02*
D03*
Y560107D02*
D03*
Y553033D02*
D03*
X513404Y539023D02*
D03*
X506590D02*
D03*
Y546023D02*
D03*
X513312D02*
D03*
X492090D02*
D03*
X499340D02*
D03*
Y539023D02*
D03*
X492090D02*
D03*
X446340Y583423D02*
D03*
Y576423D02*
D03*
Y569423D02*
D03*
Y562283D02*
D03*
X453590D02*
D03*
Y569423D02*
D03*
Y576423D02*
D03*
Y583423D02*
D03*
X439090Y562283D02*
D03*
Y569423D02*
D03*
Y576423D02*
D03*
Y583423D02*
D03*
X460404Y583500D02*
D03*
X467362Y583349D02*
D03*
X460312Y576599D02*
D03*
X467335Y569423D02*
D03*
X474248Y583235D02*
D03*
X467258Y576485D02*
D03*
X460312Y569357D02*
D03*
Y562283D02*
D03*
X460404Y548273D02*
D03*
X474248Y576371D02*
D03*
X453590Y548273D02*
D03*
Y555273D02*
D03*
X460312D02*
D03*
X439090D02*
D03*
X446340D02*
D03*
Y548273D02*
D03*
X439090D02*
D03*
X446340Y604283D02*
D03*
X453590Y611423D02*
D03*
X439090Y604283D02*
D03*
X467362Y625349D02*
D03*
X460312Y618599D02*
D03*
X474463Y604301D02*
D03*
X467335D02*
D03*
X474500Y611357D02*
D03*
X467335Y611423D02*
D03*
X474248Y625235D02*
D03*
X467258Y618485D02*
D03*
X460312Y611357D02*
D03*
Y604283D02*
D03*
X467400Y590273D02*
D03*
X460404D02*
D03*
X474500D02*
D03*
X474248Y618371D02*
D03*
X453590Y590273D02*
D03*
Y597273D02*
D03*
X460312D02*
D03*
X467335D02*
D03*
X474463D02*
D03*
X439090D02*
D03*
X446340D02*
D03*
Y590273D02*
D03*
X439090D02*
D03*
X219250Y609500D02*
D03*
X568919Y223786D02*
D03*
Y209586D02*
D03*
Y216586D02*
D03*
X561669D02*
D03*
Y209586D02*
D03*
Y223786D02*
D03*
X554500Y209586D02*
D03*
Y216586D02*
D03*
X547429Y209586D02*
D03*
Y216586D02*
D03*
X540419Y209586D02*
D03*
Y216586D02*
D03*
X554642Y223689D02*
D03*
X547429D02*
D03*
X540392D02*
D03*
X42311Y343463D02*
D03*
X49252D02*
D03*
X35193Y343371D02*
D03*
X28252D02*
D03*
X28327Y294249D02*
D03*
X35268D02*
D03*
X28327Y301248D02*
D03*
X35268D02*
D03*
X28327Y308258D02*
D03*
X35268D02*
D03*
X28327Y315329D02*
D03*
X35268D02*
D03*
X28577Y265998D02*
D03*
X35518D02*
D03*
X28577Y272998D02*
D03*
X35518D02*
D03*
X28577Y280008D02*
D03*
X35518D02*
D03*
X28577Y287079D02*
D03*
X35518D02*
D03*
X28827Y252008D02*
D03*
X35768D02*
D03*
X28827Y259079D02*
D03*
X35768D02*
D03*
X28327Y322499D02*
D03*
X35268D02*
D03*
X28327Y329498D02*
D03*
X35268D02*
D03*
X28327Y336508D02*
D03*
X35268D02*
D03*
X56327Y343600D02*
D03*
X63330Y336600D02*
D03*
Y343600D02*
D03*
Y350500D02*
D03*
Y357410D02*
D03*
Y364250D02*
D03*
Y371160D02*
D03*
Y377910D02*
D03*
Y384820D02*
D03*
X70330Y364250D02*
D03*
Y384779D02*
D03*
Y357370D02*
D03*
Y377909D02*
D03*
Y371120D02*
D03*
Y350500D02*
D03*
Y343596D02*
D03*
X41830Y691090D02*
D03*
X34830D02*
D03*
X27830D02*
D03*
X20830D02*
D03*
X48890D02*
D03*
X55890D02*
D03*
X62890D02*
D03*
X13840Y599920D02*
D03*
Y606920D02*
D03*
Y613920D02*
D03*
Y620920D02*
D03*
Y565170D02*
D03*
Y558170D02*
D03*
Y592860D02*
D03*
Y585860D02*
D03*
Y578860D02*
D03*
Y571860D02*
D03*
Y669920D02*
D03*
Y676920D02*
D03*
Y683920D02*
D03*
Y690920D02*
D03*
Y635170D02*
D03*
Y628170D02*
D03*
Y662860D02*
D03*
Y655860D02*
D03*
Y648860D02*
D03*
Y641860D02*
D03*
X36140Y83580D02*
D03*
X43140Y76580D02*
D03*
Y83580D02*
D03*
X50140Y69580D02*
D03*
Y76580D02*
D03*
Y83580D02*
D03*
X29077Y104600D02*
D03*
X57007Y62577D02*
D03*
Y69580D02*
D03*
Y76580D02*
D03*
Y83580D02*
D03*
X64017Y62577D02*
D03*
Y69580D02*
D03*
Y76577D02*
D03*
Y83580D02*
D03*
Y55636D02*
D03*
X71017Y62577D02*
D03*
Y69577D02*
D03*
Y76577D02*
D03*
Y83577D02*
D03*
Y48636D02*
D03*
Y55636D02*
D03*
X64077Y104600D02*
D03*
X71077D02*
D03*
X36136D02*
D03*
X43136D02*
D03*
X50136D02*
D03*
X57136D02*
D03*
X29077Y97590D02*
D03*
X64077D02*
D03*
X71077D02*
D03*
X78077D02*
D03*
X36136D02*
D03*
X43136D02*
D03*
X50136D02*
D03*
X57136D02*
D03*
X29077Y90590D02*
D03*
X64077D02*
D03*
X71077D02*
D03*
X78077D02*
D03*
X85077D02*
D03*
X36140D02*
D03*
X43140D02*
D03*
X50140D02*
D03*
X57136D02*
D03*
X50077Y125600D02*
D03*
X57077D02*
D03*
X64077D02*
D03*
X71077D02*
D03*
X29136D02*
D03*
X36136D02*
D03*
X43136D02*
D03*
X50077Y118590D02*
D03*
X57077D02*
D03*
X64077D02*
D03*
X71077D02*
D03*
X29136D02*
D03*
X36136D02*
D03*
X43136D02*
D03*
X50077Y111590D02*
D03*
X57077D02*
D03*
X64077D02*
D03*
X71077D02*
D03*
X29136D02*
D03*
X36136D02*
D03*
X43136D02*
D03*
X50077Y146600D02*
D03*
X57077D02*
D03*
X64077D02*
D03*
X71077D02*
D03*
X29136D02*
D03*
X36136D02*
D03*
X43136D02*
D03*
X50077Y139590D02*
D03*
X57077D02*
D03*
X64077D02*
D03*
X71077D02*
D03*
X29136D02*
D03*
X36136D02*
D03*
X43136D02*
D03*
X50077Y132590D02*
D03*
X57077D02*
D03*
X64077D02*
D03*
X71077D02*
D03*
X29136D02*
D03*
X36136D02*
D03*
X43136D02*
D03*
X49327Y336600D02*
D03*
X56327D02*
D03*
X70330D02*
D03*
X42386D02*
D03*
X49327Y329590D02*
D03*
X56327D02*
D03*
X63327D02*
D03*
X70327D02*
D03*
X42386D02*
D03*
X49327Y322590D02*
D03*
X56327D02*
D03*
X63327D02*
D03*
X70327D02*
D03*
X42386D02*
D03*
X42916Y210000D02*
D03*
X35916D02*
D03*
X28916D02*
D03*
X70857D02*
D03*
X63857D02*
D03*
X56857D02*
D03*
X49857D02*
D03*
X42916Y217000D02*
D03*
X35916D02*
D03*
X28916D02*
D03*
X70857D02*
D03*
X63857D02*
D03*
X56857D02*
D03*
X49857D02*
D03*
X42916Y224010D02*
D03*
X35916D02*
D03*
X28916D02*
D03*
X70857D02*
D03*
X63857D02*
D03*
X56857D02*
D03*
X49857D02*
D03*
X42916Y231081D02*
D03*
X35916D02*
D03*
X28916D02*
D03*
X70857D02*
D03*
X63857D02*
D03*
X56857D02*
D03*
X49857D02*
D03*
X43166Y181750D02*
D03*
X36166D02*
D03*
X29166D02*
D03*
X71107D02*
D03*
X64107D02*
D03*
X57107D02*
D03*
X50107D02*
D03*
X43166Y188750D02*
D03*
X36166D02*
D03*
X29166D02*
D03*
X71107D02*
D03*
X64107D02*
D03*
X57107D02*
D03*
X50107D02*
D03*
X43166Y195760D02*
D03*
X36166D02*
D03*
X29166D02*
D03*
X71107D02*
D03*
X64107D02*
D03*
X57107D02*
D03*
X50107D02*
D03*
X43166Y202831D02*
D03*
X36166D02*
D03*
X29166D02*
D03*
X71107D02*
D03*
X64107D02*
D03*
X57107D02*
D03*
X50107D02*
D03*
X43416Y153750D02*
D03*
X36416D02*
D03*
X29416D02*
D03*
X71357D02*
D03*
X64357D02*
D03*
X57357D02*
D03*
X50357D02*
D03*
X43416Y160750D02*
D03*
X36416D02*
D03*
X29416D02*
D03*
X71357D02*
D03*
X64357D02*
D03*
X57357D02*
D03*
X50357D02*
D03*
X43416Y167760D02*
D03*
X36416D02*
D03*
X29416D02*
D03*
X71357D02*
D03*
X64357D02*
D03*
X57357D02*
D03*
X50357D02*
D03*
X43416Y174831D02*
D03*
X36416D02*
D03*
X29416D02*
D03*
X71357D02*
D03*
X64357D02*
D03*
X57357D02*
D03*
X50357D02*
D03*
X49827Y259171D02*
D03*
X56827D02*
D03*
X63827D02*
D03*
X70827D02*
D03*
X42886D02*
D03*
X49827Y252100D02*
D03*
X56827D02*
D03*
X63827D02*
D03*
X70827D02*
D03*
X42886D02*
D03*
X49827Y245090D02*
D03*
X56827D02*
D03*
X63827D02*
D03*
X70827D02*
D03*
X28886D02*
D03*
X35886D02*
D03*
X42886D02*
D03*
X49827Y238090D02*
D03*
X56827D02*
D03*
X63827D02*
D03*
X70827D02*
D03*
X28886D02*
D03*
X35886D02*
D03*
X42886D02*
D03*
X49577Y287171D02*
D03*
X56577D02*
D03*
X63577D02*
D03*
X70577D02*
D03*
X42636D02*
D03*
X49577Y280100D02*
D03*
X56577D02*
D03*
X63577D02*
D03*
X70577D02*
D03*
X42636D02*
D03*
X49577Y273090D02*
D03*
X56577D02*
D03*
X63577D02*
D03*
X70577D02*
D03*
X42636D02*
D03*
X49577Y266090D02*
D03*
X56577D02*
D03*
X63577D02*
D03*
X70577D02*
D03*
X42636D02*
D03*
X49327Y315421D02*
D03*
X56327D02*
D03*
X63327D02*
D03*
X70327D02*
D03*
X42386D02*
D03*
X49327Y308350D02*
D03*
X56327D02*
D03*
X63327D02*
D03*
X70327D02*
D03*
X42386D02*
D03*
X49327Y301340D02*
D03*
X56327D02*
D03*
X63327D02*
D03*
X70327D02*
D03*
X42386D02*
D03*
X49327Y294340D02*
D03*
X56327D02*
D03*
X63327D02*
D03*
X70327D02*
D03*
X42386D02*
D03*
X93750Y665503D02*
D03*
X26500Y359750D02*
D03*
X35250Y604380D02*
D03*
X85250Y557503D02*
D03*
D79*
X167750Y721500D02*
D03*
X586750Y181250D02*
D03*
X208250Y721500D02*
D03*
X241500Y697250D02*
D03*
X170750Y626440D02*
D03*
X512250Y734000D02*
D03*
X287048Y642988D02*
D03*
X490250Y655990D02*
D03*
D80*
X647184Y113296D02*
D03*
X640040Y120047D02*
D03*
X640000Y106500D02*
D03*
X632926Y113215D02*
D03*
D81*
X414451Y551300D02*
D03*
M02*
