G04*
G04 #@! TF.GenerationSoftware,Altium Limited,Altium Designer,24.3.1 (35)*
G04*
G04 Layer_Color=65535*
%FSLAX44Y44*%
%MOMM*%
G71*
G04*
G04 #@! TF.SameCoordinates,EE9A5EF0-155C-4C8F-B462-BE7DD29FB847*
G04*
G04*
G04 #@! TF.FilePolarity,Positive*
G04*
G01*
G75*
%ADD10C,0.1000*%
%ADD11C,0.2540*%
%ADD12C,1.0000*%
%ADD13C,0.2500*%
%ADD14C,0.2000*%
D10*
X175000Y450000D02*
G03*
X174000Y450000I-500J0D01*
G01*
D02*
G03*
X175000Y450000I500J0D01*
G01*
D11*
X360600Y654488D02*
G03*
X360600Y654488I-1500J0D01*
G01*
X544550Y653000D02*
G03*
X544550Y653000I-1500J0D01*
G01*
X294750Y651812D02*
X355250Y651678D01*
X294750Y580788D02*
Y651812D01*
X355250Y580788D02*
Y651678D01*
X294750Y580788D02*
X355250D01*
X478700Y650324D02*
X539200Y650190D01*
X478700Y579300D02*
Y650324D01*
X539200Y579300D02*
Y650190D01*
X478700Y579300D02*
X539200D01*
X538950Y766750D02*
X565950Y739750D01*
Y662750D02*
Y739750D01*
X535950Y662750D02*
X565950D01*
X481950D02*
X512950D01*
X481950D02*
Y739750D01*
X508950Y766750D01*
X450500Y766500D02*
X477500Y739500D01*
Y662500D02*
Y739500D01*
X447500Y662500D02*
X477500D01*
X393500D02*
X424500D01*
X393500D02*
Y739500D01*
X420500Y766500D01*
X279050Y570300D02*
X600273Y570300D01*
X599522Y230300D02*
X600273Y570300D01*
X293250Y230300D02*
X599522D01*
X279050Y244500D02*
Y570300D01*
Y244500D02*
X293250Y230300D01*
X278919Y230200D02*
X294450D01*
X278919D02*
Y245569D01*
X569750Y656500D02*
X596750Y683500D01*
X569750Y579500D02*
Y656500D01*
Y579500D02*
X600750D01*
X623750D02*
X653750D01*
Y656500D01*
X626750Y683500D02*
X653750Y656500D01*
X383781Y749922D02*
X388494Y745210D01*
X393206D01*
Y749922D01*
X388494Y754635D01*
X396741Y760525D02*
X394384Y760525D01*
X392028Y758169D01*
Y755813D01*
X396741Y751100D01*
X399097D01*
X401453Y753457D01*
Y755813D01*
X403809Y767594D02*
X401453Y767594D01*
X399097Y765238D01*
Y762882D01*
X403809Y758169D01*
X406166D01*
X408522Y760525D01*
X408522Y762882D01*
X254685Y763121D02*
X253019Y764787D01*
X249687D01*
X248021Y763121D01*
Y756456D01*
X249687Y754790D01*
X253019D01*
X254685Y756456D01*
Y759788D01*
X251353D01*
X258018Y754790D02*
Y764787D01*
X264682Y754790D01*
Y764787D01*
X268014D02*
Y754790D01*
X273013D01*
X274679Y756456D01*
Y763121D01*
X273013Y764787D01*
X268014D01*
X420540Y20203D02*
Y10206D01*
Y15204D01*
X427205D01*
Y20203D01*
Y10206D01*
X430537Y20203D02*
Y13538D01*
X433869Y10206D01*
X437201Y13538D01*
Y20203D01*
X440534Y8540D02*
X447198D01*
X457195Y18537D02*
X455529Y20203D01*
X452197D01*
X450530Y18537D01*
Y11872D01*
X452197Y10206D01*
X455529D01*
X457195Y11872D01*
Y15204D01*
X453863D01*
X460527Y10206D02*
Y20203D01*
X467192Y10206D01*
Y20203D01*
X470524D02*
Y10206D01*
X475522D01*
X477188Y11872D01*
Y18537D01*
X475522Y20203D01*
X470524D01*
X186040Y18703D02*
Y8706D01*
Y13705D01*
X192705D01*
Y18703D01*
Y8706D01*
X196037Y18703D02*
Y12038D01*
X199369Y8706D01*
X202701Y12038D01*
Y18703D01*
X206033Y7040D02*
X212698D01*
X216030Y18703D02*
Y12038D01*
X219363Y8706D01*
X222695Y12038D01*
Y18703D01*
X232692Y17037D02*
X231026Y18703D01*
X227693D01*
X226027Y17037D01*
Y10372D01*
X227693Y8706D01*
X231026D01*
X232692Y10372D01*
X242688Y17037D02*
X241022Y18703D01*
X237690D01*
X236024Y17037D01*
Y10372D01*
X237690Y8706D01*
X241022D01*
X242688Y10372D01*
X327139Y67751D02*
Y75749D01*
X331138D01*
X332470Y74416D01*
Y71750D01*
X331138Y70417D01*
X327139D01*
X340468Y67751D02*
X335136D01*
X340468Y73083D01*
Y74416D01*
X339135Y75749D01*
X336469D01*
X335136Y74416D01*
X610281Y545617D02*
X620438D01*
X615360D01*
Y530382D01*
X625516D02*
X630595D01*
X628056D01*
Y545617D01*
X625516Y543078D01*
X283667Y630234D02*
Y635565D01*
X282334Y636898D01*
X279668D01*
X278335Y635565D01*
Y630234D01*
X279668Y628901D01*
X282334D01*
X281001Y631567D02*
X283667Y628901D01*
X282334D02*
X283667Y630234D01*
X291665Y628901D02*
X286333D01*
X291665Y634232D01*
Y635565D01*
X290332Y636898D01*
X287666D01*
X286333Y635565D01*
X468500Y643084D02*
Y648416D01*
X467167Y649749D01*
X464501D01*
X463168Y648416D01*
Y643084D01*
X464501Y641751D01*
X467167D01*
X465834Y644417D02*
X468500Y641751D01*
X467167D02*
X468500Y643084D01*
X471166Y641751D02*
X473832D01*
X472499D01*
Y649749D01*
X471166Y648416D01*
X322918Y697251D02*
Y705249D01*
X326917D01*
X328250Y703916D01*
Y701250D01*
X326917Y699917D01*
X322918D01*
X330916Y697251D02*
X333582D01*
X332249D01*
Y705249D01*
X330916Y703916D01*
X183264Y734486D02*
Y742484D01*
X187262D01*
X188595Y741151D01*
Y738485D01*
X187262Y737152D01*
X183264D01*
X185929D02*
X188595Y734486D01*
X191261D02*
X193927D01*
X192594D01*
Y742484D01*
X191261Y741151D01*
X194086Y473499D02*
Y465501D01*
X198084D01*
X199417Y466834D01*
Y472166D01*
X198084Y473499D01*
X194086D01*
X202083D02*
X207414D01*
Y472166D01*
X202083Y466834D01*
Y465501D01*
X233330Y584798D02*
X241327D01*
Y588797D01*
X239994Y590130D01*
X234663D01*
X233330Y588797D01*
Y584798D01*
X241327Y596794D02*
X233330D01*
X237329Y592795D01*
Y598127D01*
X126501Y513836D02*
Y516502D01*
Y515169D01*
X134499D01*
Y513836D01*
Y516502D01*
X127834Y525832D02*
X126501Y524499D01*
Y521834D01*
X127834Y520501D01*
X133166D01*
X134499Y521834D01*
Y524499D01*
X133166Y525832D01*
X134499Y528498D02*
Y531164D01*
Y529831D01*
X126501D01*
X127834Y528498D01*
X274999Y672837D02*
X267001D01*
Y676835D01*
X268334Y678168D01*
X271000D01*
X272333Y676835D01*
Y672837D01*
Y675503D02*
X274999Y678168D01*
Y686166D02*
Y680834D01*
X269667Y686166D01*
X268334D01*
X267001Y684833D01*
Y682167D01*
X268334Y680834D01*
X267001Y694163D02*
Y688832D01*
X271000D01*
X269667Y691497D01*
Y692830D01*
X271000Y694163D01*
X273666D01*
X274999Y692830D01*
Y690164D01*
X273666Y688832D01*
X216499Y672587D02*
X208501D01*
Y676585D01*
X209834Y677918D01*
X212500D01*
X213833Y676585D01*
Y672587D01*
Y675253D02*
X216499Y677918D01*
Y685916D02*
Y680584D01*
X211167Y685916D01*
X209834D01*
X208501Y684583D01*
Y681917D01*
X209834Y680584D01*
X216499Y692580D02*
X208501D01*
X212500Y688582D01*
Y693913D01*
X128249Y676837D02*
X120251D01*
Y680835D01*
X121584Y682168D01*
X124250D01*
X125583Y680835D01*
Y676837D01*
Y679503D02*
X128249Y682168D01*
Y690166D02*
Y684834D01*
X122917Y690166D01*
X121584D01*
X120251Y688833D01*
Y686167D01*
X121584Y684834D01*
X128249Y698163D02*
Y692832D01*
X122917Y698163D01*
X121584D01*
X120251Y696830D01*
Y694165D01*
X121584Y692832D01*
X91744Y594670D02*
X83747D01*
Y598668D01*
X85079Y600001D01*
X87745D01*
X89078Y598668D01*
Y594670D01*
Y597336D02*
X91744Y600001D01*
Y607999D02*
Y602667D01*
X86412Y607999D01*
X85079D01*
X83747Y606666D01*
Y604000D01*
X85079Y602667D01*
X91744Y610664D02*
Y613330D01*
Y611997D01*
X83747D01*
X85079Y610664D01*
X147837Y608501D02*
Y616499D01*
X151835D01*
X153168Y615166D01*
Y612500D01*
X151835Y611167D01*
X147837D01*
X150503D02*
X153168Y608501D01*
X161166D02*
X155834D01*
X161166Y613833D01*
Y615166D01*
X159833Y616499D01*
X157167D01*
X155834Y615166D01*
X163832D02*
X165165Y616499D01*
X167830D01*
X169163Y615166D01*
Y609834D01*
X167830Y608501D01*
X165165D01*
X163832Y609834D01*
Y615166D01*
X377546Y629711D02*
X369548D01*
Y633709D01*
X370881Y635042D01*
X373547D01*
X374880Y633709D01*
Y629711D01*
Y632376D02*
X377546Y635042D01*
Y637708D02*
Y640374D01*
Y639041D01*
X369548D01*
X370881Y637708D01*
X376213Y644372D02*
X377546Y645705D01*
Y648371D01*
X376213Y649704D01*
X370881D01*
X369548Y648371D01*
Y645705D01*
X370881Y644372D01*
X372214D01*
X373547Y645705D01*
Y649704D01*
X454823Y629654D02*
X446826D01*
Y633653D01*
X448158Y634986D01*
X450824D01*
X452157Y633653D01*
Y629654D01*
Y632320D02*
X454823Y634986D01*
Y637651D02*
Y640317D01*
Y638984D01*
X446826D01*
X448158Y637651D01*
Y644316D02*
X446826Y645649D01*
Y648315D01*
X448158Y649648D01*
X449491D01*
X450824Y648315D01*
X452157Y649648D01*
X453490D01*
X454823Y648315D01*
Y645649D01*
X453490Y644316D01*
X452157D01*
X450824Y645649D01*
X449491Y644316D01*
X448158D01*
X450824Y645649D02*
Y648315D01*
X261317Y594653D02*
X253320D01*
Y598651D01*
X254653Y599984D01*
X257319D01*
X258652Y598651D01*
Y594653D01*
Y597318D02*
X261317Y599984D01*
Y602650D02*
Y605316D01*
Y603983D01*
X253320D01*
X254653Y602650D01*
X253320Y609315D02*
Y614646D01*
X254653D01*
X259984Y609315D01*
X261317D01*
X5253Y588000D02*
Y595997D01*
X9252D01*
X10585Y594664D01*
Y591998D01*
X9252Y590666D01*
X5253D01*
X7919D02*
X10585Y588000D01*
X13251D02*
X15917D01*
X14584D01*
Y595997D01*
X13251Y594664D01*
X25247Y595997D02*
X22581Y594664D01*
X19915Y591998D01*
Y589333D01*
X21248Y588000D01*
X23914D01*
X25247Y589333D01*
Y590666D01*
X23914Y591998D01*
X19915D01*
X152753Y113501D02*
Y120499D01*
X156252D01*
X157418Y119333D01*
Y117000D01*
X156252Y115834D01*
X152753D01*
X155085D02*
X157418Y113501D01*
X159751D02*
X162083D01*
X160917D01*
Y120499D01*
X159751Y119333D01*
X170247Y120499D02*
X165582D01*
Y117000D01*
X167915Y118166D01*
X169081D01*
X170247Y117000D01*
Y114667D01*
X169081Y113501D01*
X166748D01*
X165582Y114667D01*
X274003Y208251D02*
Y216249D01*
X278002D01*
X279335Y214916D01*
Y212250D01*
X278002Y210917D01*
X274003D01*
X276669D02*
X279335Y208251D01*
X282001D02*
X284666D01*
X283333D01*
Y216249D01*
X282001Y214916D01*
X292664Y208251D02*
Y216249D01*
X288665Y212250D01*
X293997D01*
X151753Y137751D02*
Y144749D01*
X155252D01*
X156418Y143583D01*
Y141250D01*
X155252Y140084D01*
X151753D01*
X154085D02*
X156418Y137751D01*
X158751D02*
X161083D01*
X159917D01*
Y144749D01*
X158751Y143583D01*
X164582D02*
X165748Y144749D01*
X168081D01*
X169247Y143583D01*
Y142416D01*
X168081Y141250D01*
X166915D01*
X168081D01*
X169247Y140084D01*
Y138917D01*
X168081Y137751D01*
X165748D01*
X164582Y138917D01*
X50703Y356500D02*
Y364497D01*
X54702D01*
X56035Y363164D01*
Y360499D01*
X54702Y359166D01*
X50703D01*
X53369D02*
X56035Y356500D01*
X58701D02*
X61367D01*
X60034D01*
Y364497D01*
X58701Y363164D01*
X70697Y356500D02*
X65365D01*
X70697Y361832D01*
Y363164D01*
X69364Y364497D01*
X66698D01*
X65365Y363164D01*
X272836Y184251D02*
Y192249D01*
X276835D01*
X278168Y190916D01*
Y188250D01*
X276835Y186917D01*
X272836D01*
X275502D02*
X278168Y184251D01*
X280834D02*
X283499D01*
X282167D01*
Y192249D01*
X280834Y190916D01*
X287498Y184251D02*
X290164D01*
X288831D01*
Y192249D01*
X287498Y190916D01*
X152503Y161251D02*
Y168249D01*
X156002D01*
X157168Y167083D01*
Y164750D01*
X156002Y163584D01*
X152503D01*
X154835D02*
X157168Y161251D01*
X159501D02*
X161833D01*
X160667D01*
Y168249D01*
X159501Y167083D01*
X165332D02*
X166498Y168249D01*
X168831D01*
X169997Y167083D01*
Y162417D01*
X168831Y161251D01*
X166498D01*
X165332Y162417D01*
Y167083D01*
X273335Y162216D02*
Y170213D01*
X277334D01*
X278667Y168880D01*
Y166215D01*
X277334Y164882D01*
X273335D01*
X276001D02*
X278667Y162216D01*
X281333Y163549D02*
X282666Y162216D01*
X285332D01*
X286665Y163549D01*
Y168880D01*
X285332Y170213D01*
X282666D01*
X281333Y168880D01*
Y167547D01*
X282666Y166215D01*
X286665D01*
X158168Y184751D02*
Y191749D01*
X161667D01*
X162834Y190583D01*
Y188250D01*
X161667Y187084D01*
X158168D01*
X160501D02*
X162834Y184751D01*
X165166Y190583D02*
X166333Y191749D01*
X168665D01*
X169832Y190583D01*
Y189416D01*
X168665Y188250D01*
X169832Y187084D01*
Y185917D01*
X168665Y184751D01*
X166333D01*
X165166Y185917D01*
Y187084D01*
X166333Y188250D01*
X165166Y189416D01*
Y190583D01*
X166333Y188250D02*
X168665D01*
X272335Y139001D02*
Y146999D01*
X276334D01*
X277667Y145666D01*
Y143000D01*
X276334Y141667D01*
X272335D01*
X275001D02*
X277667Y139001D01*
X280333Y146999D02*
X285665D01*
Y145666D01*
X280333Y140334D01*
Y139001D01*
X121086Y298001D02*
Y305999D01*
X125084D01*
X126417Y304666D01*
Y302000D01*
X125084Y300667D01*
X121086D01*
X123751D02*
X126417Y298001D01*
X134415Y305999D02*
X131749Y304666D01*
X129083Y302000D01*
Y299334D01*
X130416Y298001D01*
X133082D01*
X134415Y299334D01*
Y300667D01*
X133082Y302000D01*
X129083D01*
X158419Y207251D02*
Y214249D01*
X161917D01*
X163084Y213083D01*
Y210750D01*
X161917Y209584D01*
X158419D01*
X160751D02*
X163084Y207251D01*
X170081Y214249D02*
X165416D01*
Y210750D01*
X167749Y211916D01*
X168915D01*
X170081Y210750D01*
Y208417D01*
X168915Y207251D01*
X166583D01*
X165416Y208417D01*
X272014Y116001D02*
Y123999D01*
X276013D01*
X277346Y122666D01*
Y120000D01*
X276013Y118667D01*
X272014D01*
X274680D02*
X277346Y116001D01*
X284011D02*
Y123999D01*
X280012Y120000D01*
X285343D01*
X120336Y107001D02*
Y114999D01*
X124334D01*
X125667Y113666D01*
Y111000D01*
X124334Y109667D01*
X120336D01*
X123001D02*
X125667Y107001D01*
X128333Y113666D02*
X129666Y114999D01*
X132332D01*
X133665Y113666D01*
Y112333D01*
X132332Y111000D01*
X130999D01*
X132332D01*
X133665Y109667D01*
Y108334D01*
X132332Y107001D01*
X129666D01*
X128333Y108334D01*
X423152Y118057D02*
X428807Y112402D01*
X432578Y116173D01*
X434463Y118057D02*
X436348Y119943D01*
X435405Y119000D01*
X429750Y124655D01*
X429750Y122770D01*
X7336Y663499D02*
Y655501D01*
X11334D01*
X12667Y656834D01*
Y662166D01*
X11334Y663499D01*
X7336D01*
X20665D02*
X17999Y662166D01*
X15333Y659500D01*
Y656834D01*
X16666Y655501D01*
X19332D01*
X20665Y656834D01*
Y658167D01*
X19332Y659500D01*
X15333D01*
X14835Y634249D02*
Y626251D01*
X18834D01*
X20167Y627584D01*
Y632916D01*
X18834Y634249D01*
X14835D01*
X28165D02*
X22833D01*
Y630250D01*
X25499Y631583D01*
X26832D01*
X28165Y630250D01*
Y627584D01*
X26832Y626251D01*
X24166D01*
X22833Y627584D01*
X146497Y378999D02*
Y371001D01*
X150496D01*
X151829Y372334D01*
Y377666D01*
X150496Y378999D01*
X146497D01*
X154495Y377666D02*
X155828Y378999D01*
X158493D01*
X159826Y377666D01*
Y376333D01*
X158493Y375000D01*
X157161D01*
X158493D01*
X159826Y373667D01*
Y372334D01*
X158493Y371001D01*
X155828D01*
X154495Y372334D01*
X632336Y266999D02*
Y259001D01*
X636334D01*
X637667Y260334D01*
Y265666D01*
X636334Y266999D01*
X632336D01*
X645665Y259001D02*
X640333D01*
X645665Y264333D01*
Y265666D01*
X644332Y266999D01*
X641666D01*
X640333Y265666D01*
X184755Y310749D02*
Y302751D01*
X188753D01*
X190086Y304084D01*
Y309416D01*
X188753Y310749D01*
X184755D01*
X192752Y302751D02*
X195418D01*
X194085D01*
Y310749D01*
X192752Y309416D01*
X154918Y553416D02*
X153586Y554749D01*
X150920D01*
X149587Y553416D01*
Y548084D01*
X150920Y546751D01*
X153586D01*
X154918Y548084D01*
X162916Y546751D02*
X157584D01*
X162916Y552083D01*
Y553416D01*
X161583Y554749D01*
X158917D01*
X157584Y553416D01*
X169580Y546751D02*
Y554749D01*
X165582Y550750D01*
X170913D01*
X639380Y693240D02*
X638047Y694573D01*
X635382D01*
X634049Y693240D01*
Y687908D01*
X635382Y686575D01*
X638047D01*
X639380Y687908D01*
X647378Y686575D02*
X642046D01*
X647378Y691907D01*
Y693240D01*
X646045Y694573D01*
X643379D01*
X642046Y693240D01*
X650043D02*
X651376Y694573D01*
X654042D01*
X655375Y693240D01*
Y691907D01*
X654042Y690574D01*
X652709D01*
X654042D01*
X655375Y689241D01*
Y687908D01*
X654042Y686575D01*
X651376D01*
X650043Y687908D01*
X101334Y680418D02*
X100001Y679085D01*
Y676420D01*
X101334Y675087D01*
X106666D01*
X107999Y676420D01*
Y679085D01*
X106666Y680418D01*
X107999Y688416D02*
Y683084D01*
X102667Y688416D01*
X101334D01*
X100001Y687083D01*
Y684417D01*
X101334Y683084D01*
X107999Y696413D02*
Y691082D01*
X102667Y696413D01*
X101334D01*
X100001Y695080D01*
Y692414D01*
X101334Y691082D01*
X475251Y764166D02*
X473918Y765499D01*
X471253D01*
X469920Y764166D01*
Y758834D01*
X471253Y757501D01*
X473918D01*
X475251Y758834D01*
X483249Y757501D02*
X477917D01*
X483249Y762833D01*
Y764166D01*
X481916Y765499D01*
X479250D01*
X477917Y764166D01*
X485914Y757501D02*
X488580D01*
X487247D01*
Y765499D01*
X485914Y764166D01*
X153168Y598166D02*
X151835Y599499D01*
X149170D01*
X147837Y598166D01*
Y592834D01*
X149170Y591501D01*
X151835D01*
X153168Y592834D01*
X161166Y591501D02*
X155834D01*
X161166Y596833D01*
Y598166D01*
X159833Y599499D01*
X157167D01*
X155834Y598166D01*
X163832D02*
X165165Y599499D01*
X167830D01*
X169163Y598166D01*
Y592834D01*
X167830Y591501D01*
X165165D01*
X163832Y592834D01*
Y598166D01*
X566835Y760916D02*
X565502Y762249D01*
X562836D01*
X561503Y760916D01*
Y755584D01*
X562836Y754251D01*
X565502D01*
X566835Y755584D01*
X569501Y754251D02*
X572166D01*
X570834D01*
Y762249D01*
X569501Y760916D01*
X576165Y755584D02*
X577498Y754251D01*
X580164D01*
X581497Y755584D01*
Y760916D01*
X580164Y762249D01*
X577498D01*
X576165Y760916D01*
Y759583D01*
X577498Y758250D01*
X581497D01*
X596084Y697835D02*
X594751Y696502D01*
Y693836D01*
X596084Y692503D01*
X601416D01*
X602749Y693836D01*
Y696502D01*
X601416Y697835D01*
X602749Y700501D02*
Y703167D01*
Y701834D01*
X594751D01*
X596084Y700501D01*
Y707165D02*
X594751Y708498D01*
Y711164D01*
X596084Y712497D01*
X597417D01*
X598750Y711164D01*
X600083Y712497D01*
X601416D01*
X602749Y711164D01*
Y708498D01*
X601416Y707165D01*
X600083D01*
X598750Y708498D01*
X597417Y707165D01*
X596084D01*
X598750Y708498D02*
Y711164D01*
X81834Y569085D02*
X80501Y567752D01*
Y565086D01*
X81834Y563753D01*
X87166D01*
X88499Y565086D01*
Y567752D01*
X87166Y569085D01*
X88499Y571751D02*
Y574417D01*
Y573084D01*
X80501D01*
X81834Y571751D01*
X80501Y578415D02*
Y583747D01*
X81834D01*
X87166Y578415D01*
X88499D01*
X407835Y584916D02*
X406502Y586249D01*
X403836D01*
X402503Y584916D01*
Y579584D01*
X403836Y578251D01*
X406502D01*
X407835Y579584D01*
X410501Y578251D02*
X413166D01*
X411833D01*
Y586249D01*
X410501Y584916D01*
X422497Y586249D02*
X419831Y584916D01*
X417165Y582250D01*
Y579584D01*
X418498Y578251D01*
X421164D01*
X422497Y579584D01*
Y580917D01*
X421164Y582250D01*
X417165D01*
X5334Y562835D02*
X4001Y561502D01*
Y558836D01*
X5334Y557503D01*
X10666D01*
X11999Y558836D01*
Y561502D01*
X10666Y562835D01*
X11999Y565501D02*
Y568167D01*
Y566834D01*
X4001D01*
X5334Y565501D01*
X4001Y577497D02*
Y572165D01*
X8000D01*
X6667Y574831D01*
Y576164D01*
X8000Y577497D01*
X10666D01*
X11999Y576164D01*
Y573498D01*
X10666Y572165D01*
X57491Y380916D02*
X56158Y382249D01*
X53492D01*
X52159Y380916D01*
Y375584D01*
X53492Y374251D01*
X56158D01*
X57491Y375584D01*
X60157Y374251D02*
X62822D01*
X61490D01*
Y382249D01*
X60157Y380916D01*
X70820Y374251D02*
Y382249D01*
X66821Y378250D01*
X72153D01*
X608440Y180666D02*
Y182551D01*
X606555Y184436D01*
X604670Y184436D01*
X600900Y180666D01*
Y178781D01*
X602785Y176896D01*
X604670Y176896D01*
X605612Y174069D02*
X607497Y172183D01*
X606555Y173126D01*
X612210Y178781D01*
X610325Y178781D01*
X615037Y174069D02*
X616922Y174069D01*
X618807Y172183D01*
Y170299D01*
X617865Y169356D01*
X615980D01*
X615037Y170299D01*
X615980Y169356D01*
Y167471D01*
X615037Y166528D01*
X613153Y166528D01*
X611268Y168413D01*
Y170299D01*
X620836Y192934D02*
Y194819D01*
X618951Y196704D01*
X617066Y196704D01*
X613296Y192934D01*
Y191049D01*
X615181Y189164D01*
X617066Y189164D01*
X618009Y186336D02*
X619894Y184451D01*
X618951Y185394D01*
X624606Y191049D01*
X622721Y191049D01*
X626491Y177854D02*
X622721Y181624D01*
X630261D01*
X631204Y182566D01*
Y184451D01*
X629319Y186336D01*
X627434Y186336D01*
X195418Y261916D02*
X194085Y263249D01*
X191419D01*
X190086Y261916D01*
Y256584D01*
X191419Y255251D01*
X194085D01*
X195418Y256584D01*
X198084Y255251D02*
X200749D01*
X199417D01*
Y263249D01*
X198084Y261916D01*
X204748Y255251D02*
X207414D01*
X206081D01*
Y263249D01*
X204748Y261916D01*
X241835Y259916D02*
X240502Y261249D01*
X237836D01*
X236503Y259916D01*
Y254584D01*
X237836Y253251D01*
X240502D01*
X241835Y254584D01*
X244501Y253251D02*
X247166D01*
X245833D01*
Y261249D01*
X244501Y259916D01*
X251165D02*
X252498Y261249D01*
X255164D01*
X256497Y259916D01*
Y254584D01*
X255164Y253251D01*
X252498D01*
X251165Y254584D01*
Y259916D01*
X100971Y29931D02*
X99638Y31264D01*
X96972D01*
X95639Y29931D01*
Y24600D01*
X96972Y23267D01*
X99638D01*
X100971Y24600D01*
X103636D02*
X104969Y23267D01*
X107635D01*
X108968Y24600D01*
Y29931D01*
X107635Y31264D01*
X104969D01*
X103636Y29931D01*
Y28598D01*
X104969Y27266D01*
X108968D01*
X149170Y29739D02*
X147837Y31072D01*
X145172D01*
X143839Y29739D01*
Y24408D01*
X145172Y23075D01*
X147837D01*
X149170Y24408D01*
X151836Y29739D02*
X153169Y31072D01*
X155835D01*
X157168Y29739D01*
Y28407D01*
X155835Y27074D01*
X157168Y25741D01*
Y24408D01*
X155835Y23075D01*
X153169D01*
X151836Y24408D01*
Y25741D01*
X153169Y27074D01*
X151836Y28407D01*
Y29739D01*
X153169Y27074D02*
X155835D01*
X236933Y48666D02*
X235600Y49999D01*
X232934D01*
X231601Y48666D01*
Y43334D01*
X232934Y42001D01*
X235600D01*
X236933Y43334D01*
X239598Y49999D02*
X244930D01*
Y48666D01*
X239598Y43334D01*
Y42001D01*
X111417Y95416D02*
X110084Y96749D01*
X107418D01*
X106086Y95416D01*
Y90084D01*
X107418Y88751D01*
X110084D01*
X111417Y90084D01*
X119415Y96749D02*
X116749Y95416D01*
X114083Y92750D01*
Y90084D01*
X115416Y88751D01*
X118082D01*
X119415Y90084D01*
Y91417D01*
X118082Y92750D01*
X114083D01*
X151433Y96416D02*
X150100Y97749D01*
X147434D01*
X146101Y96416D01*
Y91084D01*
X147434Y89751D01*
X150100D01*
X151433Y91084D01*
X159430Y97749D02*
X154098D01*
Y93750D01*
X156764Y95083D01*
X158097D01*
X159430Y93750D01*
Y91084D01*
X158097Y89751D01*
X155431D01*
X154098Y91084D01*
X236433Y80916D02*
X235100Y82249D01*
X232434D01*
X231101Y80916D01*
Y75584D01*
X232434Y74251D01*
X235100D01*
X236433Y75584D01*
X243097Y74251D02*
Y82249D01*
X239098Y78250D01*
X244430D01*
X420917Y186166D02*
X419584Y187499D01*
X416918D01*
X415586Y186166D01*
Y180834D01*
X416918Y179501D01*
X419584D01*
X420917Y180834D01*
X423583Y186166D02*
X424916Y187499D01*
X427582D01*
X428914Y186166D01*
Y184833D01*
X427582Y183500D01*
X426249D01*
X427582D01*
X428914Y182167D01*
Y180834D01*
X427582Y179501D01*
X424916D01*
X423583Y180834D01*
X370414Y175166D02*
X369081Y176499D01*
X366415D01*
X365082Y175166D01*
Y169834D01*
X366415Y168501D01*
X369081D01*
X370414Y169834D01*
X378411Y168501D02*
X373080D01*
X378411Y173833D01*
Y175166D01*
X377079Y176499D01*
X374413D01*
X373080Y175166D01*
X320603Y167914D02*
X319270Y169247D01*
X316604D01*
X315271Y167914D01*
Y162582D01*
X316604Y161249D01*
X319270D01*
X320603Y162582D01*
X323269Y161249D02*
X325935D01*
X324602D01*
Y169247D01*
X323269Y167914D01*
D12*
X650000Y740000D02*
G03*
X650000Y740000I-20000J0D01*
G01*
Y30000D02*
G03*
X650000Y30000I-20000J0D01*
G01*
X50000D02*
G03*
X50000Y30000I-20000J0D01*
G01*
Y740000D02*
G03*
X50000Y740000I-20000J0D01*
G01*
D13*
X126500Y542248D02*
G03*
X126500Y542248I-1250J0D01*
G01*
D14*
X255800Y60000D02*
X404200D01*
Y-60000D02*
Y60000D01*
X255800Y-60000D02*
X404200D01*
X255800D02*
Y60000D01*
X378800Y710000D02*
Y830000D01*
X281600D02*
X378800D01*
X281200Y710000D02*
Y830000D01*
X281600Y710000D02*
X378800D01*
X106750Y209000D02*
Y294250D01*
X107250Y209000D02*
X147750D01*
X106750Y294250D02*
X147750D01*
Y209000D02*
Y294250D01*
X106500Y119320D02*
Y204570D01*
X107000Y119320D02*
X147500D01*
X106500Y204570D02*
X147500D01*
Y119320D02*
Y204570D01*
X573380Y687510D02*
Y717990D01*
Y687510D02*
X588620D01*
X573380Y717990D02*
X588620D01*
Y687510D02*
Y717990D01*
X263389Y660391D02*
Y706111D01*
X243069D02*
X263389D01*
X243069Y660391D02*
X263389D01*
X243069D02*
Y706111D01*
X278919Y245569D02*
X279050Y245700D01*
X584439Y214388D02*
X605992Y192836D01*
X616768Y203612D01*
X584439Y214388D02*
X595215Y225164D01*
X616768Y203612D01*
X240611Y660391D02*
Y706111D01*
X220291D02*
X240611D01*
X220291Y660391D02*
X240611D01*
X220291D02*
Y706111D01*
X172260Y729120D02*
X202740D01*
X172260Y713880D02*
Y729120D01*
X202740Y713880D02*
Y729120D01*
X172260Y713880D02*
X202740D01*
X628084Y207250D02*
X649084D01*
X628084Y254500D02*
X649084D01*
Y207250D02*
Y254500D01*
X628084Y207250D02*
Y254500D01*
X638334Y228000D02*
Y241000D01*
X631334Y228000D02*
X638334D01*
X631263Y235071D02*
X645405D01*
X631263D02*
X638334Y228000D01*
X645334D01*
X638334D02*
X645405Y235071D01*
X638334Y222000D02*
Y228000D01*
X235819Y617649D02*
Y623649D01*
X242890Y630720D01*
X235819Y623649D02*
X242819D01*
X228748Y630720D02*
X235819Y623649D01*
X228748Y630720D02*
X242890D01*
X228819Y623649D02*
X235819D01*
Y636650D01*
X225569Y602900D02*
Y650149D01*
X246569Y602900D02*
Y650149D01*
X225569D02*
X246569D01*
X225569Y602900D02*
X246569D01*
X427130Y623659D02*
Y654139D01*
Y623659D02*
X442370D01*
X427130Y654139D02*
X442370D01*
Y623659D02*
Y654139D01*
X382630Y623217D02*
Y653697D01*
Y623217D02*
X397870D01*
X382630Y653697D02*
X397870D01*
Y623217D02*
Y653697D01*
X400511Y590957D02*
Y638457D01*
X424511D01*
Y590957D02*
Y638457D01*
X400511Y590957D02*
X424511D01*
X265689Y618909D02*
Y649389D01*
X250449D02*
X265689D01*
X250449Y618909D02*
X265689D01*
X250449D02*
Y649389D01*
X114130Y640261D02*
Y670741D01*
Y640261D02*
X129370D01*
X114130Y670741D02*
X129370D01*
Y640261D02*
Y670741D01*
X95874Y640261D02*
Y670741D01*
Y640261D02*
X111114D01*
X95874Y670741D02*
X111114D01*
Y640261D02*
Y670741D01*
X95875Y606760D02*
Y637240D01*
Y606760D02*
X111115D01*
X95875Y637240D02*
X111115D01*
Y606760D02*
Y637240D01*
X145510Y560380D02*
X175990D01*
Y575620D01*
X145510Y560380D02*
Y575620D01*
X175990D01*
X113010Y619620D02*
X143490D01*
X113010Y604380D02*
Y619620D01*
X143490Y604380D02*
Y619620D01*
X113010Y604380D02*
X143490D01*
X113010Y602120D02*
X143490D01*
X113010Y586880D02*
Y602120D01*
X143490Y586880D02*
Y602120D01*
X113010Y586880D02*
X143490D01*
X140651Y559750D02*
Y583750D01*
X93151D02*
X140651D01*
X93151Y559750D02*
Y583750D01*
Y559750D02*
X140651D01*
X26000Y674500D02*
X93000D01*
X26000Y644500D02*
X93000D01*
Y674500D01*
X26000Y644500D02*
Y674500D01*
X56000Y659500D02*
X63071Y666571D01*
X56000Y659500D02*
X63071Y652429D01*
Y666571D01*
X56000Y659500D02*
Y666500D01*
Y659500D02*
X69000D01*
X56000Y652500D02*
Y659500D01*
X50000D02*
X56000D01*
X50000Y631000D02*
X56000D01*
X63071Y623929D01*
X56000Y624000D02*
Y631000D01*
X63071Y638071D01*
Y623929D02*
Y638071D01*
X56000Y631000D02*
Y638000D01*
Y631000D02*
X69000D01*
X35250Y641250D02*
X82500D01*
X35250Y620250D02*
X82500D01*
Y641250D01*
X35250Y620250D02*
Y641250D01*
X30000Y584380D02*
X60480D01*
Y599620D01*
X30000Y584380D02*
Y599620D01*
X60480D01*
X17000Y555500D02*
Y579500D01*
Y555500D02*
X64500D01*
Y579500D01*
X17000D02*
X64500D01*
X582715Y213164D02*
X604268Y191612D01*
X571939Y202388D02*
X582715Y213164D01*
X593492Y180835D02*
X604268Y191612D01*
X571939Y202388D02*
X593492Y180835D01*
X554678Y10684D02*
X643066Y99072D01*
X430934Y134428D02*
X519322Y222816D01*
X643066Y99072D01*
X430934Y134428D02*
X554678Y10684D01*
X26500Y539999D02*
X121750D01*
X26500Y389999D02*
X121750D01*
Y539999D01*
X26500D02*
X26500Y389999D01*
X16916Y352130D02*
X47396D01*
Y367370D01*
X16916Y352130D02*
Y367370D01*
X47396D01*
X16916Y385120D02*
X47396D01*
X16916Y369880D02*
Y385120D01*
X47396Y369880D02*
Y385120D01*
X16916Y369880D02*
X47396D01*
X77515Y34000D02*
Y58000D01*
Y34000D02*
X125015D01*
Y58000D01*
X77515D02*
X125015D01*
X128015Y61000D02*
Y85000D01*
Y61000D02*
X175515D01*
Y85000D01*
X128015D02*
X175515D01*
X77516Y61000D02*
Y85000D01*
Y61000D02*
X125015D01*
Y85000D01*
X77516D02*
X125015D01*
X128015Y34000D02*
Y58000D01*
Y34000D02*
X175515D01*
Y58000D01*
X128015D02*
X175515D01*
X178265Y61000D02*
Y85000D01*
Y61000D02*
X225765D01*
Y85000D01*
X178265D02*
X225765D01*
X178265Y34000D02*
Y58000D01*
Y34000D02*
X225765D01*
Y58000D01*
X178265D02*
X225765D01*
X174000Y224750D02*
Y248750D01*
Y224750D02*
X221500D01*
Y248750D01*
X174000D02*
X221500D01*
X174890Y201590D02*
X220610D01*
Y221910D01*
X174890Y201590D02*
Y221910D01*
X220610D01*
X174890Y178090D02*
X220610D01*
Y198410D01*
X174890Y178090D02*
Y198410D01*
X220610D01*
X174890Y154588D02*
X220610D01*
Y174908D01*
X174890Y154588D02*
Y174908D01*
X220610D01*
X174890Y131090D02*
X220610D01*
Y151410D01*
X174890Y131090D02*
Y151410D01*
X220610D01*
X174890Y108090D02*
X220610D01*
Y128410D01*
X174890Y108090D02*
Y128410D01*
X220610D01*
X222890Y108090D02*
X268610D01*
Y128410D01*
X222890Y108090D02*
Y128410D01*
X268610D01*
X222890Y131090D02*
X268610D01*
Y151410D01*
X222890Y131090D02*
Y151410D01*
X268610D01*
X222890Y201590D02*
X268610D01*
Y221910D01*
X222890Y201590D02*
Y221910D01*
X268610D01*
X222890Y178340D02*
X268610D01*
Y198660D01*
X222890Y178340D02*
Y198660D01*
X268610D01*
X222890Y154590D02*
X268610D01*
Y174910D01*
X222890Y154590D02*
Y174910D01*
X268610D01*
X223750Y224750D02*
Y248750D01*
Y224750D02*
X271250D01*
Y248750D01*
X223750D02*
X271250D01*
X112000Y317475D02*
Y384475D01*
X142000Y317475D02*
Y384475D01*
X112000D02*
X142000D01*
X112000Y317475D02*
X142000D01*
X119929Y354546D02*
X127000Y347475D01*
X134071Y354546D01*
X119929D02*
X134071D01*
X120000Y347475D02*
X127000D01*
Y360475D01*
Y347475D02*
X134000D01*
X127000Y341475D02*
Y347475D01*
X150500Y273500D02*
Y340500D01*
X180500Y273500D02*
Y340500D01*
X150500D02*
X180500D01*
X150500Y273500D02*
X180500D01*
X158429Y310571D02*
X165500Y303500D01*
X172571Y310571D01*
X158429D02*
X172571D01*
X158500Y303500D02*
X165500D01*
Y316500D01*
Y303500D02*
X172500D01*
X165500Y297500D02*
Y303500D01*
X445250Y192250D02*
Y216250D01*
X397750D02*
X445250D01*
X397750Y192250D02*
Y216250D01*
Y192250D02*
X445250D01*
X394997Y182250D02*
Y206250D01*
X347497D02*
X394997D01*
X347497Y182250D02*
Y206250D01*
Y182250D02*
X394997D01*
X345000Y175500D02*
Y199500D01*
X297500D02*
X345000D01*
X297500Y175500D02*
Y199500D01*
Y175500D02*
X345000D01*
M02*
