G04*
G04 #@! TF.GenerationSoftware,Altium Limited,Altium Designer,24.3.1 (35)*
G04*
G04 Layer_Color=8388736*
%FSLAX44Y44*%
%MOMM*%
G71*
G04*
G04 #@! TF.SameCoordinates,EE9A5EF0-155C-4C8F-B462-BE7DD29FB847*
G04*
G04*
G04 #@! TF.FilePolarity,Negative*
G04*
G01*
G75*
%ADD35R,1.4700X1.8200*%
%ADD36R,5.6300X0.6200*%
%ADD37R,0.6300X1.0400*%
%ADD38R,4.1200X3.8300*%
%ADD39R,0.6300X1.2900*%
%ADD40R,1.2800X0.8300*%
%ADD41R,1.6200X1.0200*%
%ADD42R,1.6200X4.0200*%
G04:AMPARAMS|DCode=43|XSize=0.83mm|YSize=1.28mm|CornerRadius=0mm|HoleSize=0mm|Usage=FLASHONLY|Rotation=315.000|XOffset=0mm|YOffset=0mm|HoleType=Round|Shape=Rectangle|*
%AMROTATEDRECTD43*
4,1,4,-0.7460,-0.1591,0.1591,0.7460,0.7460,0.1591,-0.1591,-0.7460,-0.7460,-0.1591,0.0*
%
%ADD43ROTATEDRECTD43*%

%ADD44R,0.8300X1.2800*%
%ADD45R,0.7200X1.0200*%
%ADD46R,1.8200X1.3200*%
%ADD47R,1.3200X1.8200*%
%ADD48R,2.0200X2.3200*%
%ADD49R,1.0200X0.7200*%
%ADD50P,2.8567X4X270.0*%
%ADD51R,0.4300X1.6200*%
%ADD52R,2.8300X1.6200*%
%ADD53R,1.0200X1.6200*%
%ADD54R,2.3200X2.0200*%
G04:AMPARAMS|DCode=55|XSize=2.42mm|YSize=2.42mm|CornerRadius=0.61mm|HoleSize=0mm|Usage=FLASHONLY|Rotation=0.000|XOffset=0mm|YOffset=0mm|HoleType=Round|Shape=RoundedRectangle|*
%AMROUNDEDRECTD55*
21,1,2.4200,1.2000,0,0,0.0*
21,1,1.2000,2.4200,0,0,0.0*
1,1,1.2200,0.6000,-0.6000*
1,1,1.2200,-0.6000,-0.6000*
1,1,1.2200,-0.6000,0.6000*
1,1,1.2200,0.6000,0.6000*
%
%ADD55ROUNDEDRECTD55*%
%ADD56C,2.4200*%
%ADD57C,1.5200*%
%ADD58O,2.0200X3.0200*%
%ADD59C,2.0200*%
G36*
X654000Y280000D02*
X630000D01*
Y382500D01*
X654000D01*
Y280000D01*
D02*
G37*
D35*
X139500Y218750D02*
D03*
Y284250D02*
D03*
X115000Y218750D02*
D03*
Y284250D02*
D03*
X139250Y129070D02*
D03*
Y194570D02*
D03*
X114750Y129070D02*
D03*
Y194570D02*
D03*
D36*
X325000Y623488D02*
D03*
X508950Y622000D02*
D03*
D37*
X344080Y587988D02*
D03*
X331380D02*
D03*
X318680D02*
D03*
X305980D02*
D03*
X528030Y586500D02*
D03*
X515330D02*
D03*
X502630D02*
D03*
X489930D02*
D03*
D38*
X325000Y609988D02*
D03*
X508950Y608500D02*
D03*
D39*
X305950Y642988D02*
D03*
X344050D02*
D03*
X318650D02*
D03*
X331350D02*
D03*
X489900Y641500D02*
D03*
X528000D02*
D03*
X502600D02*
D03*
X515300D02*
D03*
D40*
X580998Y692750D02*
D03*
Y712750D02*
D03*
X434752Y628899D02*
D03*
Y648899D02*
D03*
X390252Y628457D02*
D03*
Y648457D02*
D03*
X258067Y644149D02*
D03*
Y624149D02*
D03*
X121749Y645501D02*
D03*
Y665501D02*
D03*
X103492Y645501D02*
D03*
Y665501D02*
D03*
X103494Y612000D02*
D03*
Y632000D02*
D03*
D41*
X253229Y699251D02*
D03*
Y667251D02*
D03*
X230451Y699251D02*
D03*
Y667251D02*
D03*
D42*
X523950Y683750D02*
D03*
Y745750D02*
D03*
X435500Y683500D02*
D03*
Y745500D02*
D03*
X611750Y662500D02*
D03*
Y600500D02*
D03*
D43*
X607676Y201930D02*
D03*
X593534Y216072D02*
D03*
X581034Y204072D02*
D03*
X595176Y189930D02*
D03*
D44*
X177500Y721502D02*
D03*
X197500D02*
D03*
X170750Y567998D02*
D03*
X150750D02*
D03*
X118250Y612002D02*
D03*
X138250D02*
D03*
X118250Y594502D02*
D03*
X138250D02*
D03*
X55240Y591998D02*
D03*
X35240D02*
D03*
X42156Y359748D02*
D03*
X22156D02*
D03*
Y377502D02*
D03*
X42156D02*
D03*
D45*
X638334Y213500D02*
D03*
Y248500D02*
D03*
X235819Y644149D02*
D03*
Y609150D02*
D03*
D46*
X412511Y628957D02*
D03*
Y600457D02*
D03*
D47*
X131151Y571750D02*
D03*
X102651D02*
D03*
X26500Y567500D02*
D03*
X55000D02*
D03*
X87015Y46000D02*
D03*
X115515D02*
D03*
X137515Y73000D02*
D03*
X166015D02*
D03*
X87015D02*
D03*
X115515D02*
D03*
X137515Y46000D02*
D03*
X166015D02*
D03*
X187766Y73000D02*
D03*
X216266D02*
D03*
X187766Y46000D02*
D03*
X216266D02*
D03*
X183500Y236750D02*
D03*
X212000D02*
D03*
X233250D02*
D03*
X261750D02*
D03*
X435750Y204250D02*
D03*
X407250D02*
D03*
X385497Y194250D02*
D03*
X356997D02*
D03*
X335500Y187500D02*
D03*
X307000D02*
D03*
D48*
X38000Y659500D02*
D03*
X81000D02*
D03*
D49*
X76500Y631000D02*
D03*
X41500D02*
D03*
D50*
X625388Y99072D02*
D03*
X519322Y205138D02*
D03*
X554678Y28362D02*
D03*
X448612Y134428D02*
D03*
D51*
X47750Y401148D02*
D03*
X40250D02*
D03*
X32750D02*
D03*
X115250D02*
D03*
X70250Y528349D02*
D03*
X62750D02*
D03*
X55250D02*
D03*
X47750D02*
D03*
X40250D02*
D03*
X32750D02*
D03*
X77750D02*
D03*
X85250D02*
D03*
X92750D02*
D03*
X100250D02*
D03*
X107750D02*
D03*
X115250D02*
D03*
D52*
X67250Y401148D02*
D03*
D53*
X213750Y211750D02*
D03*
X181750D02*
D03*
X213750Y188250D02*
D03*
X181750D02*
D03*
X213750Y164748D02*
D03*
X181750D02*
D03*
X213750Y141250D02*
D03*
X181750D02*
D03*
X213750Y118250D02*
D03*
X181750D02*
D03*
X261750D02*
D03*
X229750D02*
D03*
X261750Y141250D02*
D03*
X229750D02*
D03*
X261750Y211750D02*
D03*
X229750D02*
D03*
X261750Y188500D02*
D03*
X229750D02*
D03*
X261750Y164750D02*
D03*
X229750D02*
D03*
D54*
X127000Y329475D02*
D03*
Y372475D02*
D03*
X165500Y285500D02*
D03*
Y328500D02*
D03*
D55*
X279200Y40000D02*
D03*
X355400Y730000D02*
D03*
D56*
X330000Y40000D02*
D03*
X380800D02*
D03*
X304600Y730000D02*
D03*
D57*
X212700Y450000D02*
D03*
X187300D02*
D03*
D58*
X528289Y248671D02*
D03*
X477489D02*
D03*
X579089D02*
D03*
X299689D02*
D03*
X350489D02*
D03*
X401289D02*
D03*
X528250Y553000D02*
D03*
X477450D02*
D03*
X579050D02*
D03*
X299650D02*
D03*
X350450D02*
D03*
X401250D02*
D03*
D59*
X537000Y116750D02*
D03*
M02*
