G04*
G04 #@! TF.GenerationSoftware,Altium Limited,Altium Designer,24.3.1 (35)*
G04*
G04 Layer_Color=16711935*
%FSLAX44Y44*%
%MOMM*%
G71*
G04*
G04 #@! TF.SameCoordinates,EE9A5EF0-155C-4C8F-B462-BE7DD29FB847*
G04*
G04*
G04 #@! TF.FilePolarity,Negative*
G04*
G01*
G75*
G04:AMPARAMS|DCode=55|XSize=2.42mm|YSize=2.42mm|CornerRadius=0.61mm|HoleSize=0mm|Usage=FLASHONLY|Rotation=0.000|XOffset=0mm|YOffset=0mm|HoleType=Round|Shape=RoundedRectangle|*
%AMROUNDEDRECTD55*
21,1,2.4200,1.2000,0,0,0.0*
21,1,1.2000,2.4200,0,0,0.0*
1,1,1.2200,0.6000,-0.6000*
1,1,1.2200,-0.6000,-0.6000*
1,1,1.2200,-0.6000,0.6000*
1,1,1.2200,0.6000,0.6000*
%
%ADD55ROUNDEDRECTD55*%
%ADD56C,2.4200*%
%ADD57C,1.5200*%
%ADD58O,2.0200X3.0200*%
%ADD59C,2.0200*%
G36*
X654000Y280000D02*
X630000D01*
Y382500D01*
X654000D01*
Y280000D01*
D02*
G37*
D55*
X279200Y40000D02*
D03*
X355400Y730000D02*
D03*
D56*
X330000Y40000D02*
D03*
X380800D02*
D03*
X304600Y730000D02*
D03*
D57*
X212700Y450000D02*
D03*
X187300D02*
D03*
D58*
X528289Y248671D02*
D03*
X477489D02*
D03*
X579089D02*
D03*
X299689D02*
D03*
X350489D02*
D03*
X401289D02*
D03*
X528250Y553000D02*
D03*
X477450D02*
D03*
X579050D02*
D03*
X299650D02*
D03*
X350450D02*
D03*
X401250D02*
D03*
D59*
X537000Y116750D02*
D03*
M02*
