M48
;Layer_Color=9474304
;FILE_FORMAT=4:3
METRIC,LZ
;TYPE=PLATED
T01F00S00C0.400
T02F00S00C0.762
T03F00S00C0.950
T04F00S00C1.100
T05F00S00C1.400
%
T01
X0007548Y001085
X0010425
X0011605Y001318
X0008475Y00164
X0009042Y0017364
X0009225Y00222
X0014075Y002245
X0014525Y0021313
X0016825Y0021307
X0018212Y0020361
X0019482Y0020389
X0020725Y0020361
X0024607Y0019953
Y0018321
X002326Y0017435
X0018212Y001835
X0017Y0017364
X0020028Y0024832
X0022032Y002545
X0030839Y0011929
Y0010273
X002873Y0007358
T02
X0030687Y0028575
T03
X0002426Y000915
X000545Y000635
X0017061Y000915
X0018042Y0011916
X0016308Y001405
X00292Y0016727
X0031475Y0018029
X0036251Y001985
X0030625Y0024175
X0027301Y0006575
X003635Y000715
X0044Y0006691
X004651
X0048939Y00091
X0055175Y000715
X0043275Y0011829
X0043421Y0017035
X0048225Y00198
T04
X001349Y000412
X001603
X001857
X002111
X002365
X002619
X002873
X003127
X003381
X003635
X003889
X004143
X004397
X004651
T05
X0058Y00094
Y00214
M30
