%TF.GenerationSoftware,Altium Limited,Altium Designer,24.7.2 (38)*%
G04 Layer_Color=128*
%FSLAX43Y43*%
%MOMM*%
%TF.SameCoordinates,A6C98B59-F63B-4C8E-8392-574C2285590F*%
%TF.FilePolarity,Positive*%
%TF.FileFunction,Drillmap*%
%TF.Part,Single*%
G01*
G75*
%TA.AperFunction,NonConductor*%
%ADD69C,0.127*%
D69*
X26826Y6575D02*
X27776D01*
X27301Y6100D02*
Y7050D01*
X1951Y9150D02*
X2901D01*
X2426Y8675D02*
Y9625D01*
X31000Y18029D02*
X31950D01*
X31475Y17554D02*
Y18504D01*
X30306Y28575D02*
X31068D01*
X30687Y28194D02*
Y28956D01*
X57300Y9400D02*
X58700D01*
X58000Y8700D02*
Y10100D01*
X57300Y21400D02*
X58700D01*
X58000Y20700D02*
Y22100D01*
X16586Y9150D02*
X17536D01*
X17061Y8675D02*
Y9625D01*
X25640Y4120D02*
X26740D01*
X26190Y3570D02*
Y4670D01*
X23100Y4120D02*
X24200D01*
X23650Y3570D02*
Y4670D01*
X20560Y4120D02*
X21660D01*
X21110Y3570D02*
Y4670D01*
X15480Y4120D02*
X16580D01*
X16030Y3570D02*
Y4670D01*
X12940Y4120D02*
X14040D01*
X13490Y3570D02*
Y4670D01*
X18020Y4120D02*
X19120D01*
X18570Y3570D02*
Y4670D01*
X28180Y4120D02*
X29280D01*
X28730Y3570D02*
Y4670D01*
X30720Y4120D02*
X31820D01*
X31270Y3570D02*
Y4670D01*
X33260Y4120D02*
X34360D01*
X33810Y3570D02*
Y4670D01*
X35800Y4120D02*
X36900D01*
X36350Y3570D02*
Y4670D01*
X38340Y4120D02*
X39440D01*
X38890Y3570D02*
Y4670D01*
X40880Y4120D02*
X41980D01*
X41430Y3570D02*
Y4670D01*
X43420Y4120D02*
X44520D01*
X43970Y3570D02*
Y4670D01*
X45960Y4120D02*
X47060D01*
X46510Y3570D02*
Y4670D01*
X46035Y6691D02*
X46985D01*
X46510Y6216D02*
Y7166D01*
X47750Y19800D02*
X48700D01*
X48225Y19325D02*
Y20275D01*
X4975Y6350D02*
X5925D01*
X5450Y5875D02*
Y6825D01*
X30150Y24175D02*
X31100D01*
X30625Y23700D02*
Y24650D01*
X42946Y17035D02*
X43896D01*
X43421Y16560D02*
Y17510D01*
X54700Y7150D02*
X55650D01*
X55175Y6675D02*
Y7625D01*
X48464Y9100D02*
X49414D01*
X48939Y8625D02*
Y9575D01*
X35776Y19850D02*
X36726D01*
X36251Y19375D02*
Y20325D01*
X35875Y7150D02*
X36825D01*
X36350Y6675D02*
Y7625D01*
X17567Y11916D02*
X18517D01*
X18042Y11441D02*
Y12391D01*
X15833Y14050D02*
X16783D01*
X16308Y13575D02*
Y14525D01*
X28725Y16727D02*
X29675D01*
X29200Y16252D02*
Y17202D01*
X42800Y11829D02*
X43750D01*
X43275Y11354D02*
Y12304D01*
X43525Y6691D02*
X44475D01*
X44000Y6216D02*
Y7166D01*
X23059Y17435D02*
X23459D01*
X23260Y17235D02*
Y17635D01*
X13875Y22450D02*
X14275D01*
X14075Y22250D02*
Y22650D01*
X19282Y20389D02*
X19682D01*
X19482Y20189D02*
Y20589D01*
X9025Y22200D02*
X9425D01*
X9225Y22000D02*
Y22400D01*
X19828Y24832D02*
X20228D01*
X20028Y24632D02*
Y25032D01*
X8275Y16400D02*
X8675D01*
X8475Y16200D02*
Y16600D01*
X7348Y10850D02*
X7748D01*
X7548Y10650D02*
Y11050D01*
X11405Y13180D02*
X11805D01*
X11605Y12980D02*
Y13380D01*
X20525Y20361D02*
X20925D01*
X20725Y20161D02*
Y20561D01*
X18012Y18350D02*
X18412D01*
X18212Y18150D02*
Y18550D01*
X10225Y10850D02*
X10625D01*
X10425Y10650D02*
Y11050D01*
X8842Y17364D02*
X9242D01*
X9042Y17163D02*
Y17563D01*
X16625Y21307D02*
X17025D01*
X16825Y21107D02*
Y21507D01*
X14325Y21313D02*
X14725D01*
X14525Y21113D02*
Y21513D01*
X18012Y20361D02*
X18412D01*
X18212Y20161D02*
Y20561D01*
X16800Y17364D02*
X17200D01*
X17000Y17163D02*
Y17563D01*
X30639Y11929D02*
X31039D01*
X30839Y11729D02*
Y12129D01*
X30639Y10273D02*
X31039D01*
X30839Y10073D02*
Y10473D01*
X28530Y7358D02*
X28930D01*
X28730Y7158D02*
Y7558D01*
X24407Y18321D02*
X24807D01*
X24607Y18121D02*
Y18521D01*
X24407Y19953D02*
X24807D01*
X24607Y19753D02*
Y20153D01*
X21832Y25450D02*
X22232D01*
X22032Y25250D02*
Y25650D01*
%TF.MD5,c7de3c3883a8a0e86bc4c21fad729cb9*%
M02*
