%TF.GenerationSoftware,Altium Limited,Altium Designer,24.7.2 (38)*%
G04 Layer_Color=255*
%FSLAX43Y43*%
%MOMM*%
%TF.SameCoordinates,A6C98B59-F63B-4C8E-8392-574C2285590F*%
%TF.FilePolarity,Positive*%
%TF.FileFunction,Pads,Top*%
%TF.Part,Single*%
G01*
G75*
%TA.AperFunction,SMDPad,CuDef*%
%ADD13R,2.500X2.200*%
%ADD14R,1.200X1.100*%
%ADD15R,0.800X1.250*%
%TA.AperFunction,ComponentPad*%
%ADD16C,1.800*%
%ADD17O,3.000X3.100*%
%ADD18C,1.650*%
G04:AMPARAMS|DCode=19|XSize=1.65mm|YSize=1.65mm|CornerRadius=0.413mm|HoleSize=0mm|Usage=FLASHONLY|Rotation=180.000|XOffset=0mm|YOffset=0mm|HoleType=Round|Shape=RoundedRectangle|*
%AMROUNDEDRECTD19*
21,1,1.650,0.825,0,0,180.0*
21,1,0.825,1.650,0,0,180.0*
1,1,0.825,-0.413,0.413*
1,1,0.825,0.413,0.413*
1,1,0.825,0.413,-0.413*
1,1,0.825,-0.413,-0.413*
%
%ADD19ROUNDEDRECTD19*%
D13*
X12220Y14650D02*
D03*
Y21550D02*
D03*
D14*
X15646Y24400D02*
D03*
Y22300D02*
D03*
D15*
X13570Y12049D02*
D03*
X11570D02*
D03*
X4302Y21063D02*
D03*
X6302D02*
D03*
X6302Y19305D02*
D03*
X4302D02*
D03*
X6302Y17561D02*
D03*
X4302D02*
D03*
X4300Y15807D02*
D03*
X6300D02*
D03*
X13620Y26575D02*
D03*
X15620D02*
D03*
D16*
X27301Y6575D02*
D03*
X2426Y9150D02*
D03*
X31475Y18029D02*
D03*
X30687Y28575D02*
D03*
X17061Y9150D02*
D03*
X46510Y6691D02*
D03*
X48225Y19800D02*
D03*
X5450Y6350D02*
D03*
X30625Y24175D02*
D03*
X43421Y17035D02*
D03*
X55175Y7150D02*
D03*
X48939Y9100D02*
D03*
X36251Y19850D02*
D03*
X36350Y7150D02*
D03*
X18042Y11916D02*
D03*
X16308Y14050D02*
D03*
X29200Y16727D02*
D03*
X43275Y11829D02*
D03*
X44000Y6691D02*
D03*
D17*
X58000Y9400D02*
D03*
Y21400D02*
D03*
D18*
X26190Y4120D02*
D03*
X23650D02*
D03*
X21110D02*
D03*
X16030D02*
D03*
X18570D02*
D03*
X28730D02*
D03*
X31270D02*
D03*
X33810D02*
D03*
X36350D02*
D03*
X38890D02*
D03*
X41430D02*
D03*
X43970D02*
D03*
X46510D02*
D03*
D19*
X13490D02*
D03*
%TF.MD5,33b12071d3a61dee75706ce598335723*%
M02*
