%TF.GenerationSoftware,Altium Limited,Altium Designer,24.7.2 (38)*%
G04 Layer_Color=32896*
%FSLAX43Y43*%
%MOMM*%
%TF.SameCoordinates,A6C98B59-F63B-4C8E-8392-574C2285590F*%
%TF.FilePolarity,Positive*%
%TF.FileFunction,Legend,Bot*%
%TF.Part,Single*%
G01*
G75*
%TA.AperFunction,NonConductor*%
%ADD33C,0.250*%
%ADD34C,0.600*%
%ADD35C,0.200*%
%ADD36C,0.254*%
%ADD37R,1.000X1.000*%
%ADD38R,3.048X0.381*%
%ADD39R,3.650X1.850*%
D33*
X31625Y25075D02*
G03*
X31625Y25075I-125J0D01*
G01*
X28102Y15996D02*
G03*
X28102Y15996I-125J0D01*
G01*
X51450Y8750D02*
G03*
X51450Y8750I-125J0D01*
G01*
X43858Y25075D02*
G03*
X43858Y25075I-125J0D01*
G01*
D34*
X26957Y18221D02*
G03*
X26957Y18221I-300J0D01*
G01*
D35*
X33400Y26775D02*
Y29325D01*
Y20825D02*
Y23375D01*
Y20825D02*
X40900D01*
X33400Y29325D02*
X40900D01*
X41900Y28325D01*
X40900Y20825D02*
X41900Y21825D01*
Y23375D01*
Y26775D02*
Y28325D01*
X7698Y24700D02*
X14998D01*
Y25500D01*
X7698Y29300D02*
X14998D01*
X7698Y24700D02*
Y25500D01*
X14998Y28500D02*
Y29300D01*
X7698Y28500D02*
Y29300D01*
X9851Y23837D02*
X12899D01*
Y22313D02*
Y23837D01*
X9851Y22313D02*
Y23837D01*
Y22313D02*
X12899D01*
X9824Y22062D02*
X12872D01*
Y20538D02*
Y22062D01*
X9824Y20538D02*
Y22062D01*
Y20538D02*
X12872D01*
X14856Y10325D02*
Y17675D01*
X4544D02*
X14856D01*
X4544Y10325D02*
Y17675D01*
Y10325D02*
X14856D01*
X14870Y8325D02*
Y9975D01*
X11646Y6388D02*
X14694D01*
X11646D02*
Y7912D01*
X14694Y6388D02*
Y7912D01*
X11646D02*
X14694D01*
X8549Y3825D02*
X9147D01*
X8549Y6725D02*
X9147D01*
X17657Y17221D02*
X27657D01*
X17657Y20421D02*
X27657D01*
Y17221D02*
Y20421D01*
X17657Y17221D02*
Y20421D01*
X48075Y19150D02*
X49625D01*
X53025D02*
X54575D01*
X55575Y18150D01*
X47075D02*
X48075Y19150D01*
X47075Y10650D02*
Y18150D01*
X55575Y10650D02*
Y18150D01*
X53025Y10650D02*
X55575D01*
X47075D02*
X49625D01*
X37144Y11305D02*
Y14353D01*
X38668D01*
X37144Y11305D02*
X38668D01*
Y14353D01*
X26334Y23651D02*
Y26699D01*
X27858D01*
X26334Y23651D02*
X27858D01*
Y26699D01*
X28088Y23651D02*
Y26699D01*
X29612D01*
X28088Y23651D02*
X29612D01*
Y26699D01*
X29595Y18483D02*
Y21531D01*
X28071Y18483D02*
X29595D01*
X28071Y21531D02*
X29595D01*
X28071Y18483D02*
Y21531D01*
X30951Y14550D02*
X33999D01*
X30951D02*
Y16074D01*
X33999Y14550D02*
Y16074D01*
X30951D02*
X33999D01*
X30974Y7713D02*
X34022D01*
X30974D02*
Y9237D01*
X34022Y7713D02*
Y9237D01*
X30974D02*
X34022D01*
X30974Y14412D02*
X34022D01*
Y12888D02*
Y14412D01*
X30974Y12888D02*
Y14412D01*
Y12888D02*
X34022D01*
X30974Y11154D02*
X34022D01*
X30974D02*
Y12678D01*
X34022Y11154D02*
Y12678D01*
X30974D02*
X34022D01*
X30974Y10962D02*
X34022D01*
Y9438D02*
Y10962D01*
X30974Y9438D02*
Y10962D01*
Y9438D02*
X34022D01*
X58000Y15750D02*
Y16350D01*
Y15750D02*
X58700D01*
X58000Y14450D02*
Y15750D01*
X57300D02*
X58000D01*
X57293Y15043D02*
X58707D01*
X58000Y15750D02*
X58707Y15043D01*
X57293D02*
X58000Y15750D01*
X56175Y22600D02*
X59850D01*
X56175Y8250D02*
Y22600D01*
X59850Y8250D02*
Y22600D01*
X56175Y8250D02*
X59850D01*
X16001Y5588D02*
X19049D01*
X16001D02*
Y7112D01*
X19049Y5588D02*
Y7112D01*
X16001D02*
X19049D01*
X33490Y-5720D02*
X33810Y-5920D01*
X34130Y-5720D01*
X33490D02*
Y5D01*
X34130Y-5720D02*
Y5D01*
X28410Y-5720D02*
X28730Y-5920D01*
X29050Y-5720D01*
X28410D02*
Y5D01*
X29050Y-5720D02*
Y5D01*
X26510Y-5720D02*
Y5D01*
X25870Y-5720D02*
Y5D01*
X26190Y-5920D02*
X26510Y-5720D01*
X25870D02*
X26190Y-5920D01*
X23330Y-5720D02*
X23650Y-5920D01*
X23970Y-5720D01*
X23330D02*
Y5D01*
X23970Y-5720D02*
Y5D01*
X18250Y-5720D02*
X18570Y-5920D01*
X18890Y-5720D01*
X18250D02*
Y5D01*
X18890Y-5720D02*
Y5D01*
X12070D02*
Y2695D01*
Y5D02*
X47930D01*
Y2695D01*
X12070D02*
X47930D01*
X13810Y-5720D02*
Y5D01*
X13170Y-5720D02*
Y5D01*
X13490Y-5920D02*
X13810Y-5720D01*
X13170D02*
X13490Y-5920D01*
X16350Y-5720D02*
Y5D01*
X15710Y-5720D02*
Y5D01*
X16030Y-5920D02*
X16350Y-5720D01*
X15710D02*
X16030Y-5920D01*
X21430Y-5720D02*
Y5D01*
X20790Y-5720D02*
Y5D01*
X21110Y-5920D02*
X21430Y-5720D01*
X20790D02*
X21110Y-5920D01*
X31590Y-5720D02*
Y5D01*
X30950Y-5720D02*
Y5D01*
X31270Y-5920D02*
X31590Y-5720D01*
X30950D02*
X31270Y-5920D01*
X36670Y-5720D02*
Y5D01*
X36030Y-5720D02*
Y5D01*
X36350Y-5920D02*
X36670Y-5720D01*
X36030D02*
X36350Y-5920D01*
X38570Y-5720D02*
X38890Y-5920D01*
X39210Y-5720D01*
X38570D02*
Y5D01*
X39210Y-5720D02*
Y5D01*
X41110Y-5720D02*
X41430Y-5920D01*
X41750Y-5720D01*
X41110D02*
Y5D01*
X41750Y-5720D02*
Y5D01*
X46830Y-5720D02*
Y5D01*
X46190Y-5720D02*
Y5D01*
X46510Y-5920D02*
X46830Y-5720D01*
X46190D02*
X46510Y-5920D01*
X44290Y-5720D02*
Y5D01*
X43650Y-5720D02*
Y5D01*
X43970Y-5920D02*
X44290Y-5720D01*
X43650D02*
X43970Y-5920D01*
X54762Y20901D02*
Y23949D01*
X53238Y20901D02*
X54762D01*
X53238Y23949D02*
X54762D01*
X53238Y20901D02*
Y23949D01*
X8526Y3389D02*
X9124D01*
X8526Y489D02*
X9124D01*
X17457Y24825D02*
X24757D01*
Y25625D01*
X17457Y29425D02*
X24757D01*
X17457Y24825D02*
Y25625D01*
X24757Y28625D02*
Y29425D01*
X17457Y28625D02*
Y29425D01*
X50725Y6850D02*
X52175D01*
X50725Y4100D02*
X52175D01*
X50725Y850D02*
X52175D01*
X50725Y3600D02*
X52175D01*
X19504Y23088D02*
X22552D01*
X19504D02*
Y24612D01*
X22552Y23088D02*
Y24612D01*
X19504D02*
X22552D01*
X40588Y14536D02*
Y17584D01*
X42112D01*
X40588Y14536D02*
X42112D01*
Y17584D01*
X37144Y14536D02*
Y17584D01*
X38668D01*
X37144Y14536D02*
X38668D01*
Y17584D01*
X24776Y9237D02*
X27824D01*
Y7713D02*
Y9237D01*
X24776Y7713D02*
Y9237D01*
Y7713D02*
X27824D01*
X24777Y9438D02*
X27825D01*
X24777D02*
Y10962D01*
X27825Y9438D02*
Y10962D01*
X24777D02*
X27825D01*
X38864Y11305D02*
Y14353D01*
X40388D01*
X38864Y11305D02*
X40388D01*
Y14353D01*
X24777Y14389D02*
X27825D01*
Y12865D02*
Y14389D01*
X24777Y12865D02*
Y14389D01*
Y12865D02*
X27825D01*
X19539Y11341D02*
Y14389D01*
X21063D01*
X19539Y11341D02*
X21063D01*
Y14389D01*
X22794Y11341D02*
Y14389D01*
X21270Y11341D02*
X22794D01*
X21270Y14389D02*
X22794D01*
X21270Y11341D02*
Y14389D01*
X24777Y11154D02*
X27825D01*
X24777D02*
Y12678D01*
X27825Y11154D02*
Y12678D01*
X24777D02*
X27825D01*
X38863Y14536D02*
Y17584D01*
X40387D01*
X38863Y14536D02*
X40387D01*
Y17584D01*
X40588Y11305D02*
Y14353D01*
X42112D01*
X40588Y11305D02*
X42112D01*
Y14353D01*
X24519Y11344D02*
Y14392D01*
X22995Y11344D02*
X24519D01*
X22995Y14392D02*
X24519D01*
X22995Y11344D02*
Y14392D01*
X54267Y24892D02*
X54400Y24758D01*
Y24492D01*
X54267Y24359D01*
X53733D01*
X53600Y24492D01*
Y24758D01*
X53733Y24892D01*
X54400Y25691D02*
Y25158D01*
X54000D01*
X54133Y25425D01*
Y25558D01*
X54000Y25691D01*
X53733D01*
X53600Y25558D01*
Y25292D01*
X53733Y25158D01*
X48250Y4834D02*
X49050D01*
Y5233D01*
X48917Y5367D01*
X48650D01*
X48517Y5233D01*
Y4834D01*
Y5100D02*
X48250Y5367D01*
X49050Y5633D02*
Y6166D01*
X48917D01*
X48383Y5633D01*
X48250D01*
Y2542D02*
X49050D01*
Y2942D01*
X48917Y3075D01*
X48650D01*
X48517Y2942D01*
Y2542D01*
Y2808D02*
X48250Y3075D01*
Y3342D02*
Y3608D01*
Y3475D01*
X49050D01*
X48917Y3342D01*
D36*
X262Y13516D02*
X4072D01*
X643Y18596D02*
X3691D01*
X643Y15040D02*
X3691D01*
X643Y18850D02*
X3691D01*
Y15040D02*
Y18850D01*
X643Y15040D02*
Y18850D01*
X2908Y20349D02*
Y19549D01*
X2508D01*
X2375Y19682D01*
Y20215D01*
X2508Y20349D01*
X2908D01*
X1575Y19549D02*
X2108D01*
X1575Y20082D01*
Y20215D01*
X1708Y20349D01*
X1975D01*
X2108Y20215D01*
X9391Y22688D02*
Y23488D01*
X8991D01*
X8858Y23354D01*
Y23088D01*
X8991Y22954D01*
X9391D01*
X9125D02*
X8858Y22688D01*
X8058D02*
X8592D01*
X8058Y23221D01*
Y23354D01*
X8192Y23488D01*
X8458D01*
X8592Y23354D01*
X7792D02*
X7659Y23488D01*
X7392D01*
X7259Y23354D01*
Y22821D01*
X7392Y22688D01*
X7659D01*
X7792Y22821D01*
Y23354D01*
X9348Y20914D02*
Y21713D01*
X8948D01*
X8815Y21580D01*
Y21313D01*
X8948Y21180D01*
X9348D01*
X9081D02*
X8815Y20914D01*
X8548D02*
X8282D01*
X8415D01*
Y21713D01*
X8548Y21580D01*
X7882Y21047D02*
X7748Y20914D01*
X7482D01*
X7349Y21047D01*
Y21580D01*
X7482Y21713D01*
X7748D01*
X7882Y21580D01*
Y21447D01*
X7748Y21313D01*
X7349D01*
X6353Y26460D02*
X6486Y26326D01*
Y26060D01*
X6353Y25926D01*
X5820D01*
X5687Y26060D01*
Y26326D01*
X5820Y26460D01*
X5687Y26726D02*
Y26993D01*
Y26859D01*
X6486D01*
X6353Y26726D01*
X5687Y27793D02*
X6486D01*
X6086Y27393D01*
Y27926D01*
X21513Y5925D02*
Y6725D01*
X21113D01*
X20980Y6592D01*
Y6325D01*
X21113Y6192D01*
X21513D01*
X21246D02*
X20980Y5925D01*
X20713D02*
X20446D01*
X20580D01*
Y6725D01*
X20713Y6592D01*
X19513Y6725D02*
X19780Y6592D01*
X20047Y6325D01*
Y6059D01*
X19913Y5925D01*
X19647D01*
X19513Y6059D01*
Y6192D01*
X19647Y6325D01*
X20047D01*
X14036Y5325D02*
Y6125D01*
X13636D01*
X13503Y5991D01*
Y5725D01*
X13636Y5592D01*
X14036D01*
X13769D02*
X13503Y5325D01*
X13236D02*
X12970D01*
X13103D01*
Y6125D01*
X13236Y5991D01*
X12570Y5325D02*
X12303D01*
X12436D01*
Y6125D01*
X12570Y5991D01*
X28450Y27044D02*
X29250D01*
Y27444D01*
X29117Y27577D01*
X28850D01*
X28717Y27444D01*
Y27044D01*
Y27311D02*
X28450Y27577D01*
X28583Y27844D02*
X28450Y27977D01*
Y28244D01*
X28583Y28377D01*
X29117D01*
X29250Y28244D01*
Y27977D01*
X29117Y27844D01*
X28983D01*
X28850Y27977D01*
Y28377D01*
X30029Y19366D02*
X30829D01*
Y19766D01*
X30695Y19899D01*
X30429D01*
X30295Y19766D01*
Y19366D01*
Y19632D02*
X30029Y19899D01*
X30695Y20165D02*
X30829Y20299D01*
Y20565D01*
X30695Y20699D01*
X30562D01*
X30429Y20565D01*
X30295Y20699D01*
X30162D01*
X30029Y20565D01*
Y20299D01*
X30162Y20165D01*
X30295D01*
X30429Y20299D01*
X30562Y20165D01*
X30695D01*
X30429Y20299D02*
Y20565D01*
X27369Y27577D02*
X27503Y27444D01*
Y27177D01*
X27369Y27044D01*
X26836D01*
X26703Y27177D01*
Y27444D01*
X26836Y27577D01*
X27369Y27844D02*
X27503Y27977D01*
Y28244D01*
X27369Y28377D01*
X27236D01*
X27103Y28244D01*
X26969Y28377D01*
X26836D01*
X26703Y28244D01*
Y27977D01*
X26836Y27844D01*
X26969D01*
X27103Y27977D01*
X27236Y27844D01*
X27369D01*
X27103Y27977D02*
Y28244D01*
X35458Y15579D02*
X35591Y15712D01*
X35858D01*
X35991Y15579D01*
Y15045D01*
X35858Y14912D01*
X35591D01*
X35458Y15045D01*
X34658Y15712D02*
X34925Y15579D01*
X35191Y15312D01*
Y15045D01*
X35058Y14912D01*
X34791D01*
X34658Y15045D01*
Y15179D01*
X34791Y15312D01*
X35191D01*
X46508Y9841D02*
X46642Y9975D01*
X46908D01*
X47042Y9841D01*
Y9308D01*
X46908Y9175D01*
X46642D01*
X46508Y9308D01*
X45842Y9175D02*
Y9975D01*
X46242Y9575D01*
X45709D01*
X58783Y7339D02*
Y6806D01*
X58516Y6539D01*
X58250Y6806D01*
Y7339D01*
X57983D02*
Y6539D01*
X57583D01*
X57450Y6672D01*
Y7206D01*
X57583Y7339D01*
X57983D01*
X57184Y6539D02*
X56917D01*
X57050D01*
Y7339D01*
X57184Y7206D01*
X32325Y21916D02*
X32458Y22049D01*
X32725D01*
X32858Y21916D01*
Y21382D01*
X32725Y21249D01*
X32458D01*
X32325Y21382D01*
X32058Y21249D02*
X31792D01*
X31925D01*
Y22049D01*
X32058Y21916D01*
X6292Y1620D02*
X6425Y1486D01*
Y1220D01*
X6292Y1086D01*
X5758D01*
X5625Y1220D01*
Y1486D01*
X5758Y1620D01*
X5625Y2419D02*
Y1886D01*
X6158Y2419D01*
X6292D01*
X6425Y2286D01*
Y2019D01*
X6292Y1886D01*
Y4309D02*
X6425Y4176D01*
Y3909D01*
X6292Y3776D01*
X5758D01*
X5625Y3909D01*
Y4176D01*
X5758Y4309D01*
X6292Y4576D02*
X6425Y4709D01*
Y4976D01*
X6292Y5109D01*
X6158D01*
X6025Y4976D01*
Y4842D01*
Y4976D01*
X5892Y5109D01*
X5758D01*
X5625Y4976D01*
Y4709D01*
X5758Y4576D01*
X54216Y28853D02*
Y28054D01*
X53683D01*
X52884Y28853D02*
X53417D01*
Y28454D01*
X53150Y28587D01*
X53017D01*
X52884Y28454D01*
Y28187D01*
X53017Y28054D01*
X53283D01*
X53417Y28187D01*
X18650Y24116D02*
X18783Y24250D01*
X19050D01*
X19183Y24116D01*
Y23583D01*
X19050Y23450D01*
X18783D01*
X18650Y23583D01*
X17983Y23450D02*
Y24250D01*
X18383Y23850D01*
X17850D01*
X17584Y23450D02*
X17317D01*
X17450D01*
Y24250D01*
X17584Y24116D01*
X30366Y13200D02*
Y14000D01*
X29966D01*
X29833Y13867D01*
Y13600D01*
X29966Y13467D01*
X30366D01*
X30100D02*
X29833Y13200D01*
X29167D02*
Y14000D01*
X29567Y13600D01*
X29033D01*
X28767Y13867D02*
X28634Y14000D01*
X28367D01*
X28234Y13867D01*
Y13333D01*
X28367Y13200D01*
X28634D01*
X28767Y13333D01*
Y13867D01*
X29833Y12196D02*
X29966Y12329D01*
X30233D01*
X30366Y12196D01*
Y11663D01*
X30233Y11529D01*
X29966D01*
X29833Y11663D01*
X29566Y12196D02*
X29433Y12329D01*
X29167D01*
X29033Y12196D01*
Y12063D01*
X29167Y11929D01*
X29300D01*
X29167D01*
X29033Y11796D01*
Y11663D01*
X29167Y11529D01*
X29433D01*
X29566Y11663D01*
X28767D02*
X28633Y11529D01*
X28367D01*
X28234Y11663D01*
Y12196D01*
X28367Y12329D01*
X28633D01*
X28767Y12196D01*
Y12063D01*
X28633Y11929D01*
X28234D01*
X16276Y10863D02*
X15610D01*
X15476Y10996D01*
Y11263D01*
X15610Y11396D01*
X16276D01*
X15476Y12196D02*
Y11663D01*
X16010Y12196D01*
X16143D01*
X16276Y12063D01*
Y11796D01*
X16143Y11663D01*
X29665Y8148D02*
Y8948D01*
X29265D01*
X29132Y8814D01*
Y8548D01*
X29265Y8415D01*
X29665D01*
X29399D02*
X29132Y8148D01*
X28866Y8814D02*
X28732Y8948D01*
X28466D01*
X28332Y8814D01*
Y8681D01*
X28466Y8548D01*
X28599D01*
X28466D01*
X28332Y8415D01*
Y8281D01*
X28466Y8148D01*
X28732D01*
X28866Y8281D01*
X35816Y8175D02*
Y8975D01*
X35417D01*
X35283Y8842D01*
Y8575D01*
X35417Y8442D01*
X35816D01*
X35550D02*
X35283Y8175D01*
X34484D02*
X35017D01*
X34484Y8708D01*
Y8842D01*
X34617Y8975D01*
X34883D01*
X35017Y8842D01*
X36645Y11404D02*
Y12204D01*
X36245D01*
X36112Y12071D01*
Y11804D01*
X36245Y11671D01*
X36645D01*
X36378D02*
X36112Y11404D01*
X35845Y12071D02*
X35712Y12204D01*
X35445D01*
X35312Y12071D01*
Y11937D01*
X35445Y11804D01*
X35578D01*
X35445D01*
X35312Y11671D01*
Y11538D01*
X35445Y11404D01*
X35712D01*
X35845Y11538D01*
X34512Y12204D02*
X34779Y12071D01*
X35045Y11804D01*
Y11538D01*
X34912Y11404D01*
X34645D01*
X34512Y11538D01*
Y11671D01*
X34645Y11804D01*
X35045D01*
X36639Y13200D02*
Y14000D01*
X36240D01*
X36106Y13867D01*
Y13600D01*
X36240Y13467D01*
X36639D01*
X36373D02*
X36106Y13200D01*
X35840Y13867D02*
X35706Y14000D01*
X35440D01*
X35306Y13867D01*
Y13733D01*
X35440Y13600D01*
X35573D01*
X35440D01*
X35306Y13467D01*
Y13333D01*
X35440Y13200D01*
X35706D01*
X35840Y13333D01*
X34507Y14000D02*
X35040D01*
Y13600D01*
X34773Y13733D01*
X34640D01*
X34507Y13600D01*
Y13333D01*
X34640Y13200D01*
X34907D01*
X35040Y13333D01*
X29783Y10006D02*
X29916Y9873D01*
X30183D01*
X30316Y10006D01*
Y10540D01*
X30183Y10673D01*
X29916D01*
X29783Y10540D01*
X29516Y10006D02*
X29383Y9873D01*
X29117D01*
X28983Y10006D01*
Y10140D01*
X29117Y10273D01*
X29250D01*
X29117D01*
X28983Y10406D01*
Y10540D01*
X29117Y10673D01*
X29383D01*
X29516Y10540D01*
X28717Y10006D02*
X28583Y9873D01*
X28317D01*
X28184Y10006D01*
Y10140D01*
X28317Y10273D01*
X28450D01*
X28317D01*
X28184Y10406D01*
Y10540D01*
X28317Y10673D01*
X28583D01*
X28717Y10540D01*
X39275Y8684D02*
X40075D01*
Y9084D01*
X39942Y9217D01*
X39675D01*
X39542Y9084D01*
Y8684D01*
Y8950D02*
X39275Y9217D01*
X39942Y9483D02*
X40075Y9617D01*
Y9883D01*
X39942Y10017D01*
X39808D01*
X39675Y9883D01*
Y9750D01*
Y9883D01*
X39542Y10017D01*
X39408D01*
X39275Y9883D01*
Y9617D01*
X39408Y9483D01*
X39942Y10283D02*
X40075Y10416D01*
Y10683D01*
X39942Y10816D01*
X39808D01*
X39675Y10683D01*
X39542Y10816D01*
X39408D01*
X39275Y10683D01*
Y10416D01*
X39408Y10283D01*
X39542D01*
X39675Y10416D01*
X39808Y10283D01*
X39942D01*
X39675Y10416D02*
Y10683D01*
X20576Y10902D02*
X19776D01*
Y10502D01*
X19910Y10369D01*
X20176D01*
X20309Y10502D01*
Y10902D01*
Y10635D02*
X20576Y10369D01*
Y10102D02*
Y9835D01*
Y9969D01*
X19776D01*
X19910Y10102D01*
Y9436D02*
X19776Y9302D01*
Y9036D01*
X19910Y8902D01*
X20043D01*
X20176Y9036D01*
Y9169D01*
Y9036D01*
X20309Y8902D01*
X20443D01*
X20576Y9036D01*
Y9302D01*
X20443Y9436D01*
X24908Y24167D02*
X25041Y24300D01*
X25308D01*
X25441Y24167D01*
Y23633D01*
X25308Y23500D01*
X25041D01*
X24908Y23633D01*
X24642Y24167D02*
X24508Y24300D01*
X24242D01*
X24108Y24167D01*
Y24033D01*
X24242Y23900D01*
X24375D01*
X24242D01*
X24108Y23767D01*
Y23633D01*
X24242Y23500D01*
X24508D01*
X24642Y23633D01*
X23309Y23500D02*
X23842D01*
X23309Y24033D01*
Y24167D01*
X23442Y24300D01*
X23709D01*
X23842Y24167D01*
X21790Y10382D02*
X21657Y10515D01*
Y10781D01*
X21790Y10915D01*
X22323D01*
X22457Y10781D01*
Y10515D01*
X22323Y10382D01*
X22457Y10115D02*
Y9848D01*
Y9982D01*
X21657D01*
X21790Y10115D01*
X21657Y8915D02*
Y9448D01*
X22057D01*
X21924Y9182D01*
Y9049D01*
X22057Y8915D01*
X22323D01*
X22457Y9049D01*
Y9315D01*
X22323Y9448D01*
X36040Y10540D02*
X36173Y10673D01*
X36439D01*
X36573Y10540D01*
Y10006D01*
X36439Y9873D01*
X36173D01*
X36040Y10006D01*
X35773Y9873D02*
X35506D01*
X35640D01*
Y10673D01*
X35773Y10540D01*
X35107D02*
X34973Y10673D01*
X34707D01*
X34573Y10540D01*
Y10406D01*
X34707Y10273D01*
X34840D01*
X34707D01*
X34573Y10140D01*
Y10006D01*
X34707Y9873D01*
X34973D01*
X35107Y10006D01*
X41517Y18461D02*
X41650Y18327D01*
Y18061D01*
X41517Y17928D01*
X40983D01*
X40850Y18061D01*
Y18327D01*
X40983Y18461D01*
X40850Y18727D02*
Y18994D01*
Y18861D01*
X41650D01*
X41517Y18727D01*
X40850Y19394D02*
Y19660D01*
Y19527D01*
X41650D01*
X41517Y19394D01*
X38142Y18447D02*
X38275Y18313D01*
Y18047D01*
X38142Y17914D01*
X37608D01*
X37475Y18047D01*
Y18313D01*
X37608Y18447D01*
Y18713D02*
X37475Y18847D01*
Y19113D01*
X37608Y19246D01*
X38142D01*
X38275Y19113D01*
Y18847D01*
X38142Y18713D01*
X38008D01*
X37875Y18847D01*
Y19246D01*
X29375Y14567D02*
X28708D01*
X28575Y14700D01*
Y14967D01*
X28708Y15100D01*
X29375D01*
X28575Y15367D02*
Y15633D01*
Y15500D01*
X29375D01*
X29242Y15367D01*
X47079Y781D02*
Y1581D01*
X46679D01*
X46546Y1447D01*
Y1181D01*
X46679Y1048D01*
X47079D01*
X46279Y781D02*
X46012D01*
X46146D01*
Y1581D01*
X46279Y1447D01*
X39125Y17914D02*
X39925D01*
Y18313D01*
X39792Y18447D01*
X39525D01*
X39392Y18313D01*
Y17914D01*
Y18180D02*
X39125Y18447D01*
X39925Y19246D02*
X39792Y18980D01*
X39525Y18713D01*
X39258D01*
X39125Y18847D01*
Y19113D01*
X39258Y19246D01*
X39392D01*
X39525Y19113D01*
Y18713D01*
X41025Y9498D02*
X41825D01*
Y9898D01*
X41691Y10031D01*
X41425D01*
X41291Y9898D01*
Y9498D01*
Y9764D02*
X41025Y10031D01*
X41825Y10831D02*
Y10298D01*
X41425D01*
X41558Y10564D01*
Y10697D01*
X41425Y10831D01*
X41158D01*
X41025Y10697D01*
Y10431D01*
X41158Y10298D01*
X24206Y10967D02*
X23406D01*
Y10567D01*
X23540Y10433D01*
X23806D01*
X23940Y10567D01*
Y10967D01*
Y10700D02*
X24206Y10433D01*
Y9767D02*
X23406D01*
X23806Y10167D01*
Y9634D01*
X38332Y10009D02*
X38465Y9876D01*
Y9610D01*
X38332Y9476D01*
X37798D01*
X37665Y9610D01*
Y9876D01*
X37798Y10009D01*
X38465Y10276D02*
Y10809D01*
X38332D01*
X37798Y10276D01*
X37665D01*
D37*
X15348Y28900D02*
D03*
Y25100D02*
D03*
X25107Y29025D02*
D03*
X25107Y25225D02*
D03*
D38*
X2167Y18658D02*
D03*
D39*
X58025Y18999D02*
D03*
%TF.MD5,17509d30a4a632e13b5c9b3bdcd41636*%
M02*
