%TF.GenerationSoftware,Altium Limited,Altium Designer,24.7.2 (38)*%
G04 Layer_Color=32768*
%FSLAX43Y43*%
%MOMM*%
%TF.SameCoordinates,A6C98B59-F63B-4C8E-8392-574C2285590F*%
%TF.FilePolarity,Positive*%
%TF.FileFunction,Other,Top_Assembly*%
%TF.Part,Single*%
G01*
G75*
%TA.AperFunction,NonConductor*%
%ADD35C,0.200*%
%ADD56C,0.100*%
D35*
X49250Y6975D02*
X53650D01*
X49250Y3975D02*
Y6975D01*
Y3975D02*
X53650D01*
Y6975D01*
Y725D02*
Y3725D01*
X49250Y725D02*
X53650D01*
X49250D02*
Y3725D01*
X53650D01*
D56*
X11045Y15750D02*
X13395D01*
X11045Y20450D02*
X13395D01*
X11045Y15750D02*
Y20450D01*
X13395Y15750D02*
Y20450D01*
X14094Y11288D02*
Y12812D01*
X11046Y11288D02*
Y12812D01*
Y11288D02*
X14094D01*
X11046Y12812D02*
X14094D01*
X3778Y21825D02*
X6826D01*
X3778Y20301D02*
X6826D01*
X3778D02*
Y21825D01*
X6826Y20301D02*
Y21825D01*
X3778Y18543D02*
X6826D01*
X3778Y20067D02*
X6826D01*
Y18543D02*
Y20067D01*
X3778Y18543D02*
Y20067D01*
Y16799D02*
X6826D01*
X3778Y18323D02*
X6826D01*
Y16799D02*
Y18323D01*
X3778Y16799D02*
Y18323D01*
X3776Y16569D02*
X6824D01*
X3776Y15045D02*
X6824D01*
X3776D02*
Y16569D01*
X6824Y15045D02*
Y16569D01*
X13096Y25813D02*
Y27337D01*
X16144Y25813D02*
Y27337D01*
X13096D02*
X16144D01*
X13096Y25813D02*
X16144D01*
X11962Y17642D02*
X11845Y17525D01*
Y17292D01*
X11962Y17175D01*
X12428D01*
X12545Y17292D01*
Y17525D01*
X12428Y17642D01*
X12545Y17875D02*
Y18108D01*
Y17991D01*
X11845D01*
X11962Y17875D01*
X11845Y18924D02*
X11962Y18691D01*
X12195Y18458D01*
X12428D01*
X12545Y18575D01*
Y18808D01*
X12428Y18924D01*
X12312D01*
X12195Y18808D01*
Y18458D01*
X13078Y11816D02*
X13195Y11700D01*
X13428D01*
X13545Y11816D01*
Y12283D01*
X13428Y12400D01*
X13195D01*
X13078Y12283D01*
X12845Y12400D02*
X12612D01*
X12728D01*
Y11700D01*
X12845Y11816D01*
X11795Y12400D02*
X12262D01*
X11795Y11933D01*
Y11816D01*
X11912Y11700D01*
X12145D01*
X12262Y11816D01*
X6277Y21413D02*
Y20713D01*
X5927D01*
X5811Y20830D01*
Y21063D01*
X5927Y21180D01*
X6277D01*
X6044D02*
X5811Y21413D01*
X5577D02*
X5344D01*
X5461D01*
Y20713D01*
X5577Y20830D01*
X4644Y21413D02*
Y20713D01*
X4994Y21063D01*
X4528D01*
X4327Y18955D02*
Y19655D01*
X4677D01*
X4793Y19538D01*
Y19305D01*
X4677Y19188D01*
X4327D01*
X4560D02*
X4793Y18955D01*
X5027D02*
X5260D01*
X5143D01*
Y19655D01*
X5027Y19538D01*
X5610D02*
X5726Y19655D01*
X5960D01*
X6076Y19538D01*
Y19072D01*
X5960Y18955D01*
X5726D01*
X5610Y19072D01*
Y19538D01*
X4327Y17211D02*
Y17911D01*
X4677D01*
X4793Y17794D01*
Y17561D01*
X4677Y17444D01*
X4327D01*
X4560D02*
X4793Y17211D01*
X5027D02*
X5260D01*
X5143D01*
Y17911D01*
X5027Y17794D01*
X6076Y17211D02*
X5610D01*
X6076Y17677D01*
Y17794D01*
X5960Y17911D01*
X5726D01*
X5610Y17794D01*
X6275Y16157D02*
Y15457D01*
X5925D01*
X5808Y15574D01*
Y15807D01*
X5925Y15924D01*
X6275D01*
X6042D02*
X5808Y16157D01*
X5575D02*
X5342D01*
X5458D01*
Y15457D01*
X5575Y15574D01*
X4525Y15457D02*
X4992D01*
Y15807D01*
X4759Y15690D01*
X4642D01*
X4525Y15807D01*
Y16040D01*
X4642Y16157D01*
X4875D01*
X4992Y16040D01*
X13645Y26225D02*
Y26925D01*
X13995D01*
X14111Y26808D01*
Y26575D01*
X13995Y26458D01*
X13645D01*
X13878D02*
X14111Y26225D01*
X14345D02*
X14578D01*
X14461D01*
Y26925D01*
X14345Y26808D01*
X14928D02*
X15044Y26925D01*
X15278D01*
X15394Y26808D01*
Y26691D01*
X15278Y26575D01*
X15394Y26458D01*
Y26342D01*
X15278Y26225D01*
X15044D01*
X14928Y26342D01*
Y26458D01*
X15044Y26575D01*
X14928Y26691D01*
Y26808D01*
X15044Y26575D02*
X15278D01*
%TF.MD5,52d73a3a61afe4dfcfc48a8ec82483a0*%
M02*
