%TF.GenerationSoftware,Altium Limited,Altium Designer,24.7.2 (38)*%
G04 Layer_Color=16711935*
%FSLAX43Y43*%
%MOMM*%
%TF.SameCoordinates,A6C98B59-F63B-4C8E-8392-574C2285590F*%
%TF.FilePolarity,Positive*%
%TF.FileFunction,Other,Top_Courtyard*%
%TF.Part,Single*%
G01*
G75*
%TA.AperFunction,NonConductor*%
%ADD35C,0.200*%
G36*
X51450Y5475D02*
X51365D01*
Y5759D01*
X51255D01*
X51246Y5758D01*
X51238D01*
X51231Y5757D01*
X51226Y5757D01*
X51223D01*
X51221Y5756D01*
X51220D01*
X51206Y5751D01*
X51199Y5748D01*
X51193Y5745D01*
X51188Y5742D01*
X51185Y5740D01*
X51183Y5739D01*
X51182Y5738D01*
X51174Y5732D01*
X51167Y5727D01*
X51159Y5719D01*
X51153Y5712D01*
X51147Y5706D01*
X51143Y5700D01*
X51139Y5697D01*
X51138Y5695D01*
X51128Y5682D01*
X51118Y5668D01*
X51108Y5654D01*
X51098Y5640D01*
X51090Y5627D01*
X51086Y5622D01*
X51083Y5617D01*
X51080Y5613D01*
X51078Y5610D01*
X51077Y5608D01*
Y5607D01*
X50993Y5475D01*
X50886D01*
X50997Y5648D01*
X51009Y5667D01*
X51022Y5683D01*
X51033Y5698D01*
X51044Y5710D01*
X51054Y5720D01*
X51061Y5727D01*
X51066Y5732D01*
X51067Y5733D01*
X51068D01*
X51075Y5739D01*
X51083Y5745D01*
X51099Y5756D01*
X51107Y5760D01*
X51113Y5763D01*
X51117Y5765D01*
X51118Y5766D01*
X51102Y5768D01*
X51086Y5772D01*
X51072Y5776D01*
X51058Y5780D01*
X51046Y5785D01*
X51034Y5790D01*
X51024Y5795D01*
X51015Y5800D01*
X51008Y5805D01*
X51001Y5810D01*
X50995Y5814D01*
X50990Y5817D01*
X50987Y5821D01*
X50983Y5823D01*
X50983Y5824D01*
X50982Y5825D01*
X50974Y5834D01*
X50967Y5843D01*
X50961Y5853D01*
X50956Y5862D01*
X50948Y5882D01*
X50943Y5900D01*
X50940Y5916D01*
X50939Y5922D01*
X50938Y5928D01*
X50938Y5933D01*
Y5937D01*
Y5939D01*
Y5940D01*
X50938Y5959D01*
X50942Y5977D01*
X50946Y5994D01*
X50951Y6008D01*
X50956Y6020D01*
X50960Y6029D01*
X50962Y6032D01*
X50963Y6035D01*
X50964Y6036D01*
Y6037D01*
X50975Y6052D01*
X50987Y6065D01*
X50998Y6076D01*
X51010Y6084D01*
X51020Y6091D01*
X51028Y6095D01*
X51032Y6096D01*
X51034Y6097D01*
X51035Y6098D01*
X51036D01*
X51044Y6101D01*
X51054Y6104D01*
X51075Y6108D01*
X51097Y6111D01*
X51118Y6113D01*
X51128Y6114D01*
X51137Y6115D01*
X51144D01*
X51152Y6116D01*
X51450D01*
Y5475D01*
D02*
G37*
G36*
X50831Y6032D02*
X50518D01*
X50539Y6005D01*
X50561Y5977D01*
X50580Y5948D01*
X50597Y5922D01*
X50604Y5910D01*
X50611Y5898D01*
X50617Y5888D01*
X50622Y5880D01*
X50626Y5873D01*
X50629Y5867D01*
X50630Y5864D01*
X50631Y5863D01*
X50649Y5826D01*
X50666Y5789D01*
X50679Y5754D01*
X50686Y5738D01*
X50691Y5722D01*
X50696Y5708D01*
X50700Y5696D01*
X50704Y5685D01*
X50707Y5675D01*
X50709Y5667D01*
X50710Y5662D01*
X50712Y5658D01*
Y5657D01*
X50717Y5637D01*
X50721Y5618D01*
X50725Y5600D01*
X50729Y5583D01*
X50731Y5567D01*
X50734Y5552D01*
X50735Y5538D01*
X50737Y5526D01*
X50739Y5514D01*
X50739Y5504D01*
X50740Y5496D01*
Y5488D01*
X50741Y5482D01*
Y5478D01*
Y5476D01*
Y5475D01*
X50660D01*
X50657Y5510D01*
X50653Y5542D01*
X50651Y5557D01*
X50649Y5572D01*
X50645Y5586D01*
X50643Y5598D01*
X50640Y5610D01*
X50639Y5620D01*
X50636Y5629D01*
X50634Y5637D01*
X50633Y5642D01*
X50631Y5647D01*
X50630Y5650D01*
Y5651D01*
X50617Y5693D01*
X50602Y5733D01*
X50594Y5752D01*
X50587Y5771D01*
X50579Y5788D01*
X50572Y5804D01*
X50565Y5819D01*
X50559Y5832D01*
X50554Y5844D01*
X50549Y5854D01*
X50544Y5862D01*
X50541Y5867D01*
X50539Y5872D01*
X50539Y5872D01*
X50527Y5892D01*
X50516Y5911D01*
X50505Y5929D01*
X50494Y5945D01*
X50484Y5961D01*
X50474Y5975D01*
X50464Y5988D01*
X50455Y6000D01*
X50447Y6010D01*
X50439Y6019D01*
X50433Y6027D01*
X50428Y6034D01*
X50423Y6039D01*
X50419Y6042D01*
X50418Y6045D01*
X50417Y6046D01*
Y6107D01*
X50831D01*
Y6032D01*
D02*
G37*
G36*
X50600Y2852D02*
X50611Y2837D01*
X50623Y2822D01*
X50634Y2810D01*
X50644Y2798D01*
X50653Y2790D01*
X50656Y2787D01*
X50659Y2784D01*
X50660Y2783D01*
X50661Y2782D01*
X50680Y2767D01*
X50699Y2752D01*
X50719Y2739D01*
X50737Y2728D01*
X50753Y2720D01*
X50759Y2716D01*
X50765Y2713D01*
X50769Y2711D01*
X50773Y2709D01*
X50775Y2707D01*
X50776D01*
Y2631D01*
X50762Y2637D01*
X50748Y2643D01*
X50734Y2650D01*
X50721Y2657D01*
X50710Y2662D01*
X50701Y2667D01*
X50698Y2669D01*
X50695Y2671D01*
X50694Y2672D01*
X50694D01*
X50677Y2682D01*
X50663Y2692D01*
X50649Y2701D01*
X50639Y2709D01*
X50630Y2716D01*
X50624Y2722D01*
X50620Y2725D01*
X50619Y2726D01*
Y2225D01*
X50540D01*
Y2868D01*
X50591D01*
X50600Y2852D01*
D02*
G37*
G36*
X51450Y2225D02*
X51365D01*
Y2509D01*
X51255D01*
X51246Y2508D01*
X51238D01*
X51231Y2507D01*
X51226Y2507D01*
X51223D01*
X51221Y2506D01*
X51220D01*
X51206Y2501D01*
X51199Y2498D01*
X51193Y2495D01*
X51188Y2492D01*
X51185Y2490D01*
X51183Y2489D01*
X51182Y2488D01*
X51174Y2482D01*
X51167Y2477D01*
X51159Y2469D01*
X51153Y2462D01*
X51147Y2456D01*
X51143Y2450D01*
X51139Y2447D01*
X51138Y2445D01*
X51128Y2432D01*
X51118Y2418D01*
X51108Y2404D01*
X51098Y2390D01*
X51090Y2377D01*
X51086Y2372D01*
X51083Y2367D01*
X51080Y2363D01*
X51078Y2360D01*
X51077Y2358D01*
Y2357D01*
X50993Y2225D01*
X50886D01*
X50997Y2398D01*
X51009Y2417D01*
X51022Y2433D01*
X51033Y2448D01*
X51044Y2460D01*
X51054Y2470D01*
X51061Y2477D01*
X51066Y2482D01*
X51067Y2483D01*
X51068D01*
X51075Y2489D01*
X51083Y2495D01*
X51099Y2506D01*
X51107Y2510D01*
X51113Y2513D01*
X51117Y2515D01*
X51118Y2516D01*
X51102Y2518D01*
X51086Y2522D01*
X51072Y2526D01*
X51058Y2530D01*
X51046Y2535D01*
X51034Y2540D01*
X51024Y2545D01*
X51015Y2550D01*
X51008Y2555D01*
X51001Y2560D01*
X50995Y2564D01*
X50990Y2567D01*
X50987Y2571D01*
X50983Y2573D01*
X50983Y2574D01*
X50982Y2575D01*
X50974Y2584D01*
X50967Y2593D01*
X50961Y2603D01*
X50956Y2612D01*
X50948Y2632D01*
X50943Y2650D01*
X50940Y2666D01*
X50939Y2672D01*
X50938Y2678D01*
X50938Y2683D01*
Y2687D01*
Y2689D01*
Y2690D01*
X50938Y2709D01*
X50942Y2727D01*
X50946Y2744D01*
X50951Y2758D01*
X50956Y2770D01*
X50960Y2779D01*
X50962Y2782D01*
X50963Y2785D01*
X50964Y2786D01*
Y2787D01*
X50975Y2802D01*
X50987Y2815D01*
X50998Y2826D01*
X51010Y2834D01*
X51020Y2841D01*
X51028Y2845D01*
X51032Y2846D01*
X51034Y2847D01*
X51035Y2848D01*
X51036D01*
X51044Y2851D01*
X51054Y2854D01*
X51075Y2858D01*
X51097Y2861D01*
X51118Y2863D01*
X51128Y2864D01*
X51137Y2865D01*
X51144D01*
X51152Y2866D01*
X51450D01*
Y2225D01*
D02*
G37*
%LPC*%
G36*
X51365Y6045D02*
X51150D01*
X51138Y6043D01*
X51127Y6042D01*
X51117Y6040D01*
X51107Y6038D01*
X51098Y6036D01*
X51091Y6032D01*
X51084Y6030D01*
X51073Y6024D01*
X51065Y6020D01*
X51060Y6017D01*
X51058Y6015D01*
X51048Y6003D01*
X51039Y5991D01*
X51033Y5978D01*
X51029Y5967D01*
X51027Y5956D01*
X51026Y5947D01*
X51025Y5944D01*
Y5942D01*
Y5941D01*
Y5940D01*
X51026Y5928D01*
X51028Y5918D01*
X51031Y5908D01*
X51033Y5900D01*
X51037Y5892D01*
X51040Y5887D01*
X51042Y5883D01*
X51043Y5882D01*
X51049Y5873D01*
X51058Y5865D01*
X51066Y5858D01*
X51073Y5853D01*
X51081Y5849D01*
X51087Y5847D01*
X51091Y5845D01*
X51093Y5844D01*
X51106Y5840D01*
X51120Y5837D01*
X51136Y5835D01*
X51150Y5834D01*
X51163Y5833D01*
X51169Y5832D01*
X51365D01*
Y6045D01*
D02*
G37*
G36*
Y2795D02*
X51150D01*
X51138Y2793D01*
X51127Y2792D01*
X51117Y2790D01*
X51107Y2788D01*
X51098Y2786D01*
X51091Y2782D01*
X51084Y2780D01*
X51073Y2774D01*
X51065Y2770D01*
X51060Y2767D01*
X51058Y2765D01*
X51048Y2753D01*
X51039Y2741D01*
X51033Y2728D01*
X51029Y2717D01*
X51027Y2706D01*
X51026Y2697D01*
X51025Y2694D01*
Y2692D01*
Y2691D01*
Y2690D01*
X51026Y2678D01*
X51028Y2668D01*
X51031Y2658D01*
X51033Y2650D01*
X51037Y2642D01*
X51040Y2637D01*
X51042Y2633D01*
X51043Y2632D01*
X51049Y2623D01*
X51058Y2615D01*
X51066Y2608D01*
X51073Y2603D01*
X51081Y2599D01*
X51087Y2597D01*
X51091Y2595D01*
X51093Y2594D01*
X51106Y2590D01*
X51120Y2587D01*
X51136Y2585D01*
X51150Y2584D01*
X51163Y2583D01*
X51169Y2582D01*
X51365D01*
Y2795D01*
D02*
G37*
%LPD*%
D35*
X49250Y6975D02*
X53650D01*
X49250Y3975D02*
Y6975D01*
Y3975D02*
X53650D01*
Y6975D01*
Y725D02*
Y3725D01*
X49250Y725D02*
X53650D01*
X49250D02*
Y3725D01*
X53650D01*
%TF.MD5,11bfc354794d8d73c0cc22f2de435384*%
M02*
