%TF.GenerationSoftware,Altium Limited,Altium Designer,24.7.2 (38)*%
G04 Layer_Physical_Order=1*
G04 Layer_Color=255*
%FSLAX43Y43*%
%MOMM*%
%TF.SameCoordinates,A6C98B59-F63B-4C8E-8392-574C2285590F*%
%TF.FilePolarity,Positive*%
%TF.FileFunction,Copper,L1,Top,Signal*%
%TF.Part,Single*%
G01*
G75*
%TA.AperFunction,Conductor*%
%ADD10C,1.000*%
%ADD11C,0.800*%
%ADD12C,0.500*%
%TA.AperFunction,SMDPad,CuDef*%
%ADD13R,2.500X2.200*%
%ADD14R,1.200X1.100*%
%ADD15R,0.800X1.250*%
%TA.AperFunction,ComponentPad*%
%ADD16C,1.800*%
%ADD17O,3.000X3.100*%
%ADD18C,1.650*%
G04:AMPARAMS|DCode=19|XSize=1.65mm|YSize=1.65mm|CornerRadius=0.413mm|HoleSize=0mm|Usage=FLASHONLY|Rotation=180.000|XOffset=0mm|YOffset=0mm|HoleType=Round|Shape=RoundedRectangle|*
%AMROUNDEDRECTD19*
21,1,1.650,0.825,0,0,180.0*
21,1,0.825,1.650,0,0,180.0*
1,1,0.825,-0.413,0.413*
1,1,0.825,0.413,0.413*
1,1,0.825,0.413,-0.413*
1,1,0.825,-0.413,-0.413*
%
%ADD19ROUNDEDRECTD19*%
%TA.AperFunction,ViaPad*%
%ADD20C,0.800*%
G36*
X57000Y29667D02*
Y29667D01*
X57124Y29659D01*
X57417Y29636D01*
X57825Y29538D01*
X58211Y29378D01*
X58569Y29159D01*
X58887Y28887D01*
X59159Y28569D01*
X59378Y28211D01*
X59538Y27825D01*
X59636Y27417D01*
X59659Y27124D01*
X59667Y27000D01*
X59667Y27000D01*
X59667Y26873D01*
X59667Y22208D01*
X59540Y22176D01*
X59420Y22399D01*
X59208Y22658D01*
X58949Y22870D01*
X58654Y23028D01*
X58333Y23125D01*
X58000Y23158D01*
X57667Y23125D01*
X57346Y23028D01*
X57051Y22870D01*
X56792Y22658D01*
X56580Y22399D01*
X56422Y22104D01*
X56325Y21783D01*
X56292Y21450D01*
Y21350D01*
X56325Y21017D01*
X56422Y20696D01*
X56580Y20401D01*
X56792Y20142D01*
X57051Y19930D01*
X57346Y19772D01*
X57667Y19675D01*
X58000Y19642D01*
X58333Y19675D01*
X58654Y19772D01*
X58949Y19930D01*
X59208Y20142D01*
X59420Y20401D01*
X59540Y20624D01*
X59667Y20592D01*
X59667Y3125D01*
X59667Y3003D01*
X59667Y3000D01*
D01*
X59659Y2877D01*
X59636Y2583D01*
X59538Y2175D01*
X59378Y1789D01*
X59159Y1431D01*
X58887Y1113D01*
X58569Y841D01*
X58211Y622D01*
X57825Y462D01*
X57417Y364D01*
X57124Y341D01*
X57000Y333D01*
X57000Y333D01*
X56873Y333D01*
X42038D01*
X42020Y460D01*
X42769Y676D01*
X43531Y992D01*
X44252Y1391D01*
X44925Y1868D01*
X45448Y2335D01*
X45540Y2417D01*
X45541Y2419D01*
X45628Y2510D01*
X46248Y3129D01*
X46375Y3095D01*
X46645D01*
X46906Y3165D01*
X47139Y3300D01*
X47330Y3491D01*
X47465Y3724D01*
X47535Y3985D01*
Y4255D01*
X47465Y4516D01*
X47330Y4749D01*
X47139Y4940D01*
X46906Y5075D01*
X46645Y5145D01*
X46375D01*
X46114Y5075D01*
X45881Y4940D01*
X45690Y4749D01*
X45555Y4516D01*
X45485Y4255D01*
Y3985D01*
X45553Y3732D01*
X44890Y3069D01*
X44876Y3048D01*
X44355Y2582D01*
X43766Y2165D01*
X43134Y1815D01*
X42467Y1539D01*
X41773Y1339D01*
X41061Y1218D01*
X40989Y1214D01*
X40960Y1340D01*
X41498Y1562D01*
X42103Y1897D01*
X42667Y2297D01*
X43182Y2757D01*
X43182Y2758D01*
X43586Y3162D01*
X43835Y3095D01*
X44105D01*
X44366Y3165D01*
X44599Y3300D01*
X44790Y3491D01*
X44925Y3724D01*
X44995Y3985D01*
Y4255D01*
X44925Y4516D01*
X44790Y4749D01*
X44599Y4940D01*
X44366Y5075D01*
X44105Y5145D01*
X43835D01*
X43574Y5075D01*
X43341Y4940D01*
X43150Y4749D01*
X43015Y4516D01*
X42945Y4255D01*
Y3985D01*
X42980Y3854D01*
X42533Y3407D01*
X42517Y3383D01*
X42022Y2949D01*
X41450Y2567D01*
X40834Y2263D01*
X40183Y2042D01*
X39509Y1908D01*
X38852Y1865D01*
X38825Y1870D01*
X38823Y1870D01*
X38823Y1870D01*
X38822Y1870D01*
X37484D01*
X37466Y1996D01*
X37509Y2009D01*
X37955Y2248D01*
X38346Y2569D01*
X38342Y2573D01*
X38863Y3095D01*
X39025D01*
X39286Y3165D01*
X39519Y3300D01*
X39710Y3491D01*
X39845Y3724D01*
X39915Y3985D01*
Y4255D01*
X39845Y4516D01*
X39710Y4749D01*
X39519Y4940D01*
X39286Y5075D01*
X39025Y5145D01*
X38755D01*
X38494Y5075D01*
X38261Y4940D01*
X38070Y4749D01*
X37935Y4516D01*
X37865Y4255D01*
Y4093D01*
X37392Y3620D01*
X37290Y3698D01*
X37305Y3724D01*
X37375Y3985D01*
Y4255D01*
X37305Y4516D01*
X37170Y4749D01*
X36979Y4940D01*
X36820Y5032D01*
X36848Y5162D01*
X36848Y5163D01*
X37169Y5260D01*
X37466Y5419D01*
X37723Y5630D01*
X37727Y5632D01*
X42889Y10794D01*
X43130Y10729D01*
X43420D01*
X43700Y10804D01*
X43950Y10949D01*
X44155Y11154D01*
X44300Y11405D01*
X44375Y11685D01*
Y11974D01*
X44300Y12254D01*
X44155Y12505D01*
X43950Y12710D01*
X43700Y12855D01*
X43420Y12929D01*
X43130D01*
X42889Y12865D01*
X39272Y16482D01*
X39184Y16573D01*
X39184Y16573D01*
X38828Y16865D01*
X38421Y17082D01*
X37980Y17216D01*
X37521Y17261D01*
Y17259D01*
X36718D01*
X36718Y17259D01*
X36717Y17259D01*
X36716Y17259D01*
X36692Y17254D01*
X36355Y17298D01*
X36018Y17438D01*
X35827Y17584D01*
X35804Y17605D01*
X35867Y17714D01*
X36252Y17554D01*
X36682Y17451D01*
X37124Y17416D01*
X37125Y17416D01*
X37126Y17416D01*
X38438D01*
X38459Y17420D01*
X38683Y17376D01*
X38873Y17249D01*
X38885Y17231D01*
X39135Y16981D01*
X39135Y16981D01*
X39133Y16979D01*
X39420Y16759D01*
X39755Y16620D01*
X40113Y16573D01*
X40113Y16575D01*
X40113Y16576D01*
X42415Y16576D01*
X42541Y16359D01*
X42745Y16154D01*
X42996Y16010D01*
X43276Y15935D01*
X43566D01*
X43845Y16010D01*
X44096Y16154D01*
X44301Y16359D01*
X44446Y16610D01*
X44521Y16890D01*
Y17179D01*
X44446Y17459D01*
X44301Y17710D01*
X44096Y17915D01*
X43845Y18060D01*
X43566Y18135D01*
X43276D01*
X42996Y18060D01*
X42745Y17915D01*
X42541Y17710D01*
X42415Y17493D01*
X40113Y17493D01*
X40100Y17491D01*
X39933Y17524D01*
X39881Y17559D01*
X39784Y17630D01*
X39694Y17720D01*
X39534Y17880D01*
X39534Y17880D01*
X39534Y17880D01*
X39534Y17880D01*
X39522Y17888D01*
X39298Y18071D01*
X39031Y18215D01*
X38740Y18303D01*
X38451Y18331D01*
X38438Y18334D01*
X37126D01*
X37107Y18330D01*
X36751Y18365D01*
X36393Y18474D01*
X36114Y18623D01*
X36146Y18750D01*
X36396D01*
X36676Y18825D01*
X36927Y18970D01*
X37131Y19175D01*
X37276Y19425D01*
X37351Y19705D01*
Y19995D01*
X37276Y20275D01*
X37131Y20525D01*
X36927Y20730D01*
X36676Y20875D01*
X36396Y20950D01*
X36106D01*
X35827Y20875D01*
X35576Y20730D01*
X35371Y20525D01*
X35226Y20275D01*
X35151Y19995D01*
Y19705D01*
X35156Y19686D01*
X35046Y19622D01*
X33738Y20931D01*
X33738Y20931D01*
X33740Y20934D01*
X33350Y21253D01*
X32905Y21491D01*
X32592Y21586D01*
X32611Y21713D01*
X43664D01*
X43694Y21719D01*
X44203Y21686D01*
X44733Y21580D01*
X45245Y21407D01*
X45729Y21168D01*
X46178Y20868D01*
X46560Y20533D01*
X46577Y20508D01*
X47128Y19957D01*
X47125Y19945D01*
Y19655D01*
X47200Y19375D01*
X47345Y19125D01*
X47550Y18920D01*
X47800Y18775D01*
X48080Y18700D01*
X48370D01*
X48650Y18775D01*
X48900Y18920D01*
X49105Y19125D01*
X49250Y19375D01*
X49325Y19655D01*
Y19945D01*
X49250Y20225D01*
X49105Y20475D01*
X48900Y20680D01*
X48650Y20825D01*
X48370Y20900D01*
X48080D01*
X47950Y20865D01*
X47531Y21284D01*
X47442Y21373D01*
X47441Y21374D01*
X47441Y21374D01*
X47439Y21376D01*
X46918Y21832D01*
X46337Y22220D01*
X45710Y22530D01*
X45048Y22754D01*
X44362Y22891D01*
X43667Y22936D01*
X43664Y22937D01*
X23980D01*
X23979Y22937D01*
X23979Y22937D01*
X23978D01*
Y22937D01*
X23977D01*
X23974Y22936D01*
X23395Y22891D01*
X22827Y22754D01*
X22287Y22531D01*
X21789Y22225D01*
X21347Y21847D01*
X21345Y21846D01*
X20141Y20642D01*
X20016Y20667D01*
X19991Y20729D01*
X19964Y20756D01*
X19945Y20997D01*
X19826Y21490D01*
X19632Y21958D01*
X19367Y22391D01*
X19117Y22684D01*
X19038Y22778D01*
X19038Y22778D01*
X18619Y23135D01*
X18145Y23425D01*
X17633Y23638D01*
X17093Y23767D01*
X16542Y23811D01*
X16520Y23828D01*
X16446Y23896D01*
Y25150D01*
X16105D01*
Y25750D01*
X16220D01*
Y27400D01*
X15020D01*
Y25750D01*
X15188D01*
Y25150D01*
X14846D01*
Y23809D01*
X4018D01*
Y23809D01*
X3650Y23773D01*
X3296Y23665D01*
X2969Y23491D01*
X2777Y23333D01*
X2776Y23333D01*
X2776Y23333D01*
X2776Y23332D01*
X2775Y23332D01*
X2683Y23256D01*
X2681Y23254D01*
X2681Y23254D01*
X2409Y22982D01*
X2319Y22893D01*
X2317Y22892D01*
X2241Y22799D01*
X2058Y22576D01*
X1865Y22215D01*
X1747Y21824D01*
X1707Y21418D01*
X1707Y21418D01*
X1707Y21418D01*
X1708Y21299D01*
Y19404D01*
X1706Y19277D01*
X1705Y19276D01*
X1717Y19154D01*
X1750Y18824D01*
X1882Y18389D01*
X2096Y17989D01*
X2352Y17676D01*
X2383Y17639D01*
X2406Y17617D01*
X2439Y17586D01*
X2439Y17586D01*
X2439Y17586D01*
X2439Y17586D01*
X2439Y17586D01*
X2439Y17586D01*
X2452Y17577D01*
X2670Y17398D01*
X2932Y17258D01*
X3216Y17172D01*
X3495Y17144D01*
X3511Y17141D01*
Y17141D01*
X3511Y17141D01*
X3612Y17141D01*
X3702Y17051D01*
Y16736D01*
X4902D01*
Y18386D01*
X4902D01*
Y18480D01*
X4902D01*
Y20130D01*
X3702D01*
Y20130D01*
X3584Y20152D01*
X3584Y21440D01*
X3584Y21478D01*
X3597Y21599D01*
X3597Y21600D01*
X3827Y21829D01*
X3833Y21838D01*
X3906Y21868D01*
X3916Y21866D01*
X5702D01*
Y20238D01*
X5702D01*
X5702Y20130D01*
X5702D01*
X5702Y20111D01*
Y18480D01*
X5702D01*
Y18386D01*
X5702D01*
Y16736D01*
X5702D01*
X5700Y16632D01*
X5700D01*
X5700Y16610D01*
Y14982D01*
X6900D01*
Y16632D01*
X6900D01*
X6902Y16736D01*
X6902D01*
X6902Y16758D01*
Y16941D01*
X6997Y17025D01*
X7089Y17013D01*
X7318Y16918D01*
X7505Y16774D01*
X7513Y16763D01*
X7875Y16401D01*
Y16281D01*
X7966Y16060D01*
X8066Y15960D01*
Y11366D01*
X8064Y11364D01*
X7939Y11310D01*
X7930Y11316D01*
X7888Y11359D01*
X7832Y11382D01*
X7782Y11415D01*
X7723Y11427D01*
X7667Y11450D01*
X7607D01*
X7548Y11462D01*
X5569D01*
X5567Y11463D01*
Y11463D01*
X4927Y11412D01*
X4303Y11262D01*
X3709Y11017D01*
X3162Y10681D01*
X2768Y10344D01*
X2674Y10264D01*
X2673Y10264D01*
X2552Y10250D01*
X2281D01*
X2001Y10175D01*
X1751Y10030D01*
X1546Y9825D01*
X1401Y9575D01*
X1326Y9295D01*
Y9005D01*
X1401Y8725D01*
X1546Y8475D01*
X1751Y8270D01*
X2001Y8125D01*
X2281Y8050D01*
X2571D01*
X2851Y8125D01*
X3101Y8270D01*
X3306Y8475D01*
X3451Y8725D01*
X3526Y9005D01*
Y9295D01*
X3507Y9366D01*
X3539Y9398D01*
X3555Y9422D01*
X3877Y9697D01*
X4262Y9933D01*
X4679Y10105D01*
X5118Y10211D01*
X5441Y10236D01*
X5567Y10238D01*
X5568Y10238D01*
X5570Y10238D01*
X7548D01*
X7607Y10250D01*
X7667D01*
X7723Y10273D01*
X7782Y10285D01*
X7832Y10318D01*
X7888Y10341D01*
X7930Y10384D01*
X7939Y10390D01*
X8064Y10336D01*
X8066Y10334D01*
Y8085D01*
X8063Y7959D01*
X8063Y7959D01*
X8070Y7835D01*
X8112Y7083D01*
X8259Y6218D01*
X8502Y5375D01*
X8838Y4565D01*
X9262Y3797D01*
X9770Y3081D01*
X10354Y2427D01*
X10354D01*
X10358Y2428D01*
X11068Y1718D01*
X11150Y1634D01*
Y1634D01*
Y1634D01*
X11150Y1634D01*
X11610Y1231D01*
X12118Y891D01*
X12667Y621D01*
X13139Y460D01*
X13118Y333D01*
X3127D01*
X3000Y333D01*
X2876Y341D01*
X2583Y364D01*
X2175Y462D01*
X1789Y622D01*
X1431Y841D01*
X1113Y1113D01*
X841Y1431D01*
X622Y1789D01*
X462Y2175D01*
X364Y2583D01*
X341Y2876D01*
X333Y3000D01*
X333Y3127D01*
X333Y26873D01*
X333Y27000D01*
X341Y27124D01*
X364Y27417D01*
X462Y27825D01*
X622Y28211D01*
X841Y28569D01*
X1113Y28887D01*
X1431Y29159D01*
X1789Y29378D01*
X2175Y29538D01*
X2583Y29636D01*
X2874Y29659D01*
X3000Y29667D01*
X3000Y29667D01*
X3124Y29667D01*
X30123D01*
X30157Y29540D01*
X30011Y29455D01*
X29837Y29281D01*
X27467D01*
Y29285D01*
X26763Y29245D01*
X26068Y29127D01*
X25390Y28932D01*
X24739Y28662D01*
X24122Y28321D01*
X23547Y27914D01*
X23115Y27527D01*
X23022Y27444D01*
X23021Y27443D01*
X22935Y27352D01*
X21533Y25949D01*
X21421Y25803D01*
X21350Y25633D01*
X21326Y25450D01*
Y25450D01*
X21350Y25267D01*
X21421Y25097D01*
X21533Y24951D01*
X21679Y24839D01*
X21849Y24768D01*
X22032Y24744D01*
X22215Y24768D01*
X22385Y24839D01*
X22531Y24951D01*
X22532Y24951D01*
X24022Y26442D01*
X24034Y26457D01*
X24500Y26866D01*
X25030Y27220D01*
X25601Y27502D01*
X26205Y27707D01*
X26830Y27831D01*
X27447Y27871D01*
X27467Y27869D01*
X29837D01*
X30011Y27695D01*
X30262Y27550D01*
X30542Y27475D01*
X30831D01*
X31111Y27550D01*
X31362Y27695D01*
X31567Y27900D01*
X31712Y28150D01*
X31787Y28430D01*
Y28720D01*
X31712Y29000D01*
X31567Y29250D01*
X31362Y29455D01*
X31216Y29540D01*
X31250Y29667D01*
X56875D01*
X57000Y29667D01*
D02*
G37*
G36*
X17052Y22850D02*
X17545Y22700D01*
X17999Y22457D01*
X18297Y22213D01*
X18388Y22127D01*
X18388Y22127D01*
X18388Y22127D01*
X18473Y22035D01*
X18682Y21780D01*
X18896Y21379D01*
X19028Y20944D01*
X19043Y20798D01*
X18973Y20729D01*
X18910Y20576D01*
X18773D01*
X18721Y20701D01*
X18552Y20870D01*
X18331Y20961D01*
X18093D01*
X17872Y20870D01*
X17703Y20701D01*
X17612Y20480D01*
Y20403D01*
X17545Y20348D01*
X17149Y20137D01*
X16718Y20006D01*
X16295Y19964D01*
X16272Y19969D01*
X16270Y19969D01*
X16270Y19969D01*
X16269Y19969D01*
X11316D01*
X11315Y19969D01*
X11315Y19969D01*
X11313Y19969D01*
X11292Y19965D01*
X10896Y20004D01*
X10495Y20126D01*
X10124Y20324D01*
X9897Y20510D01*
X9804Y20594D01*
X9803Y20596D01*
X9803Y20596D01*
X9802Y20597D01*
X8437Y21962D01*
X8437Y21962D01*
X8437Y21962D01*
X8435Y21964D01*
X8435Y21964D01*
X8435Y21964D01*
X8434Y21964D01*
X8433Y21966D01*
X8101Y22249D01*
X7726Y22478D01*
X7320Y22647D01*
X6893Y22749D01*
X6702Y22764D01*
X6707Y22891D01*
X14846D01*
Y21944D01*
X14741Y21873D01*
X14644Y21913D01*
X14406D01*
X14185Y21822D01*
X14016Y21653D01*
X13925Y21433D01*
Y21194D01*
X14016Y20974D01*
X14185Y20805D01*
X14406Y20713D01*
X14644D01*
X14865Y20805D01*
X14911Y20851D01*
X16432D01*
X16485Y20798D01*
X16706Y20707D01*
X16944D01*
X17165Y20798D01*
X17334Y20967D01*
X17425Y21187D01*
Y21426D01*
X17334Y21647D01*
X17165Y21815D01*
X16944Y21907D01*
X16706D01*
X16573Y21852D01*
X16446Y21937D01*
Y22811D01*
X16538Y22891D01*
X16542Y22891D01*
X16570Y22897D01*
X17052Y22850D01*
D02*
G37*
G36*
X24392Y21586D02*
X24277Y21551D01*
X23977Y21391D01*
X23717Y21178D01*
X23713Y21175D01*
X23713Y21175D01*
X23711Y21177D01*
X23482Y20879D01*
X23337Y20530D01*
X23288Y20155D01*
X23291Y20155D01*
X23291Y20155D01*
Y19645D01*
X23293Y19635D01*
X23323Y19335D01*
X23413Y19038D01*
X23559Y18765D01*
X23745Y18538D01*
X23753Y18526D01*
X24007Y18272D01*
Y18202D01*
X24098Y17981D01*
X24103Y17976D01*
X24055Y17859D01*
X23684D01*
X23599Y17944D01*
X23379Y18035D01*
X23140D01*
X22920Y17944D01*
X22817Y17841D01*
X19111D01*
X19084Y17967D01*
X19093Y17972D01*
X19106Y17985D01*
X19223Y18048D01*
X19474Y18253D01*
X19500Y18271D01*
X19500Y18271D01*
X19500Y18271D01*
X19589Y18360D01*
X22210Y20981D01*
X22231Y21013D01*
X22583Y21301D01*
X23017Y21533D01*
X23488Y21676D01*
X23851Y21712D01*
X23978Y21713D01*
X23979Y21713D01*
X23981Y21713D01*
X24373D01*
X24392Y21586D01*
D02*
G37*
G36*
X7178Y21728D02*
X7504Y21553D01*
X7693Y21398D01*
X7786Y21315D01*
X7786Y21315D01*
X7788Y21313D01*
X9071Y20031D01*
X9155Y19945D01*
Y19945D01*
X9155Y19945D01*
X9519Y19634D01*
X9928Y19384D01*
X10371Y19200D01*
X10836Y19088D01*
X11314Y19051D01*
Y19051D01*
X11315Y19051D01*
X11316Y19051D01*
X16154D01*
X16271Y19050D01*
X16271Y19050D01*
X16271Y19050D01*
X16772Y19090D01*
X17261Y19207D01*
X17726Y19400D01*
X18155Y19662D01*
X18270Y19761D01*
X18331D01*
X18552Y19852D01*
X18721Y20021D01*
X18784Y20174D01*
X18922D01*
X18973Y20049D01*
X19142Y19880D01*
X19204Y19855D01*
X19229Y19730D01*
X18635Y19136D01*
X18620Y19114D01*
X18522Y19048D01*
X18143Y18962D01*
X16813Y18962D01*
X16813Y18962D01*
X16813Y18962D01*
Y18962D01*
X16781Y18956D01*
X16463Y18924D01*
X16127Y18822D01*
X15818Y18657D01*
X15570Y18454D01*
X15544Y18436D01*
X13058Y15950D01*
X10770D01*
Y13350D01*
X10885D01*
X10978Y13223D01*
X10963Y13150D01*
Y11975D01*
X10970Y11943D01*
Y11350D01*
X10899Y11307D01*
X10843Y11293D01*
X10807Y11316D01*
X10765Y11359D01*
X10709Y11382D01*
X10659Y11415D01*
X10600Y11427D01*
X10544Y11450D01*
X10484D01*
X10425Y11462D01*
X10366Y11450D01*
X10306D01*
X10250Y11427D01*
X10191Y11415D01*
X10141Y11382D01*
X10085Y11359D01*
X10043Y11316D01*
X10026Y11305D01*
X9915Y11347D01*
X9899Y11361D01*
Y15991D01*
X9899Y16357D01*
X9899Y16357D01*
X9899D01*
X9899Y16358D01*
X9864Y16712D01*
X9760Y17053D01*
X9642Y17275D01*
Y17483D01*
X9550Y17703D01*
X9381Y17872D01*
X9161Y17963D01*
X9090D01*
X7714Y19340D01*
X7715Y19341D01*
X7457Y19539D01*
X7156Y19664D01*
X6902Y19698D01*
Y20130D01*
X6902D01*
X6902Y20238D01*
X6902D01*
X6902Y20257D01*
Y21705D01*
X7004Y21780D01*
X7178Y21728D01*
D02*
G37*
G36*
X25611Y19891D02*
X29523D01*
X29538Y19764D01*
X29435Y19740D01*
X28964Y19545D01*
X28529Y19278D01*
X28234Y19026D01*
X28142Y18947D01*
X28140Y18945D01*
X28051Y18855D01*
X27726Y18529D01*
X27712Y18508D01*
X27382Y18238D01*
X26986Y18026D01*
X26556Y17896D01*
X26134Y17854D01*
X26110Y17859D01*
X26108Y17859D01*
X26108Y17859D01*
X26108Y17859D01*
X25159D01*
X25111Y17976D01*
X25116Y17981D01*
X25207Y18202D01*
Y18440D01*
X25116Y18661D01*
X24947Y18830D01*
X24726Y18921D01*
X24656D01*
X24402Y19175D01*
X24398Y19178D01*
X24357Y19231D01*
X24364Y19267D01*
X24488Y19353D01*
X24726D01*
X24947Y19444D01*
X25116Y19613D01*
X25187Y19785D01*
X25378Y19864D01*
X25600Y19893D01*
X25611Y19891D01*
D02*
G37*
G36*
X30439Y18980D02*
X30691D01*
X30743Y18853D01*
X30595Y18704D01*
X30450Y18453D01*
X30375Y18174D01*
Y17884D01*
X30450Y17604D01*
X30595Y17353D01*
X30800Y17149D01*
X31016Y17024D01*
Y16078D01*
X31016Y16076D01*
X31016Y16075D01*
X31015Y15949D01*
X30975Y15447D01*
X30828Y14834D01*
X30587Y14252D01*
X30258Y13714D01*
X29867Y13257D01*
X29841Y13240D01*
X29484Y12883D01*
X29484Y12883D01*
X29483Y12882D01*
X29126Y12475D01*
X28825Y12025D01*
X28586Y11540D01*
X28412Y11027D01*
X28307Y10497D01*
X28279Y10080D01*
X28271Y9957D01*
X28271Y9956D01*
X28271Y9954D01*
Y7747D01*
X28221Y7698D01*
X28130Y7477D01*
Y7468D01*
X28013Y7419D01*
X27977Y7455D01*
X27726Y7600D01*
X27446Y7675D01*
X27156D01*
X26877Y7600D01*
X26626Y7455D01*
X26421Y7250D01*
X26276Y7000D01*
X26201Y6720D01*
Y6430D01*
X26276Y6150D01*
X26421Y5900D01*
X26626Y5695D01*
X26877Y5550D01*
X27156Y5475D01*
X27446D01*
X27726Y5550D01*
X27977Y5695D01*
X28181Y5900D01*
X28326Y6150D01*
X28401Y6430D01*
Y6707D01*
X28435Y6744D01*
X28512Y6799D01*
X28611Y6758D01*
X28849D01*
X29070Y6849D01*
X29239Y7018D01*
X29330Y7238D01*
Y7477D01*
X29239Y7698D01*
X29189Y7747D01*
Y9955D01*
X29189Y9956D01*
X29189Y9956D01*
X29189Y9957D01*
X29184Y9979D01*
X29222Y10461D01*
X29341Y10953D01*
X29534Y11421D01*
X29799Y11852D01*
X30047Y12143D01*
X30133Y12234D01*
X30133Y12234D01*
X30223Y12324D01*
X30400Y12501D01*
X30491Y12589D01*
X30492Y12591D01*
X30573Y12683D01*
X30917Y13076D01*
X31275Y13612D01*
X31560Y14190D01*
X31768Y14800D01*
X31893Y15432D01*
X31936Y16075D01*
X31936D01*
X31934Y16077D01*
Y17024D01*
X32150Y17149D01*
X32264Y17262D01*
X32391Y17210D01*
Y12318D01*
X32391Y12316D01*
X32390Y12315D01*
X32430Y11699D01*
X32551Y11094D01*
X32749Y10509D01*
X33022Y9956D01*
X33365Y9442D01*
X33691Y9070D01*
X33772Y8978D01*
X33774Y8977D01*
X33864Y8888D01*
X35294Y7458D01*
X35250Y7295D01*
Y7005D01*
X35325Y6725D01*
X35470Y6475D01*
X35675Y6270D01*
X35843Y6173D01*
X35815Y6042D01*
X35499Y6011D01*
X35147Y5904D01*
X34823Y5731D01*
X34634Y5576D01*
X34539Y5498D01*
X34539Y5498D01*
X34449Y5408D01*
X34135Y5094D01*
X33945Y5145D01*
X33675D01*
X33414Y5075D01*
X33181Y4940D01*
X32990Y4749D01*
X32855Y4516D01*
X32785Y4255D01*
Y3985D01*
X32855Y3724D01*
X32990Y3491D01*
X33122Y3358D01*
X33070Y3231D01*
X32010D01*
X31958Y3358D01*
X32090Y3491D01*
X32225Y3724D01*
X32295Y3985D01*
Y4255D01*
X32225Y4516D01*
X32090Y4749D01*
X31899Y4940D01*
X31666Y5075D01*
X31405Y5145D01*
X31135D01*
X30874Y5075D01*
X30641Y4940D01*
X30450Y4749D01*
X30315Y4516D01*
X30245Y4255D01*
Y3985D01*
X30315Y3724D01*
X30450Y3491D01*
X30582Y3358D01*
X30530Y3231D01*
X29470D01*
X29418Y3358D01*
X29550Y3491D01*
X29685Y3724D01*
X29755Y3985D01*
Y4255D01*
X29685Y4516D01*
X29550Y4749D01*
X29359Y4940D01*
X29126Y5075D01*
X28865Y5145D01*
X28595D01*
X28334Y5075D01*
X28101Y4940D01*
X27910Y4749D01*
X27775Y4516D01*
X27705Y4255D01*
Y3985D01*
X27775Y3724D01*
X27910Y3491D01*
X28042Y3358D01*
X27990Y3231D01*
X21850Y3231D01*
X21798Y3358D01*
X21930Y3491D01*
X22065Y3724D01*
X22135Y3985D01*
Y4255D01*
X22065Y4516D01*
X21930Y4749D01*
X21739Y4940D01*
X21506Y5075D01*
X21245Y5145D01*
X20975D01*
X20714Y5075D01*
X20481Y4940D01*
X20290Y4749D01*
X20155Y4516D01*
X20085Y4255D01*
Y3985D01*
X20155Y3724D01*
X20290Y3491D01*
X20422Y3358D01*
X20370Y3231D01*
X19310D01*
X19258Y3358D01*
X19390Y3491D01*
X19525Y3724D01*
X19595Y3985D01*
Y4255D01*
X19525Y4516D01*
X19390Y4749D01*
X19199Y4940D01*
X18966Y5075D01*
X18705Y5145D01*
X18435D01*
X18174Y5075D01*
X17941Y4940D01*
X17750Y4749D01*
X17615Y4516D01*
X17545Y4255D01*
Y3985D01*
X17615Y3724D01*
X17750Y3491D01*
X17882Y3358D01*
X17830Y3231D01*
X16770D01*
X16718Y3358D01*
X16850Y3491D01*
X16985Y3724D01*
X17055Y3985D01*
Y4255D01*
X16985Y4516D01*
X16850Y4749D01*
X16659Y4940D01*
X16572Y4990D01*
Y5314D01*
X16526Y5549D01*
X16393Y5747D01*
X11043Y11097D01*
X11095Y11224D01*
X12170D01*
Y11889D01*
X12187Y11975D01*
Y13017D01*
X12205Y13061D01*
Y13121D01*
X12217Y13180D01*
Y13350D01*
X13670D01*
Y14832D01*
X16273Y17435D01*
X16400Y17382D01*
Y17244D01*
X16491Y17024D01*
X16660Y16855D01*
X16881Y16764D01*
X17119D01*
X17340Y16855D01*
X17408Y16923D01*
X22928D01*
X23140Y16835D01*
X23379D01*
X23599Y16926D01*
X23614Y16941D01*
X25983D01*
X26109Y16940D01*
X26232Y16950D01*
X26610Y16980D01*
X27099Y17097D01*
X27563Y17289D01*
X27992Y17552D01*
X28282Y17799D01*
X28374Y17878D01*
X28375Y17880D01*
X28464Y17970D01*
X28790Y18296D01*
X28804Y18317D01*
X29141Y18593D01*
X29545Y18809D01*
X29983Y18942D01*
X30414Y18985D01*
X30439Y18980D01*
D02*
G37*
G36*
X34996Y17106D02*
X35083Y17015D01*
Y17015D01*
X35083Y17015D01*
X35433Y16728D01*
X35833Y16515D01*
X36266Y16383D01*
X36716Y16339D01*
Y16339D01*
X36717Y16341D01*
X36719Y16341D01*
X37521D01*
X37547Y16346D01*
X37894Y16301D01*
X38241Y16157D01*
X38519Y15944D01*
X38533Y15922D01*
X42240Y12216D01*
X42175Y11974D01*
Y11685D01*
X42240Y11443D01*
X37501Y6704D01*
X37387Y6770D01*
X37450Y7005D01*
Y7295D01*
X37375Y7575D01*
X37230Y7825D01*
X37025Y8030D01*
X36775Y8175D01*
X36495Y8250D01*
X36205D01*
X35925Y8175D01*
X35893Y8157D01*
X34423Y9627D01*
X34399Y9643D01*
X34028Y10077D01*
X33716Y10586D01*
X33487Y11138D01*
X33348Y11719D01*
X33303Y12287D01*
X33309Y12315D01*
X33309Y12317D01*
X33309Y12317D01*
X33309Y12317D01*
Y18138D01*
X33308Y18141D01*
X33275Y18483D01*
X33203Y18720D01*
X33315Y18787D01*
X34996Y17106D01*
D02*
G37*
G36*
X15349Y5061D02*
Y4888D01*
X15210Y4749D01*
X15075Y4516D01*
X15005Y4255D01*
Y3985D01*
X15075Y3724D01*
X15090Y3698D01*
X15088Y3696D01*
X14982Y3627D01*
X14527Y4081D01*
Y4532D01*
X14479Y4771D01*
X14344Y4974D01*
X14141Y5109D01*
X13903Y5157D01*
X13078D01*
X12839Y5109D01*
X12636Y4974D01*
X12501Y4771D01*
X12453Y4532D01*
Y3707D01*
X12501Y3469D01*
X12636Y3266D01*
X12839Y3131D01*
X13078Y3083D01*
X13529D01*
X13983Y2628D01*
X13983Y2627D01*
X13982Y2626D01*
X14310Y2346D01*
X14681Y2119D01*
X14974Y1997D01*
X14949Y1870D01*
X14644D01*
X14517Y1870D01*
X14517Y1870D01*
X14517Y1870D01*
X14391Y1875D01*
X14045Y1902D01*
X13590Y2011D01*
X13158Y2190D01*
X12758Y2435D01*
X12417Y2726D01*
X12406Y2743D01*
X11852Y3297D01*
X11830Y3311D01*
X11349Y3850D01*
X10915Y4461D01*
X10553Y5116D01*
X10267Y5808D01*
X10060Y6527D01*
X9934Y7265D01*
X9894Y7988D01*
X9899Y8014D01*
X9899Y8015D01*
X9899Y8016D01*
X9899Y8016D01*
Y10337D01*
X10026Y10384D01*
X15349Y5061D01*
D02*
G37*
%LPC*%
G36*
X57148Y28908D02*
X56852D01*
X56813Y28900D01*
X56773D01*
X56483Y28842D01*
X56446Y28827D01*
X56406Y28819D01*
X56133Y28706D01*
X56100Y28684D01*
X56063Y28668D01*
X55817Y28504D01*
X55789Y28476D01*
X55755Y28454D01*
X55546Y28245D01*
X55524Y28211D01*
X55496Y28183D01*
X55332Y27937D01*
X55316Y27900D01*
X55294Y27867D01*
X55181Y27594D01*
X55173Y27554D01*
X55158Y27517D01*
X55100Y27227D01*
Y27187D01*
X55092Y27148D01*
Y26852D01*
X55100Y26813D01*
Y26773D01*
X55158Y26483D01*
X55173Y26446D01*
X55181Y26406D01*
X55294Y26133D01*
X55316Y26100D01*
X55332Y26063D01*
X55496Y25817D01*
X55524Y25789D01*
X55546Y25755D01*
X55755Y25546D01*
X55789Y25524D01*
X55817Y25496D01*
X56063Y25332D01*
X56100Y25316D01*
X56133Y25294D01*
X56406Y25181D01*
X56446Y25173D01*
X56483Y25158D01*
X56773Y25100D01*
X56813D01*
X56852Y25092D01*
X57148D01*
X57187Y25100D01*
X57227D01*
X57517Y25158D01*
X57554Y25173D01*
X57594Y25181D01*
X57867Y25294D01*
X57900Y25316D01*
X57937Y25332D01*
X58183Y25496D01*
X58211Y25524D01*
X58245Y25546D01*
X58454Y25755D01*
X58476Y25789D01*
X58504Y25817D01*
X58668Y26063D01*
X58684Y26100D01*
X58706Y26133D01*
X58819Y26406D01*
X58827Y26446D01*
X58842Y26483D01*
X58900Y26773D01*
Y26813D01*
X58908Y26852D01*
Y27148D01*
X58900Y27187D01*
Y27227D01*
X58842Y27517D01*
X58827Y27554D01*
X58819Y27594D01*
X58706Y27867D01*
X58684Y27900D01*
X58668Y27937D01*
X58504Y28183D01*
X58476Y28211D01*
X58454Y28245D01*
X58245Y28454D01*
X58211Y28476D01*
X58183Y28504D01*
X57937Y28668D01*
X57900Y28684D01*
X57867Y28706D01*
X57594Y28819D01*
X57554Y28827D01*
X57517Y28842D01*
X57227Y28900D01*
X57187D01*
X57148Y28908D01*
D02*
G37*
G36*
X3148D02*
X2852D01*
X2813Y28900D01*
X2773D01*
X2483Y28842D01*
X2446Y28827D01*
X2406Y28819D01*
X2133Y28706D01*
X2100Y28684D01*
X2063Y28668D01*
X1817Y28504D01*
X1789Y28476D01*
X1755Y28454D01*
X1546Y28245D01*
X1524Y28211D01*
X1496Y28183D01*
X1332Y27937D01*
X1316Y27900D01*
X1294Y27867D01*
X1181Y27594D01*
X1173Y27554D01*
X1158Y27517D01*
X1100Y27227D01*
Y27187D01*
X1092Y27148D01*
Y26852D01*
X1100Y26813D01*
Y26773D01*
X1158Y26483D01*
X1173Y26446D01*
X1181Y26406D01*
X1294Y26133D01*
X1316Y26100D01*
X1332Y26063D01*
X1496Y25817D01*
X1524Y25789D01*
X1546Y25755D01*
X1755Y25546D01*
X1789Y25524D01*
X1817Y25496D01*
X2063Y25332D01*
X2100Y25316D01*
X2133Y25294D01*
X2406Y25181D01*
X2446Y25173D01*
X2483Y25158D01*
X2773Y25100D01*
X2813D01*
X2852Y25092D01*
X3148D01*
X3187Y25100D01*
X3227D01*
X3517Y25158D01*
X3554Y25173D01*
X3594Y25181D01*
X3867Y25294D01*
X3900Y25316D01*
X3937Y25332D01*
X4183Y25496D01*
X4211Y25524D01*
X4245Y25546D01*
X4454Y25755D01*
X4476Y25789D01*
X4504Y25817D01*
X4668Y26063D01*
X4684Y26100D01*
X4706Y26133D01*
X4819Y26406D01*
X4827Y26446D01*
X4842Y26483D01*
X4900Y26773D01*
Y26813D01*
X4908Y26852D01*
Y27148D01*
X4900Y27187D01*
Y27227D01*
X4842Y27517D01*
X4827Y27554D01*
X4819Y27594D01*
X4706Y27867D01*
X4684Y27900D01*
X4668Y27937D01*
X4504Y28183D01*
X4476Y28211D01*
X4454Y28245D01*
X4245Y28454D01*
X4211Y28476D01*
X4183Y28504D01*
X3937Y28668D01*
X3900Y28684D01*
X3867Y28706D01*
X3594Y28819D01*
X3554Y28827D01*
X3517Y28842D01*
X3227Y28900D01*
X3187D01*
X3148Y28908D01*
D02*
G37*
G36*
X30770Y25275D02*
X30480D01*
X30200Y25200D01*
X29950Y25055D01*
X29745Y24850D01*
X29600Y24600D01*
X29525Y24320D01*
Y24030D01*
X29600Y23750D01*
X29745Y23500D01*
X29950Y23295D01*
X30200Y23150D01*
X30480Y23075D01*
X30770D01*
X31050Y23150D01*
X31300Y23295D01*
X31505Y23500D01*
X31650Y23750D01*
X31725Y24030D01*
Y24320D01*
X31650Y24600D01*
X31505Y24850D01*
X31300Y25055D01*
X31050Y25200D01*
X30770Y25275D01*
D02*
G37*
G36*
X46655Y7791D02*
X46365D01*
X46085Y7716D01*
X45835Y7572D01*
X45630Y7367D01*
X45485Y7116D01*
X45410Y6836D01*
Y6547D01*
X45485Y6267D01*
X45630Y6016D01*
X45835Y5811D01*
X46085Y5666D01*
X46365Y5591D01*
X46655D01*
X46935Y5666D01*
X47185Y5811D01*
X47390Y6016D01*
X47535Y6267D01*
X47610Y6547D01*
Y6836D01*
X47535Y7116D01*
X47390Y7367D01*
X47185Y7572D01*
X46935Y7716D01*
X46655Y7791D01*
D02*
G37*
G36*
X44145D02*
X43855D01*
X43575Y7716D01*
X43325Y7572D01*
X43120Y7367D01*
X42975Y7116D01*
X42900Y6836D01*
Y6547D01*
X42975Y6267D01*
X43120Y6016D01*
X43325Y5811D01*
X43575Y5666D01*
X43855Y5591D01*
X44145D01*
X44425Y5666D01*
X44675Y5811D01*
X44880Y6016D01*
X45025Y6267D01*
X45100Y6547D01*
Y6836D01*
X45025Y7116D01*
X44880Y7367D01*
X44675Y7572D01*
X44425Y7716D01*
X44145Y7791D01*
D02*
G37*
G36*
X5595Y7450D02*
X5305D01*
X5025Y7375D01*
X4775Y7230D01*
X4570Y7025D01*
X4425Y6774D01*
X4350Y6495D01*
Y6205D01*
X4425Y5925D01*
X4570Y5674D01*
X4775Y5470D01*
X5025Y5325D01*
X5305Y5250D01*
X5595D01*
X5875Y5325D01*
X6125Y5470D01*
X6330Y5674D01*
X6475Y5925D01*
X6550Y6205D01*
Y6495D01*
X6475Y6774D01*
X6330Y7025D01*
X6125Y7230D01*
X5875Y7375D01*
X5595Y7450D01*
D02*
G37*
G36*
X57148Y4908D02*
X56852D01*
X56813Y4900D01*
X56773D01*
X56483Y4842D01*
X56446Y4827D01*
X56406Y4819D01*
X56133Y4706D01*
X56100Y4684D01*
X56063Y4668D01*
X55817Y4504D01*
X55789Y4476D01*
X55755Y4454D01*
X55546Y4245D01*
X55524Y4211D01*
X55496Y4183D01*
X55332Y3937D01*
X55316Y3900D01*
X55294Y3867D01*
X55181Y3594D01*
X55173Y3554D01*
X55158Y3517D01*
X55100Y3227D01*
Y3187D01*
X55092Y3148D01*
Y2852D01*
X55100Y2813D01*
Y2773D01*
X55158Y2483D01*
X55173Y2446D01*
X55181Y2406D01*
X55294Y2133D01*
X55316Y2100D01*
X55332Y2063D01*
X55496Y1817D01*
X55524Y1789D01*
X55546Y1755D01*
X55755Y1546D01*
X55789Y1524D01*
X55817Y1496D01*
X56063Y1332D01*
X56100Y1316D01*
X56133Y1294D01*
X56406Y1181D01*
X56446Y1173D01*
X56483Y1158D01*
X56773Y1100D01*
X56813D01*
X56852Y1092D01*
X57148D01*
X57187Y1100D01*
X57227D01*
X57517Y1158D01*
X57554Y1173D01*
X57594Y1181D01*
X57867Y1294D01*
X57900Y1316D01*
X57937Y1332D01*
X58183Y1496D01*
X58211Y1524D01*
X58245Y1546D01*
X58454Y1755D01*
X58476Y1789D01*
X58504Y1817D01*
X58668Y2063D01*
X58684Y2100D01*
X58706Y2133D01*
X58819Y2406D01*
X58827Y2446D01*
X58842Y2483D01*
X58900Y2773D01*
Y2813D01*
X58908Y2852D01*
Y3148D01*
X58900Y3187D01*
Y3227D01*
X58842Y3517D01*
X58827Y3554D01*
X58819Y3594D01*
X58706Y3867D01*
X58684Y3900D01*
X58668Y3937D01*
X58504Y4183D01*
X58476Y4211D01*
X58454Y4245D01*
X58245Y4454D01*
X58211Y4476D01*
X58183Y4504D01*
X57937Y4668D01*
X57900Y4684D01*
X57867Y4706D01*
X57594Y4819D01*
X57554Y4827D01*
X57517Y4842D01*
X57227Y4900D01*
X57187D01*
X57148Y4908D01*
D02*
G37*
G36*
X3148D02*
X2852D01*
X2813Y4900D01*
X2773D01*
X2483Y4842D01*
X2446Y4827D01*
X2406Y4819D01*
X2133Y4706D01*
X2100Y4684D01*
X2063Y4668D01*
X1817Y4504D01*
X1789Y4476D01*
X1755Y4454D01*
X1546Y4245D01*
X1524Y4211D01*
X1496Y4183D01*
X1332Y3937D01*
X1316Y3900D01*
X1294Y3867D01*
X1181Y3594D01*
X1173Y3554D01*
X1158Y3517D01*
X1100Y3227D01*
Y3187D01*
X1092Y3148D01*
Y2852D01*
X1100Y2813D01*
Y2773D01*
X1158Y2483D01*
X1173Y2446D01*
X1181Y2406D01*
X1294Y2133D01*
X1316Y2100D01*
X1332Y2063D01*
X1496Y1817D01*
X1524Y1789D01*
X1546Y1755D01*
X1755Y1546D01*
X1789Y1524D01*
X1817Y1496D01*
X2063Y1332D01*
X2100Y1316D01*
X2133Y1294D01*
X2406Y1181D01*
X2446Y1173D01*
X2483Y1158D01*
X2773Y1100D01*
X2813D01*
X2852Y1092D01*
X3148D01*
X3187Y1100D01*
X3227D01*
X3517Y1158D01*
X3554Y1173D01*
X3594Y1181D01*
X3867Y1294D01*
X3900Y1316D01*
X3937Y1332D01*
X4183Y1496D01*
X4211Y1524D01*
X4245Y1546D01*
X4454Y1755D01*
X4476Y1789D01*
X4504Y1817D01*
X4668Y2063D01*
X4684Y2100D01*
X4706Y2133D01*
X4819Y2406D01*
X4827Y2446D01*
X4842Y2483D01*
X4900Y2773D01*
Y2813D01*
X4908Y2852D01*
Y3148D01*
X4900Y3187D01*
Y3227D01*
X4842Y3517D01*
X4827Y3554D01*
X4819Y3594D01*
X4706Y3867D01*
X4684Y3900D01*
X4668Y3937D01*
X4504Y4183D01*
X4476Y4211D01*
X4454Y4245D01*
X4245Y4454D01*
X4211Y4476D01*
X4183Y4504D01*
X3937Y4668D01*
X3900Y4684D01*
X3867Y4706D01*
X3594Y4819D01*
X3554Y4827D01*
X3517Y4842D01*
X3227Y4900D01*
X3187D01*
X3148Y4908D01*
D02*
G37*
G36*
X29345Y17827D02*
X29055D01*
X28775Y17752D01*
X28525Y17607D01*
X28320Y17403D01*
X28175Y17152D01*
X28100Y16872D01*
Y16582D01*
X28175Y16303D01*
X28320Y16052D01*
X28525Y15847D01*
X28775Y15702D01*
X29055Y15627D01*
X29345D01*
X29625Y15702D01*
X29875Y15847D01*
X30080Y16052D01*
X30225Y16303D01*
X30300Y16582D01*
Y16872D01*
X30225Y17152D01*
X30080Y17403D01*
X29875Y17607D01*
X29625Y17752D01*
X29345Y17827D01*
D02*
G37*
G36*
X16452Y15150D02*
X16163D01*
X15883Y15075D01*
X15632Y14930D01*
X15427Y14725D01*
X15282Y14475D01*
X15208Y14195D01*
Y13905D01*
X15282Y13625D01*
X15427Y13375D01*
X15632Y13170D01*
X15883Y13025D01*
X16163Y12950D01*
X16452D01*
X16732Y13025D01*
X16983Y13170D01*
X17188Y13375D01*
X17333Y13625D01*
X17408Y13905D01*
Y14195D01*
X17333Y14475D01*
X17188Y14725D01*
X16983Y14930D01*
X16732Y15075D01*
X16452Y15150D01*
D02*
G37*
G36*
X18187Y13016D02*
X17898D01*
X17618Y12941D01*
X17367Y12796D01*
X17162Y12591D01*
X17017Y12341D01*
X16942Y12061D01*
Y11771D01*
X17017Y11491D01*
X17162Y11241D01*
X17367Y11036D01*
X17618Y10891D01*
X17898Y10816D01*
X18187D01*
X18467Y10891D01*
X18718Y11036D01*
X18923Y11241D01*
X19067Y11491D01*
X19142Y11771D01*
Y12061D01*
X19067Y12341D01*
X18923Y12591D01*
X18718Y12796D01*
X18467Y12941D01*
X18187Y13016D01*
D02*
G37*
G36*
X17206Y10250D02*
X16917D01*
X16637Y10175D01*
X16386Y10030D01*
X16181Y9825D01*
X16036Y9575D01*
X15961Y9295D01*
Y9005D01*
X16036Y8725D01*
X16181Y8475D01*
X16386Y8270D01*
X16637Y8125D01*
X16917Y8050D01*
X17206D01*
X17486Y8125D01*
X17737Y8270D01*
X17942Y8475D01*
X18086Y8725D01*
X18161Y9005D01*
Y9295D01*
X18086Y9575D01*
X17942Y9825D01*
X17737Y10030D01*
X17486Y10175D01*
X17206Y10250D01*
D02*
G37*
%LPD*%
D10*
X14482Y3128D02*
G03*
X15940Y2525I1458J1462D01*
G01*
X36522Y2525D02*
G03*
X36523Y2525I-1J1870D01*
G01*
D02*
G03*
X37843Y3073I-3J1870D01*
G01*
X27467Y28575D02*
G03*
X23523Y26941I0J-5576D01*
G01*
X13815Y3795D02*
X14482Y3128D01*
X13490Y4120D02*
X13815Y3795D01*
X15940Y2525D02*
X36522Y2525D01*
X37843Y3073D02*
X38890Y4120D01*
X27467Y28575D02*
X30687D01*
X22032Y25450D02*
X23523Y26941D01*
X22032Y25450D02*
Y25450D01*
D11*
X5567Y10850D02*
G03*
X3107Y9831I0J-3480D01*
G01*
X23978Y22325D02*
G03*
X21777Y21414I0J-3112D01*
G01*
X18739Y18471D02*
G03*
X19068Y18704I-527J1091D01*
G01*
X47009Y20941D02*
G03*
X43664Y22325I-3345J-3349D01*
G01*
X16813Y18350D02*
G03*
X15977Y18004I0J-1182D01*
G01*
X5567Y10850D02*
X5569Y10850D01*
X7548D01*
X2426Y9150D02*
X3107Y9831D01*
X23978Y22325D02*
X23980Y22325D01*
X43664D01*
X19068Y18704D02*
X21777Y21414D01*
X18212Y18350D02*
X18739Y18471D01*
X47009Y20941D02*
X48150Y19800D01*
X16813Y18350D02*
X18212Y18350D01*
X13225Y15252D02*
X15977Y18004D01*
X15961Y4189D02*
X16030Y4120D01*
X15961Y4189D02*
Y5314D01*
X10425Y10850D02*
X15961Y5314D01*
X11575Y11975D02*
Y13150D01*
X11605Y13180D01*
Y13695D01*
X11575Y13725D02*
X11605Y13695D01*
D12*
X23750Y19645D02*
G03*
X24077Y18851I1122J-2D01*
G01*
X24038Y20851D02*
G03*
X23750Y20155I697J-696D01*
G01*
X24941Y21225D02*
G03*
X24038Y20851I0J-1277D01*
G01*
X33413Y20607D02*
G03*
X31921Y21225I-1494J-1494D01*
G01*
X36513Y5588D02*
G03*
X37402Y5957I0J1256D01*
G01*
X35864Y5588D02*
G03*
X34863Y5173I0J-1415D01*
G01*
X40340Y725D02*
G03*
X45215Y2745I0J6892D01*
G01*
X11476Y1959D02*
G03*
X14456Y725I2980J2980D01*
G01*
X38824Y1412D02*
G03*
X42857Y3082I0J5704D01*
G01*
X12082Y2418D02*
G03*
X14517Y1412I2430J2430D01*
G01*
X7390Y19015D02*
G03*
X6833Y19246I-557J-557D01*
G01*
X7837Y17088D02*
G03*
X6842Y17500I-995J-995D01*
G01*
X8525Y7959D02*
G03*
X10681Y2754I7362J-0D01*
G01*
X9440Y16357D02*
G03*
X9207Y17118I-1360J0D01*
G01*
X9440Y8014D02*
G03*
X11528Y2972I7128J-2D01*
G01*
X2764Y17910D02*
G03*
X3511Y17600I748J749D01*
G01*
X2167Y19277D02*
G03*
X2709Y17965I1856J-1D01*
G01*
X2644Y22568D02*
G03*
X2167Y21418I1147J-1150D01*
G01*
X4018Y23350D02*
G03*
X3006Y22930I0J-1429D01*
G01*
X18712Y22452D02*
G03*
X16541Y23350I-2172J-2177D01*
G01*
X3273Y21924D02*
G03*
X3125Y21567I357J-357D01*
G01*
X3916Y22325D02*
G03*
X3503Y22154I0J-585D01*
G01*
X9480Y20270D02*
G03*
X11314Y19510I1834J1834D01*
G01*
X8110Y21640D02*
G03*
X6455Y22325I-1655J-1656D01*
G01*
X16271Y19510D02*
G03*
X18212Y20314I0J2745D01*
G01*
X39459Y17306D02*
G03*
X40113Y17035I655J655D01*
G01*
X39209Y17556D02*
G03*
X38438Y17875I-772J-772D01*
G01*
X35452Y18567D02*
G03*
X37126Y17875I1672J1672D01*
G01*
X32791Y19960D02*
G03*
X31849Y20350I-941J-942D01*
G01*
X25611D02*
G03*
X24857Y20120I0J-1355D01*
G01*
X35410Y17341D02*
G03*
X36716Y16800I1307J1307D01*
G01*
X38858Y16247D02*
G03*
X37521Y16800I-1336J-1337D01*
G01*
X32850Y12315D02*
G03*
X34099Y9302I4259J0D01*
G01*
X32464Y19066D02*
G03*
X31562Y19439I-903J-908D01*
G01*
X32850Y18138D02*
G03*
X32464Y19066I-1310J0D01*
G01*
X29809Y12559D02*
G03*
X28730Y9957I2599J-2602D01*
G01*
X30165Y12915D02*
G03*
X31475Y16075I-3157J3160D01*
G01*
X26109Y17400D02*
G03*
X28050Y18205I0J2743D01*
G01*
X30439Y19439D02*
G03*
X28466Y18620I0J-2789D01*
G01*
X19485Y20396D02*
G03*
X19522Y20606I-462J190D01*
G01*
X19522D02*
G03*
X18712Y22452I-2769J-114D01*
G01*
X17018Y17382D02*
X23206D01*
X23260Y17435D01*
X23294Y17400D02*
X26108D01*
X23260Y17435D02*
X23294Y17400D01*
X17000Y17364D02*
X17018Y17382D01*
X15620Y26575D02*
X15646Y26549D01*
Y24400D02*
Y26549D01*
X24077Y18851D02*
X24607Y18321D01*
X23750Y19645D02*
Y20155D01*
X24941Y21225D02*
X24943Y21225D01*
X31921D01*
X37402Y5957D02*
X43275Y11829D01*
X35866Y5588D02*
X36512D01*
X36513Y5588D01*
X35864D02*
X35866Y5588D01*
X33810Y4120D02*
X34863Y5173D01*
X14457Y725D02*
X40338D01*
X45215Y2745D02*
X46510Y4040D01*
X40338Y725D02*
X40340Y725D01*
X46510Y4040D02*
Y4120D01*
X14456Y725D02*
X14457Y725D01*
X11473Y1962D02*
X11476Y1959D01*
X38822Y1412D02*
X38824Y1412D01*
X14517Y1412D02*
X38822D01*
X42857Y3082D02*
X43895Y4120D01*
X43970D01*
X6452Y19246D02*
X6833Y19246D01*
X6302Y19305D02*
X6452Y19246D01*
X7390Y19015D02*
X9042Y17364D01*
X6302Y19221D02*
Y21063D01*
X8475Y16400D02*
Y16450D01*
X6452Y17500D02*
X6842Y17500D01*
X6302Y17561D02*
X6452Y17500D01*
X7837Y17088D02*
X8475Y16450D01*
Y16400D02*
X8525Y16350D01*
X6301Y16182D02*
Y17243D01*
X10681Y2754D02*
X10683Y2752D01*
X8525Y7959D02*
X8525Y7962D01*
X6300Y15807D02*
Y16189D01*
X9440Y8016D02*
Y15991D01*
X9440Y16357D02*
X9440Y15991D01*
X9042Y17364D02*
X9207Y17118D01*
X9440Y8014D02*
X9440Y8016D01*
X11528Y2972D02*
X12082Y2418D01*
X10683Y2752D02*
X11473Y1962D01*
X8525Y7962D02*
Y16350D01*
X3511Y17600D02*
X4152Y17600D01*
X4302D01*
X2709Y17965D02*
X2764Y17910D01*
X2167Y19277D02*
X2167Y19281D01*
Y21416D01*
X2167Y21418D02*
X2167Y21416D01*
X2644Y22568D02*
X3006Y22930D01*
X4018Y23350D02*
X16538D01*
X16541Y23350D01*
X3273Y21924D02*
X3503Y22154D01*
X3418Y19333D02*
X4302D01*
X3125Y19626D02*
X3418Y19333D01*
X3125Y21567D02*
X3125Y19626D01*
X3916Y22325D02*
X6455D01*
X8113Y21638D02*
X9478Y20272D01*
X11314Y19510D02*
X11316Y19510D01*
X16269D01*
X9478Y20272D02*
X9480Y20270D01*
X8110Y21640D02*
X8113Y21638D01*
X16269Y19510D02*
X16271Y19510D01*
X39209Y17556D02*
X39459Y17306D01*
X40113Y17035D02*
X43421Y17035D01*
X37126Y17875D02*
X38438D01*
X33413Y20607D02*
X33413D01*
X35452Y18567D01*
X25611Y20350D02*
X31849D01*
X32792Y19958D02*
X35407Y17344D01*
X32791Y19960D02*
X32792Y19958D01*
X24607Y19953D02*
X24857Y20120D01*
X24607Y19953D02*
X24653Y19953D01*
X35407Y17344D02*
X35410Y17341D01*
X36716Y16800D02*
X36718Y16800D01*
X37521D01*
X38858Y16247D02*
X38860Y16245D01*
X43275Y11829D01*
X34099Y9302D02*
X36251Y7150D01*
X32850Y12315D02*
X32850Y12317D01*
Y18138D01*
X36251Y7150D02*
X36350D01*
X31559Y19439D02*
X31562Y19439D01*
X29809Y12559D02*
X30165Y12915D01*
X28730Y9957D02*
X28730Y9955D01*
Y7358D02*
Y9955D01*
X31475Y16075D02*
X31475Y16077D01*
Y18029D01*
X30439Y19439D02*
X31559Y19439D01*
X28050Y18205D02*
X28466Y18620D01*
X26108Y17400D02*
X26109Y17400D01*
X19482Y20389D02*
X19485Y20396D01*
X11575Y13725D02*
X12225Y14375D01*
X12375D02*
X13225Y15225D01*
X12225Y14375D02*
X12375D01*
X13225Y15225D02*
Y15252D01*
X15646Y21310D02*
X16822D01*
X14528D02*
X15646D01*
Y22300D01*
X14525Y21313D02*
X14528Y21310D01*
X16822D02*
X16825Y21307D01*
D13*
X12220Y14650D02*
D03*
Y21550D02*
D03*
D14*
X15646Y24400D02*
D03*
Y22300D02*
D03*
D15*
X13570Y12049D02*
D03*
X11570D02*
D03*
X4302Y21063D02*
D03*
X6302D02*
D03*
X6302Y19305D02*
D03*
X4302D02*
D03*
X6302Y17561D02*
D03*
X4302D02*
D03*
X4300Y15807D02*
D03*
X6300D02*
D03*
X13620Y26575D02*
D03*
X15620D02*
D03*
D16*
X27301Y6575D02*
D03*
X2426Y9150D02*
D03*
X31475Y18029D02*
D03*
X30687Y28575D02*
D03*
X17061Y9150D02*
D03*
X46510Y6691D02*
D03*
X48225Y19800D02*
D03*
X5450Y6350D02*
D03*
X30625Y24175D02*
D03*
X43421Y17035D02*
D03*
X55175Y7150D02*
D03*
X48939Y9100D02*
D03*
X36251Y19850D02*
D03*
X36350Y7150D02*
D03*
X18042Y11916D02*
D03*
X16308Y14050D02*
D03*
X29200Y16727D02*
D03*
X43275Y11829D02*
D03*
X44000Y6691D02*
D03*
D17*
X58000Y9400D02*
D03*
Y21400D02*
D03*
D18*
X26190Y4120D02*
D03*
X23650D02*
D03*
X21110D02*
D03*
X16030D02*
D03*
X18570D02*
D03*
X28730D02*
D03*
X31270D02*
D03*
X33810D02*
D03*
X36350D02*
D03*
X38890D02*
D03*
X41430D02*
D03*
X43970D02*
D03*
X46510D02*
D03*
D19*
X13490D02*
D03*
D20*
X23260Y17435D02*
D03*
X14075Y22450D02*
D03*
X19482Y20389D02*
D03*
X9225Y22200D02*
D03*
X20028Y24832D02*
D03*
X8475Y16400D02*
D03*
X7548Y10850D02*
D03*
X11605Y13180D02*
D03*
X20725Y20361D02*
D03*
X18212Y18350D02*
D03*
X10425Y10850D02*
D03*
X9042Y17364D02*
D03*
X16825Y21307D02*
D03*
X14525Y21313D02*
D03*
X18212Y20361D02*
D03*
X17000Y17364D02*
D03*
X30839Y11929D02*
D03*
Y10273D02*
D03*
X28730Y7358D02*
D03*
X24607Y18321D02*
D03*
Y19953D02*
D03*
X22032Y25450D02*
D03*
%TF.MD5,7328f25f69483ba5da95453be8cbef05*%
M02*
