%TF.GenerationSoftware,Altium Limited,Altium Designer,24.7.2 (38)*%
G04 Layer_Color=8388736*
%FSLAX43Y43*%
%MOMM*%
%TF.SameCoordinates,A6C98B59-F63B-4C8E-8392-574C2285590F*%
%TF.FilePolarity,Positive*%
%TF.FileFunction,Other,Bottom_Courtyard*%
%TF.Part,Single*%
G01*
G75*
%TA.AperFunction,NonConductor*%
%ADD35C,0.200*%
%ADD59C,0.050*%
D35*
X31850Y20575D02*
Y29575D01*
X43450D01*
Y20575D02*
Y29575D01*
X31850Y20575D02*
X43450D01*
X6746Y6825D02*
X10949D01*
X6746Y3725D02*
Y6825D01*
Y3725D02*
X10949D01*
Y6825D01*
X55825Y9100D02*
Y20700D01*
X46825D02*
X55825D01*
X46825Y9100D02*
Y20700D01*
Y9100D02*
X55825D01*
X10927Y389D02*
Y3489D01*
X6723Y389D02*
X10927D01*
X6723D02*
Y3489D01*
X10927D01*
D59*
X44000Y21125D02*
X52400D01*
Y29025D01*
X44000D02*
X52400D01*
X44000Y21125D02*
Y29025D01*
X48200Y24575D02*
Y25575D01*
X47700Y25075D02*
X48700D01*
X29500Y1350D02*
X30500D01*
X30000Y850D02*
Y1850D01*
X11870Y5145D02*
X48130D01*
X11870Y-6120D02*
Y5145D01*
Y-6120D02*
X48130D01*
Y5145D01*
%TF.MD5,8fc44c77c63e6c0189f088c3440cc2bf*%
M02*
