%TF.GenerationSoftware,Altium Limited,Altium Designer,24.7.2 (38)*%
G04 Layer_Color=0*
%FSLAX43Y43*%
%MOMM*%
%TF.SameCoordinates,A6C98B59-F63B-4C8E-8392-574C2285590F*%
%TF.FilePolarity,Positive*%
%TF.FileFunction,Profile,NP*%
%TF.Part,Single*%
G01*
G75*
%TA.AperFunction,Profile*%
%ADD60C,0.025*%
G36*
X55500Y3000D02*
Y2852D01*
X55558Y2562D01*
X55671Y2289D01*
X55835Y2044D01*
X56044Y1835D01*
X56289Y1671D01*
X56562Y1558D01*
X56852Y1500D01*
X57000D01*
X57148D01*
X57438Y1558D01*
X57711Y1671D01*
X57956Y1835D01*
X58165Y2044D01*
X58329Y2289D01*
X58442Y2562D01*
X58500Y2852D01*
Y3000D01*
Y3148D01*
X58442Y3438D01*
X58329Y3711D01*
X58165Y3956D01*
X57956Y4165D01*
X57711Y4329D01*
X57438Y4442D01*
X57148Y4500D01*
X57000D01*
X56852D01*
X56562Y4442D01*
X56289Y4329D01*
X56044Y4165D01*
X55835Y3956D01*
X55671Y3711D01*
X55558Y3438D01*
X55500Y3148D01*
Y3000D01*
D01*
D02*
G37*
G36*
Y27000D02*
Y26852D01*
X55558Y26562D01*
X55671Y26289D01*
X55835Y26044D01*
X56044Y25835D01*
X56289Y25671D01*
X56562Y25558D01*
X56852Y25500D01*
X57000D01*
X57148D01*
X57438Y25558D01*
X57711Y25671D01*
X57956Y25835D01*
X58165Y26044D01*
X58329Y26289D01*
X58442Y26562D01*
X58500Y26852D01*
Y27000D01*
Y27148D01*
X58442Y27438D01*
X58329Y27711D01*
X58165Y27956D01*
X57956Y28165D01*
X57711Y28329D01*
X57438Y28442D01*
X57148Y28500D01*
X57000D01*
X56852D01*
X56562Y28442D01*
X56289Y28329D01*
X56044Y28165D01*
X55835Y27956D01*
X55671Y27711D01*
X55558Y27438D01*
X55500Y27148D01*
Y27000D01*
D01*
D02*
G37*
G36*
X1500D02*
Y26852D01*
X1558Y26562D01*
X1671Y26289D01*
X1835Y26044D01*
X2044Y25835D01*
X2289Y25671D01*
X2562Y25558D01*
X2852Y25500D01*
X3000D01*
X3148D01*
X3438Y25558D01*
X3711Y25671D01*
X3956Y25835D01*
X4165Y26044D01*
X4329Y26289D01*
X4442Y26562D01*
X4500Y26852D01*
Y27000D01*
Y27148D01*
X4442Y27438D01*
X4329Y27711D01*
X4165Y27956D01*
X3956Y28165D01*
X3711Y28329D01*
X3438Y28442D01*
X3148Y28500D01*
X3000D01*
X2852D01*
X2562Y28442D01*
X2289Y28329D01*
X2044Y28165D01*
X1835Y27956D01*
X1671Y27711D01*
X1558Y27438D01*
X1500Y27148D01*
Y27000D01*
D01*
D02*
G37*
G36*
Y3000D02*
Y2852D01*
X1558Y2562D01*
X1671Y2289D01*
X1835Y2044D01*
X2044Y1835D01*
X2289Y1671D01*
X2562Y1558D01*
X2852Y1500D01*
X3000D01*
X3148D01*
X3438Y1558D01*
X3711Y1671D01*
X3956Y1835D01*
X4165Y2044D01*
X4329Y2289D01*
X4442Y2562D01*
X4500Y2852D01*
Y3000D01*
Y3148D01*
X4442Y3438D01*
X4329Y3711D01*
X4165Y3956D01*
X3956Y4165D01*
X3711Y4329D01*
X3438Y4442D01*
X3148Y4500D01*
X3000D01*
X2852D01*
X2562Y4442D01*
X2289Y4329D01*
X2044Y4165D01*
X1835Y3956D01*
X1671Y3711D01*
X1558Y3438D01*
X1500Y3148D01*
Y3000D01*
D01*
D02*
G37*
D60*
X0D02*
X-0Y27000D01*
D02*
G02*
X3000Y30000I3000J-0D01*
G01*
X2963Y30000D01*
X57000D01*
D02*
G02*
X60000Y27000I-0J-3000D01*
G01*
X60000Y3050D01*
X60000Y3000D01*
D02*
G02*
X57000Y0I-3000J0D01*
G01*
X2999Y-0D01*
X3000Y0D01*
D02*
G02*
X0Y3000I0J3000D01*
G01*
%TF.MD5,2c3963d177d054aa20893e234c14e800*%
M02*
