%TF.GenerationSoftware,Altium Limited,Altium Designer,24.7.2 (38)*%
G04 Layer_Color=255*
%FSLAX43Y43*%
%MOMM*%
%TF.SameCoordinates,A6C98B59-F63B-4C8E-8392-574C2285590F*%
%TF.FilePolarity,Positive*%
%TF.FileFunction,Pads,Bot*%
%TF.Part,Single*%
G01*
G75*
%TA.AperFunction,SMDPad,CuDef*%
%ADD15R,0.800X1.250*%
%TA.AperFunction,ComponentPad*%
%ADD16C,1.800*%
%ADD17O,3.000X3.100*%
%ADD18C,1.650*%
G04:AMPARAMS|DCode=19|XSize=1.65mm|YSize=1.65mm|CornerRadius=0.413mm|HoleSize=0mm|Usage=FLASHONLY|Rotation=180.000|XOffset=0mm|YOffset=0mm|HoleType=Round|Shape=RoundedRectangle|*
%AMROUNDEDRECTD19*
21,1,1.650,0.825,0,0,180.0*
21,1,0.825,1.650,0,0,180.0*
1,1,0.825,-0.413,0.413*
1,1,0.825,0.413,0.413*
1,1,0.825,0.413,-0.413*
1,1,0.825,-0.413,-0.413*
%
%ADD19ROUNDEDRECTD19*%
%TA.AperFunction,SMDPad,CuDef*%
%ADD23R,4.000X2.000*%
%ADD24R,2.200X2.500*%
%ADD25R,0.750X1.650*%
%ADD26R,2.400X2.400*%
%ADD27R,1.403X2.804*%
G04:AMPARAMS|DCode=28|XSize=0.65mm|YSize=1.65mm|CornerRadius=0.049mm|HoleSize=0mm|Usage=FLASHONLY|Rotation=0.000|XOffset=0mm|YOffset=0mm|HoleType=Round|Shape=RoundedRectangle|*
%AMROUNDEDRECTD28*
21,1,0.650,1.553,0,0,0.0*
21,1,0.553,1.650,0,0,0.0*
1,1,0.098,0.276,-0.776*
1,1,0.098,-0.276,-0.776*
1,1,0.098,-0.276,0.776*
1,1,0.098,0.276,0.776*
%
%ADD28ROUNDEDRECTD28*%
%ADD29R,2.000X4.000*%
%ADD30R,1.250X0.800*%
%ADD31R,3.000X7.500*%
%ADD32R,1.000X2.800*%
D15*
X12375Y23075D02*
D03*
X10375D02*
D03*
X12348Y21300D02*
D03*
X10348D02*
D03*
X12170Y7150D02*
D03*
X14170D02*
D03*
X31475Y15312D02*
D03*
X33475D02*
D03*
X31498Y8475D02*
D03*
X33498D02*
D03*
X33498Y13650D02*
D03*
X31498D02*
D03*
X31498Y11916D02*
D03*
X33498D02*
D03*
X33498Y10200D02*
D03*
X31498D02*
D03*
X16525Y6350D02*
D03*
X18525D02*
D03*
X20028Y23850D02*
D03*
X22028D02*
D03*
X27300Y8475D02*
D03*
X25300D02*
D03*
X25301Y10200D02*
D03*
X27301D02*
D03*
X27301Y13627D02*
D03*
X25301D02*
D03*
X25301Y11916D02*
D03*
X27301D02*
D03*
D16*
X27301Y6575D02*
D03*
X2426Y9150D02*
D03*
X31475Y18029D02*
D03*
X30687Y28575D02*
D03*
X17061Y9150D02*
D03*
X46510Y6691D02*
D03*
X48225Y19800D02*
D03*
X5450Y6350D02*
D03*
X30625Y24175D02*
D03*
X43421Y17035D02*
D03*
X55175Y7150D02*
D03*
X48939Y9100D02*
D03*
X36251Y19850D02*
D03*
X36350Y7150D02*
D03*
X18042Y11916D02*
D03*
X16308Y14050D02*
D03*
X29200Y16727D02*
D03*
X43275Y11829D02*
D03*
X44000Y6691D02*
D03*
D17*
X58000Y9400D02*
D03*
Y21400D02*
D03*
D18*
X26190Y4120D02*
D03*
X23650D02*
D03*
X21110D02*
D03*
X16030D02*
D03*
X18570D02*
D03*
X28730D02*
D03*
X31270D02*
D03*
X33810D02*
D03*
X36350D02*
D03*
X38890D02*
D03*
X41430D02*
D03*
X43970D02*
D03*
X46510D02*
D03*
D19*
X13490D02*
D03*
D23*
X41200Y25075D02*
D03*
X34100D02*
D03*
D24*
X14798Y27000D02*
D03*
X7898D02*
D03*
X24557Y27125D02*
D03*
X17657D02*
D03*
D25*
X14145Y9150D02*
D03*
X12875D02*
D03*
X11605D02*
D03*
X10335D02*
D03*
X9065D02*
D03*
X7795D02*
D03*
X6525D02*
D03*
X5255D02*
D03*
Y18850D02*
D03*
X6525D02*
D03*
X7795D02*
D03*
X9065D02*
D03*
X10335D02*
D03*
X11605D02*
D03*
X12875D02*
D03*
X14145D02*
D03*
D26*
X2167Y17000D02*
D03*
Y12119D02*
D03*
D27*
X10148Y5275D02*
D03*
X7548D02*
D03*
X7525Y1939D02*
D03*
X10125D02*
D03*
D28*
X27102Y15996D02*
D03*
X25832D02*
D03*
X24562D02*
D03*
X23292D02*
D03*
X22022D02*
D03*
X20752D02*
D03*
X19482D02*
D03*
X18212D02*
D03*
X27102Y21646D02*
D03*
X25832D02*
D03*
X24562D02*
D03*
X23292D02*
D03*
X22022D02*
D03*
X20752D02*
D03*
X19482D02*
D03*
X18212D02*
D03*
D29*
X51325Y11350D02*
D03*
Y18450D02*
D03*
D30*
X37906Y13829D02*
D03*
Y11829D02*
D03*
X27096Y26175D02*
D03*
Y24175D02*
D03*
X28850Y26175D02*
D03*
Y24175D02*
D03*
X28834Y19007D02*
D03*
Y21007D02*
D03*
X54000Y21425D02*
D03*
Y23425D02*
D03*
X41350Y17060D02*
D03*
Y15060D02*
D03*
X37906Y17060D02*
D03*
Y15060D02*
D03*
X39626Y13829D02*
D03*
Y11829D02*
D03*
X20301Y13865D02*
D03*
Y11865D02*
D03*
X22032Y11865D02*
D03*
Y13865D02*
D03*
X39625Y17060D02*
D03*
Y15060D02*
D03*
X41350Y13829D02*
D03*
Y11829D02*
D03*
X23757Y11868D02*
D03*
Y13868D02*
D03*
D31*
X45700Y25075D02*
D03*
X50700D02*
D03*
D32*
X53050Y5475D02*
D03*
X49850D02*
D03*
Y2225D02*
D03*
X53050D02*
D03*
%TF.MD5,e8d23e3df107b92f64036ce40eb2378b*%
M02*
