%TF.GenerationSoftware,Altium Limited,Altium Designer,24.7.2 (38)*%
G04 Layer_Color=16711935*
%FSLAX43Y43*%
%MOMM*%
%TF.SameCoordinates,A6C98B59-F63B-4C8E-8392-574C2285590F*%
%TF.FilePolarity,Negative*%
%TF.FileFunction,Soldermask,Bot*%
%TF.Part,Single*%
G01*
G75*
%TA.AperFunction,SMDPad,CuDef*%
%ADD23R,4.000X2.000*%
%ADD27R,1.403X2.804*%
%ADD29R,2.000X4.000*%
%ADD32R,1.000X2.800*%
%ADD40R,2.220X2.520*%
%ADD41R,0.830X1.280*%
%ADD42R,0.770X1.670*%
%ADD43R,2.420X2.420*%
G04:AMPARAMS|DCode=44|XSize=0.67mm|YSize=1.67mm|CornerRadius=0.059mm|HoleSize=0mm|Usage=FLASHONLY|Rotation=0.000|XOffset=0mm|YOffset=0mm|HoleType=Round|Shape=RoundedRectangle|*
%AMROUNDEDRECTD44*
21,1,0.670,1.553,0,0,0.0*
21,1,0.553,1.670,0,0,0.0*
1,1,0.118,0.276,-0.776*
1,1,0.118,-0.276,-0.776*
1,1,0.118,-0.276,0.776*
1,1,0.118,0.276,0.776*
%
%ADD44ROUNDEDRECTD44*%
%ADD45R,1.280X0.830*%
%ADD46R,3.020X7.520*%
%TA.AperFunction,ComponentPad*%
%ADD47C,2.003*%
%ADD48C,1.820*%
%ADD49O,3.020X3.120*%
%ADD50C,1.670*%
G04:AMPARAMS|DCode=51|XSize=1.67mm|YSize=1.67mm|CornerRadius=0.422mm|HoleSize=0mm|Usage=FLASHONLY|Rotation=180.000|XOffset=0mm|YOffset=0mm|HoleType=Round|Shape=RoundedRectangle|*
%AMROUNDEDRECTD51*
21,1,1.670,0.825,0,0,180.0*
21,1,0.825,1.670,0,0,180.0*
1,1,0.845,-0.413,0.413*
1,1,0.845,0.413,0.413*
1,1,0.845,0.413,-0.413*
1,1,0.845,-0.413,-0.413*
%
%ADD51ROUNDEDRECTD51*%
D23*
X41200Y25075D02*
D03*
X34100D02*
D03*
D27*
X10148Y5275D02*
D03*
X7548D02*
D03*
X7525Y1939D02*
D03*
X10125D02*
D03*
D29*
X51325Y11350D02*
D03*
Y18450D02*
D03*
D32*
X53050Y5475D02*
D03*
X49850D02*
D03*
Y2225D02*
D03*
X53050D02*
D03*
D40*
X14798Y27000D02*
D03*
X7898D02*
D03*
X24557Y27125D02*
D03*
X17657D02*
D03*
D41*
X12375Y23075D02*
D03*
X10375D02*
D03*
X12348Y21300D02*
D03*
X10348D02*
D03*
X12170Y7150D02*
D03*
X14170D02*
D03*
X31475Y15312D02*
D03*
X33475D02*
D03*
X31498Y8475D02*
D03*
X33498D02*
D03*
X33498Y13650D02*
D03*
X31498D02*
D03*
X31498Y11916D02*
D03*
X33498D02*
D03*
X33498Y10200D02*
D03*
X31498D02*
D03*
X16525Y6350D02*
D03*
X18525D02*
D03*
X20028Y23850D02*
D03*
X22028D02*
D03*
X27300Y8475D02*
D03*
X25300D02*
D03*
X25301Y10200D02*
D03*
X27301D02*
D03*
X27301Y13627D02*
D03*
X25301D02*
D03*
X25301Y11916D02*
D03*
X27301D02*
D03*
D42*
X14145Y9150D02*
D03*
X12875D02*
D03*
X11605D02*
D03*
X10335D02*
D03*
X9065D02*
D03*
X7795D02*
D03*
X6525D02*
D03*
X5255D02*
D03*
Y18850D02*
D03*
X6525D02*
D03*
X7795D02*
D03*
X9065D02*
D03*
X10335D02*
D03*
X11605D02*
D03*
X12875D02*
D03*
X14145D02*
D03*
D43*
X2167Y17000D02*
D03*
Y12119D02*
D03*
D44*
X27102Y15996D02*
D03*
X25832D02*
D03*
X24562D02*
D03*
X23292D02*
D03*
X22022D02*
D03*
X20752D02*
D03*
X19482D02*
D03*
X18212D02*
D03*
X27102Y21646D02*
D03*
X25832D02*
D03*
X24562D02*
D03*
X23292D02*
D03*
X22022D02*
D03*
X20752D02*
D03*
X19482D02*
D03*
X18212D02*
D03*
D45*
X37906Y13829D02*
D03*
Y11829D02*
D03*
X27096Y26175D02*
D03*
Y24175D02*
D03*
X28850Y26175D02*
D03*
Y24175D02*
D03*
X28834Y19007D02*
D03*
Y21007D02*
D03*
X54000Y21425D02*
D03*
Y23425D02*
D03*
X41350Y17060D02*
D03*
Y15060D02*
D03*
X37906Y17060D02*
D03*
Y15060D02*
D03*
X39626Y13829D02*
D03*
Y11829D02*
D03*
X20301Y13865D02*
D03*
Y11865D02*
D03*
X22032Y11865D02*
D03*
Y13865D02*
D03*
X39625Y17060D02*
D03*
Y15060D02*
D03*
X41350Y13829D02*
D03*
Y11829D02*
D03*
X23757Y11868D02*
D03*
Y13868D02*
D03*
D46*
X45700Y25075D02*
D03*
X50700D02*
D03*
D47*
X27301Y6575D02*
D03*
X30687Y28575D02*
D03*
X46510Y6691D02*
D03*
X5450Y6350D02*
D03*
X43421Y17035D02*
D03*
X55175Y7150D02*
D03*
X48939Y9100D02*
D03*
X36251Y19850D02*
D03*
X36350Y7150D02*
D03*
X18042Y11916D02*
D03*
X16308Y14050D02*
D03*
X29200Y16727D02*
D03*
X43275Y11829D02*
D03*
X44000Y6691D02*
D03*
D48*
X2426Y9150D02*
D03*
X31475Y18029D02*
D03*
X17061Y9150D02*
D03*
X48225Y19800D02*
D03*
X30625Y24175D02*
D03*
D49*
X58000Y9400D02*
D03*
Y21400D02*
D03*
D50*
X26190Y4120D02*
D03*
X23650D02*
D03*
X21110D02*
D03*
X16030D02*
D03*
X18570D02*
D03*
X28730D02*
D03*
X31270D02*
D03*
X33810D02*
D03*
X36350D02*
D03*
X38890D02*
D03*
X41430D02*
D03*
X43970D02*
D03*
X46510D02*
D03*
D51*
X13490D02*
D03*
%TF.MD5,ee1d38351b41e75ef9a24417d55513aa*%
M02*
