%TF.GenerationSoftware,Altium Limited,Altium Designer,24.7.2 (38)*%
G04 Layer_Color=8388736*
%FSLAX43Y43*%
%MOMM*%
%TF.SameCoordinates,A6C98B59-F63B-4C8E-8392-574C2285590F*%
%TF.FilePolarity,Positive*%
%TF.FileFunction,Other,Bottom_Assembly*%
%TF.Part,Single*%
G01*
G75*
%TA.AperFunction,NonConductor*%
%ADD35C,0.200*%
G36*
X15835Y24180D02*
X15335D01*
X15335Y24179D01*
X15339Y24175D01*
X15345Y24169D01*
X15351Y24160D01*
X15359Y24150D01*
X15369Y24137D01*
X15379Y24122D01*
X15389Y24105D01*
Y24104D01*
X15390Y24104D01*
X15394Y24098D01*
X15398Y24089D01*
X15404Y24078D01*
X15410Y24065D01*
X15417Y24051D01*
X15423Y24037D01*
X15429Y24023D01*
X15353D01*
Y24024D01*
X15351Y24026D01*
X15350Y24030D01*
X15347Y24034D01*
X15345Y24040D01*
X15341Y24046D01*
X15332Y24062D01*
X15322Y24080D01*
X15309Y24099D01*
X15294Y24118D01*
X15278Y24138D01*
X15277Y24139D01*
X15276Y24140D01*
X15273Y24142D01*
X15271Y24146D01*
X15261Y24154D01*
X15250Y24165D01*
X15237Y24177D01*
X15223Y24189D01*
X15208Y24199D01*
X15192Y24208D01*
Y24259D01*
X15835D01*
Y24180D01*
D02*
G37*
G36*
X15531Y23878D02*
X15538D01*
X15555Y23877D01*
X15576Y23874D01*
X15597Y23871D01*
X15619Y23867D01*
X15641Y23861D01*
X15642D01*
X15644Y23860D01*
X15647Y23859D01*
X15651Y23859D01*
X15661Y23855D01*
X15674Y23849D01*
X15689Y23844D01*
X15703Y23836D01*
X15719Y23827D01*
X15734Y23818D01*
X15736Y23817D01*
X15740Y23813D01*
X15747Y23808D01*
X15755Y23800D01*
X15764Y23792D01*
X15774Y23782D01*
X15784Y23772D01*
X15792Y23760D01*
X15793Y23758D01*
X15796Y23754D01*
X15800Y23748D01*
X15804Y23738D01*
X15810Y23727D01*
X15814Y23714D01*
X15820Y23699D01*
X15825Y23683D01*
Y23681D01*
X15825Y23678D01*
X15826Y23675D01*
X15827Y23666D01*
X15829Y23653D01*
X15831Y23638D01*
X15833Y23621D01*
X15834Y23601D01*
X15835Y23580D01*
Y23350D01*
X15195D01*
Y23596D01*
X15196Y23613D01*
X15197Y23631D01*
X15199Y23650D01*
X15201Y23668D01*
X15204Y23684D01*
Y23685D01*
X15205Y23687D01*
Y23689D01*
X15207Y23693D01*
X15210Y23703D01*
X15214Y23716D01*
X15221Y23731D01*
X15229Y23747D01*
X15238Y23762D01*
X15250Y23777D01*
X15251Y23778D01*
X15252Y23779D01*
X15255Y23782D01*
X15258Y23785D01*
X15267Y23795D01*
X15280Y23806D01*
X15296Y23818D01*
X15314Y23831D01*
X15335Y23843D01*
X15359Y23853D01*
X15360D01*
X15362Y23854D01*
X15366Y23856D01*
X15372Y23857D01*
X15378Y23859D01*
X15385Y23861D01*
X15394Y23863D01*
X15404Y23866D01*
X15414Y23869D01*
X15426Y23871D01*
X15452Y23875D01*
X15481Y23878D01*
X15512Y23879D01*
X15513D01*
X15515D01*
X15519D01*
X15524D01*
X15531Y23878D01*
D02*
G37*
%LPC*%
G36*
X15510Y23792D02*
X15509D01*
X15506D01*
X15501D01*
X15494Y23791D01*
X15485D01*
X15476Y23790D01*
X15465Y23789D01*
X15454Y23788D01*
X15429Y23784D01*
X15403Y23778D01*
X15379Y23770D01*
X15367Y23764D01*
X15357Y23759D01*
X15356D01*
X15354Y23757D01*
X15351Y23755D01*
X15347Y23753D01*
X15338Y23746D01*
X15327Y23736D01*
X15315Y23724D01*
X15303Y23711D01*
X15293Y23695D01*
X15285Y23678D01*
X15284Y23676D01*
X15283Y23672D01*
X15280Y23663D01*
X15277Y23651D01*
X15275Y23637D01*
X15273Y23618D01*
X15272Y23607D01*
Y23595D01*
X15271Y23583D01*
Y23435D01*
X15759D01*
Y23587D01*
X15758Y23593D01*
X15757Y23607D01*
X15756Y23623D01*
X15754Y23639D01*
X15751Y23656D01*
X15748Y23670D01*
X15747Y23672D01*
X15746Y23676D01*
X15743Y23683D01*
X15739Y23691D01*
X15734Y23700D01*
X15728Y23710D01*
X15722Y23719D01*
X15715Y23728D01*
X15713Y23729D01*
X15709Y23733D01*
X15702Y23738D01*
X15693Y23745D01*
X15681Y23752D01*
X15667Y23760D01*
X15652Y23768D01*
X15634Y23774D01*
X15633D01*
X15631Y23775D01*
X15629Y23776D01*
X15625Y23777D01*
X15620Y23778D01*
X15614Y23780D01*
X15607Y23782D01*
X15600Y23784D01*
X15581Y23786D01*
X15560Y23789D01*
X15536Y23791D01*
X15510Y23792D01*
D02*
G37*
%LPD*%
D35*
X14871Y21650D02*
X16421D01*
Y25050D01*
X14871D02*
X16421D01*
X14871Y21650D02*
Y25050D01*
%TF.MD5,c0bffcad3f73f2f4018fb355e58f7afe*%
M02*
