%TF.GenerationSoftware,Altium Limited,Altium Designer,24.7.2 (38)*%
G04 Layer_Color=8388736*
%FSLAX43Y43*%
%MOMM*%
%TF.SameCoordinates,A6C98B59-F63B-4C8E-8392-574C2285590F*%
%TF.FilePolarity,Positive*%
%TF.FileFunction,Other,Bottom_Component_Outline*%
%TF.Part,Single*%
G01*
G75*
%TA.AperFunction,NonConductor*%
%ADD56C,0.100*%
D56*
X45150Y25075D02*
G03*
X45150Y25075I-250J0D01*
G01*
X49900Y21575D02*
G03*
X49900Y28575I-1684J3500D01*
G01*
X46500D02*
G03*
X46500Y21575I1684J-3500D01*
G01*
X49900D01*
X46500Y28575D02*
X49900D01*
X13170Y4440D02*
X13810D01*
X15710D02*
X16350D01*
X18250D02*
X18890D01*
X13170Y2620D02*
Y4440D01*
X13810Y2620D02*
Y4440D01*
X15710Y2620D02*
Y4440D01*
X16350Y2620D02*
Y4440D01*
X18250Y2620D02*
Y4440D01*
X18890Y2620D02*
Y4440D01*
X20790Y2620D02*
Y4440D01*
X12220Y80D02*
Y2620D01*
X13170Y-5720D02*
Y80D01*
X13810Y-5720D02*
Y80D01*
X15710Y-5720D02*
Y80D01*
X16350Y-5720D02*
Y80D01*
X18250Y-5720D02*
Y80D01*
X18890Y-5720D02*
Y80D01*
X13170Y-5720D02*
X13490Y-5920D01*
X13810Y-5720D01*
X15710D02*
X16030Y-5920D01*
X16350Y-5720D01*
X18250D02*
X18570Y-5920D01*
X18890Y-5720D01*
X20790Y4440D02*
X21430D01*
X25870D02*
X26510D01*
X28410D02*
X29050D01*
X23330D02*
X23970D01*
X21430Y2620D02*
Y4440D01*
X28410Y2620D02*
Y4440D01*
X29050Y2620D02*
Y4440D01*
X25870Y2620D02*
Y4440D01*
X26510Y2620D02*
Y4440D01*
X23330Y2620D02*
Y4440D01*
X23970Y2620D02*
Y4440D01*
X30950Y2620D02*
Y4440D01*
X12220Y2620D02*
X47780D01*
X12220Y80D02*
X47780D01*
X20790Y-5720D02*
Y80D01*
X21430Y-5720D02*
Y80D01*
X23330Y-5720D02*
Y80D01*
X23970Y-5720D02*
Y80D01*
X26510Y-5720D02*
Y80D01*
X25870Y-5720D02*
Y80D01*
X29050Y-5720D02*
Y80D01*
X28410Y-5720D02*
Y80D01*
X30950Y-5720D02*
Y80D01*
X20790Y-5720D02*
X21110Y-5920D01*
X28410Y-5720D02*
X28730Y-5920D01*
X21110D02*
X21430Y-5720D01*
X25870D02*
X26190Y-5920D01*
X23330Y-5720D02*
X23650Y-5920D01*
X23970Y-5720D01*
X26190Y-5920D02*
X26510Y-5720D01*
X28730Y-5920D02*
X29050Y-5720D01*
X30950Y4440D02*
X31590D01*
X33490D02*
X34130D01*
X36030D02*
X36670D01*
X38570D02*
X39210D01*
X41110D02*
X41750D01*
X31590Y2620D02*
Y4440D01*
X33490Y2620D02*
Y4440D01*
X34130Y2620D02*
Y4440D01*
X36030Y2620D02*
Y4440D01*
X38570Y2620D02*
Y4440D01*
X39210Y2620D02*
Y4440D01*
X41110Y2620D02*
Y4440D01*
X36670Y2620D02*
Y4440D01*
X41750Y2620D02*
Y4440D01*
X31590Y-5720D02*
Y80D01*
X33490Y-5720D02*
Y80D01*
X34130Y-5720D02*
Y80D01*
X36030Y-5720D02*
Y80D01*
X36670Y-5720D02*
Y80D01*
X39210Y-5720D02*
Y80D01*
X38570Y-5720D02*
Y80D01*
X41110Y-5720D02*
Y80D01*
X30950Y-5720D02*
X31270Y-5920D01*
X31590Y-5720D01*
X33490D02*
X33810Y-5920D01*
X34130Y-5720D01*
X36350Y-5920D02*
X36670Y-5720D01*
X36030D02*
X36350Y-5920D01*
X38890D02*
X39210Y-5720D01*
X38570D02*
X38890Y-5920D01*
X41110Y-5720D02*
X41430Y-5920D01*
X41750Y-5720D01*
Y80D01*
X43650Y2620D02*
Y4440D01*
Y-5720D02*
Y80D01*
Y-5720D02*
X43970Y-5920D01*
X43650Y4440D02*
X44290D01*
X43970Y-5920D02*
X44290Y-5720D01*
Y80D01*
Y2620D02*
Y4440D01*
X46190Y-5720D02*
X46510Y-5920D01*
X46830Y2620D02*
Y4440D01*
X46190Y-5720D02*
Y80D01*
X46830Y-5720D02*
Y80D01*
X47780D02*
Y2620D01*
X46190Y4440D02*
X46830D01*
X46190Y2620D02*
Y4440D01*
X46510Y-5920D02*
X46830Y-5720D01*
%TF.MD5,0583309a4b389c5a5bfbce780cabfd15*%
M02*
