%TF.GenerationSoftware,Altium Limited,Altium Designer,24.7.2 (38)*%
G04 Layer_Color=8388736*
%FSLAX43Y43*%
%MOMM*%
%TF.SameCoordinates,A6C98B59-F63B-4C8E-8392-574C2285590F*%
%TF.FilePolarity,Negative*%
%TF.FileFunction,Soldermask,Top*%
%TF.Part,Single*%
G01*
G75*
%TA.AperFunction,SMDPad,CuDef*%
%ADD14R,1.200X1.100*%
%ADD41R,0.830X1.280*%
%TA.AperFunction,ComponentPad*%
%ADD47C,2.003*%
%ADD48C,1.820*%
%ADD49O,3.020X3.120*%
%ADD50C,1.670*%
G04:AMPARAMS|DCode=51|XSize=1.67mm|YSize=1.67mm|CornerRadius=0.422mm|HoleSize=0mm|Usage=FLASHONLY|Rotation=180.000|XOffset=0mm|YOffset=0mm|HoleType=Round|Shape=RoundedRectangle|*
%AMROUNDEDRECTD51*
21,1,1.670,0.825,0,0,180.0*
21,1,0.825,1.670,0,0,180.0*
1,1,0.845,-0.413,0.413*
1,1,0.845,0.413,0.413*
1,1,0.845,0.413,-0.413*
1,1,0.845,-0.413,-0.413*
%
%ADD51ROUNDEDRECTD51*%
%TA.AperFunction,SMDPad,CuDef*%
%ADD55R,2.520X2.220*%
D14*
X15646Y24400D02*
D03*
Y22300D02*
D03*
D41*
X13570Y12049D02*
D03*
X11570D02*
D03*
X4302Y21063D02*
D03*
X6302D02*
D03*
X6302Y19305D02*
D03*
X4302D02*
D03*
X6302Y17561D02*
D03*
X4302D02*
D03*
X4300Y15807D02*
D03*
X6300D02*
D03*
X13620Y26575D02*
D03*
X15620D02*
D03*
D47*
X27301Y6575D02*
D03*
X30687Y28575D02*
D03*
X46510Y6691D02*
D03*
X5450Y6350D02*
D03*
X43421Y17035D02*
D03*
X55175Y7150D02*
D03*
X48939Y9100D02*
D03*
X36251Y19850D02*
D03*
X36350Y7150D02*
D03*
X18042Y11916D02*
D03*
X16308Y14050D02*
D03*
X29200Y16727D02*
D03*
X43275Y11829D02*
D03*
X44000Y6691D02*
D03*
D48*
X2426Y9150D02*
D03*
X31475Y18029D02*
D03*
X17061Y9150D02*
D03*
X48225Y19800D02*
D03*
X30625Y24175D02*
D03*
D49*
X58000Y9400D02*
D03*
Y21400D02*
D03*
D50*
X26190Y4120D02*
D03*
X23650D02*
D03*
X21110D02*
D03*
X16030D02*
D03*
X18570D02*
D03*
X28730D02*
D03*
X31270D02*
D03*
X33810D02*
D03*
X36350D02*
D03*
X38890D02*
D03*
X41430D02*
D03*
X43970D02*
D03*
X46510D02*
D03*
D51*
X13490D02*
D03*
D55*
X12220Y14650D02*
D03*
Y21550D02*
D03*
%TF.MD5,638173d19fd2ab3467c286f3ed744a7b*%
M02*
