%TF.GenerationSoftware,Altium Limited,Altium Designer,24.7.2 (38)*%
G04 Layer_Color=0*
%FSLAX43Y43*%
%MOMM*%
%TF.SameCoordinates,A6C98B59-F63B-4C8E-8392-574C2285590F*%
%TF.FilePolarity,Positive*%
%TF.FileFunction,Plated,1,2,PTH,Drill*%
%TF.Part,Single*%
G01*
G75*
%TA.AperFunction,ComponentDrill*%
%ADD61C,0.950*%
%ADD62C,0.762*%
%ADD63C,1.400*%
%ADD64C,1.100*%
%ADD65C,0.950*%
%TA.AperFunction,ViaDrill,NotFilled*%
%ADD66C,0.400*%
D61*
X27301Y6575D02*
D03*
X2426Y9150D02*
D03*
X31475Y18029D02*
D03*
X17061Y9150D02*
D03*
X46510Y6691D02*
D03*
X48225Y19800D02*
D03*
X30625Y24175D02*
D03*
X55175Y7150D02*
D03*
X48939Y9100D02*
D03*
X36251Y19850D02*
D03*
X16308Y14050D02*
D03*
X29200Y16727D02*
D03*
X44000Y6691D02*
D03*
D62*
X30687Y28575D02*
D03*
D63*
X58000Y9400D02*
D03*
Y21400D02*
D03*
D64*
X26190Y4120D02*
D03*
X23650D02*
D03*
X21110D02*
D03*
X16030D02*
D03*
X13490D02*
D03*
X18570D02*
D03*
X28730D02*
D03*
X31270D02*
D03*
X33810D02*
D03*
X36350D02*
D03*
X38890D02*
D03*
X41430D02*
D03*
X43970D02*
D03*
X46510D02*
D03*
D65*
X5450Y6350D02*
D03*
X43421Y17035D02*
D03*
X36350Y7150D02*
D03*
X18042Y11916D02*
D03*
X43275Y11829D02*
D03*
D66*
X23260Y17435D02*
D03*
X14075Y22450D02*
D03*
X19482Y20389D02*
D03*
X9225Y22200D02*
D03*
X20028Y24832D02*
D03*
X8475Y16400D02*
D03*
X7548Y10850D02*
D03*
X11605Y13180D02*
D03*
X20725Y20361D02*
D03*
X18212Y18350D02*
D03*
X10425Y10850D02*
D03*
X9042Y17364D02*
D03*
X16825Y21307D02*
D03*
X14525Y21313D02*
D03*
X18212Y20361D02*
D03*
X17000Y17364D02*
D03*
X30839Y11929D02*
D03*
Y10273D02*
D03*
X28730Y7358D02*
D03*
X24607Y18321D02*
D03*
Y19953D02*
D03*
X22032Y25450D02*
D03*
%TF.MD5,01be6b706e5a0facce5f5bada90788a2*%
M02*
