%TF.GenerationSoftware,Altium Limited,Altium Designer,24.7.2 (38)*%
G04 Layer_Color=65535*
%FSLAX43Y43*%
%MOMM*%
%TF.SameCoordinates,A6C98B59-F63B-4C8E-8392-574C2285590F*%
%TF.FilePolarity,Positive*%
%TF.FileFunction,Legend,Top*%
%TF.Part,Single*%
G01*
G75*
%TA.AperFunction,NonConductor*%
%ADD33C,0.250*%
%ADD35C,0.200*%
%ADD36C,0.254*%
%ADD52C,1.000*%
%ADD53R,1.000X1.000*%
%ADD54R,1.000X1.000*%
D33*
X15746Y21200D02*
G03*
X15746Y21200I-125J0D01*
G01*
D35*
X14520Y14450D02*
Y21750D01*
X13720Y14450D02*
X14520D01*
X9920D02*
Y21750D01*
X13720D02*
X14520D01*
X9920Y14450D02*
X10720D01*
X9920Y21750D02*
X10720D01*
X16321Y23225D02*
Y23475D01*
X14971Y23225D02*
Y23475D01*
X11046Y11288D02*
X14094D01*
Y12812D01*
X11046Y11288D02*
Y12812D01*
X14094D01*
X3778Y21825D02*
X6826D01*
X3778Y20301D02*
Y21825D01*
X6826Y20301D02*
Y21825D01*
X3778Y20301D02*
X6826D01*
X3778Y18543D02*
X6826D01*
Y20067D01*
X3778Y18543D02*
Y20067D01*
X6826D01*
X3778Y16799D02*
X6826D01*
Y18323D01*
X3778Y16799D02*
Y18323D01*
X6826D01*
X3776Y16569D02*
X6824D01*
X3776Y15045D02*
Y16569D01*
X6824Y15045D02*
Y16569D01*
X3776Y15045D02*
X6824D01*
X13096Y27337D02*
X16144D01*
X13096Y25813D02*
Y27337D01*
X16144Y25813D02*
Y27337D01*
X13096Y25813D02*
X16144D01*
D36*
X35972Y1229D02*
X36505D01*
X36771Y1496D01*
X36505Y1762D01*
X35972D01*
Y2562D02*
Y2029D01*
X36771D01*
Y2562D01*
X36372Y2029D02*
Y2295D01*
X44446Y1279D02*
X43646D01*
Y1679D01*
X43780Y1812D01*
X44046D01*
X44179Y1679D01*
Y1279D01*
X44446Y2079D02*
Y2345D01*
Y2212D01*
X43646D01*
X43780Y2079D01*
X46986Y1279D02*
X46186D01*
Y1679D01*
X46319Y1812D01*
X46586D01*
X46719Y1679D01*
Y1279D01*
X46986Y2612D02*
Y2079D01*
X46453Y2612D01*
X46319D01*
X46186Y2479D01*
Y2212D01*
X46319Y2079D01*
X13161Y727D02*
X13694D01*
X13961Y993D01*
X13694Y1260D01*
X13161D01*
X13294Y2059D02*
X13161Y1926D01*
Y1660D01*
X13294Y1526D01*
X13828D01*
X13961Y1660D01*
Y1926D01*
X13828Y2059D01*
X13294Y2859D02*
X13161Y2726D01*
Y2459D01*
X13294Y2326D01*
X13828D01*
X13961Y2459D01*
Y2726D01*
X13828Y2859D01*
X38523Y804D02*
X39056D01*
X39323Y1071D01*
X39056Y1337D01*
X38523D01*
X38656Y2137D02*
X38523Y2004D01*
Y1737D01*
X38656Y1604D01*
X39190D01*
X39323Y1737D01*
Y2004D01*
X39190Y2137D01*
X38656Y2937D02*
X38523Y2803D01*
Y2537D01*
X38656Y2403D01*
X39190D01*
X39323Y2537D01*
Y2803D01*
X39190Y2937D01*
X41192Y1337D02*
X41058Y1204D01*
Y937D01*
X41192Y804D01*
X41725D01*
X41858Y937D01*
Y1204D01*
X41725Y1337D01*
X41458D01*
Y1071D01*
X41858Y1604D02*
X41058D01*
X41858Y2137D01*
X41058D01*
Y2403D02*
X41858D01*
Y2803D01*
X41725Y2937D01*
X41192D01*
X41058Y2803D01*
Y2403D01*
X23436Y1324D02*
X23302Y1191D01*
Y925D01*
X23436Y791D01*
X23969D01*
X24102Y925D01*
Y1191D01*
X23969Y1324D01*
X23702D01*
Y1058D01*
X24102Y1591D02*
X23302D01*
X24102Y2124D01*
X23302D01*
Y2391D02*
X24102D01*
Y2791D01*
X23969Y2924D01*
X23436D01*
X23302Y2791D01*
Y2391D01*
X25977Y1387D02*
X25844Y1254D01*
Y988D01*
X25977Y854D01*
X26511D01*
X26644Y988D01*
Y1254D01*
X26511Y1387D01*
X26244D01*
Y1121D01*
X26644Y1654D02*
X25844D01*
X26644Y2187D01*
X25844D01*
Y2454D02*
X26644D01*
Y2854D01*
X26511Y2987D01*
X25977D01*
X25844Y2854D01*
Y2454D01*
X28326Y1412D02*
Y1678D01*
Y1545D01*
X29126D01*
Y1412D01*
Y1678D01*
X28460Y2611D02*
X28326Y2478D01*
Y2211D01*
X28460Y2078D01*
X28593D01*
X28726Y2211D01*
Y2478D01*
X28859Y2611D01*
X28993D01*
X29126Y2478D01*
Y2211D01*
X28993Y2078D01*
X30845Y1863D02*
Y1330D01*
X31245D01*
Y1596D01*
Y1330D01*
X31645D01*
X30845Y2129D02*
X31645D01*
Y2529D01*
X31512Y2663D01*
X31378D01*
X31245Y2529D01*
Y2129D01*
Y2529D01*
X31112Y2663D01*
X30978D01*
X30845Y2529D01*
Y2129D01*
X20692Y1412D02*
X21492D01*
Y1945D01*
X20692Y2611D02*
Y2345D01*
X20825Y2211D01*
X21359D01*
X21492Y2345D01*
Y2611D01*
X21359Y2745D01*
X20825D01*
X20692Y2611D01*
X18211Y1279D02*
X18744D01*
X19010Y1546D01*
X18744Y1812D01*
X18211D01*
X18344Y2612D02*
X18211Y2479D01*
Y2212D01*
X18344Y2079D01*
X18477D01*
X18611Y2212D01*
Y2479D01*
X18744Y2612D01*
X18877D01*
X19010Y2479D01*
Y2212D01*
X18877Y2079D01*
X15622Y1330D02*
X16422D01*
X16022D01*
Y1863D01*
X15622D01*
X16422D01*
X15622Y2529D02*
Y2263D01*
X15755Y2129D01*
X16289D01*
X16422Y2263D01*
Y2529D01*
X16289Y2663D01*
X15755D01*
X15622Y2529D01*
X33386Y1229D02*
X33919D01*
X34185Y1496D01*
X33919Y1762D01*
X33386D01*
X33519Y2562D02*
X33386Y2429D01*
Y2162D01*
X33519Y2029D01*
X34052D01*
X34185Y2162D01*
Y2429D01*
X34052Y2562D01*
X10654Y26175D02*
Y26975D01*
X11054D01*
X11187Y26841D01*
Y26575D01*
X11054Y26442D01*
X10654D01*
X10921D02*
X11187Y26175D01*
X11454D02*
X11720D01*
X11587D01*
Y26975D01*
X11454Y26841D01*
X12120D02*
X12253Y26975D01*
X12520D01*
X12653Y26841D01*
Y26708D01*
X12520Y26575D01*
X12653Y26442D01*
Y26308D01*
X12520Y26175D01*
X12253D01*
X12120Y26308D01*
Y26442D01*
X12253Y26575D01*
X12120Y26708D01*
Y26841D01*
X12253Y26575D02*
X12520D01*
X16817Y23775D02*
Y22975D01*
X17217D01*
X17350Y23108D01*
Y23642D01*
X17217Y23775D01*
X16817D01*
X17617Y22975D02*
X17883D01*
X17750D01*
Y23775D01*
X17617Y23642D01*
X15227Y17994D02*
X15093Y17861D01*
Y17595D01*
X15227Y17461D01*
X15760D01*
X15893Y17595D01*
Y17861D01*
X15760Y17994D01*
X15893Y18261D02*
Y18528D01*
Y18394D01*
X15093D01*
X15227Y18261D01*
X15093Y19461D02*
X15227Y19194D01*
X15493Y18927D01*
X15760D01*
X15893Y19061D01*
Y19327D01*
X15760Y19461D01*
X15627D01*
X15493Y19327D01*
Y18927D01*
X8876Y12341D02*
X8743Y12474D01*
X8476D01*
X8343Y12341D01*
Y11808D01*
X8476Y11674D01*
X8743D01*
X8876Y11808D01*
X9143Y11674D02*
X9409D01*
X9276D01*
Y12474D01*
X9143Y12341D01*
X10342Y11674D02*
X9809D01*
X10342Y12208D01*
Y12341D01*
X10209Y12474D01*
X9942D01*
X9809Y12341D01*
X1360Y7925D02*
X1893D01*
X1626D01*
Y7125D01*
X2159D02*
Y7925D01*
X2559D01*
X2693Y7792D01*
Y7525D01*
X2559Y7392D01*
X2159D01*
X3359Y7125D02*
Y7925D01*
X2959Y7525D01*
X3492D01*
X18695Y9775D02*
X19228D01*
X18962D01*
Y8975D01*
X19495D02*
Y9775D01*
X19895D01*
X20028Y9642D01*
Y9375D01*
X19895Y9242D01*
X19495D01*
X20295Y9642D02*
X20428Y9775D01*
X20694D01*
X20828Y9642D01*
Y9508D01*
X20694Y9375D01*
X20561D01*
X20694D01*
X20828Y9242D01*
Y9108D01*
X20694Y8975D01*
X20428D01*
X20295Y9108D01*
X32609Y17275D02*
X33142D01*
X32875D01*
Y16475D01*
X33408D02*
Y17275D01*
X33808D01*
X33942Y17142D01*
Y16875D01*
X33808Y16742D01*
X33408D01*
X34741Y16475D02*
X34208D01*
X34741Y17008D01*
Y17142D01*
X34608Y17275D01*
X34341D01*
X34208Y17142D01*
X32013Y24525D02*
X32546D01*
X32280D01*
Y23725D01*
X32813D02*
Y24525D01*
X33213D01*
X33346Y24391D01*
Y24125D01*
X33213Y23991D01*
X32813D01*
X33612Y23725D02*
X33879D01*
X33746D01*
Y24525D01*
X33612Y24391D01*
X47240Y18145D02*
X47773D01*
X47507D01*
Y17345D01*
X48040D02*
Y18145D01*
X48440D01*
X48573Y18011D01*
Y17745D01*
X48440Y17612D01*
X48040D01*
X48839Y18011D02*
X48973Y18145D01*
X49239D01*
X49373Y18011D01*
Y17878D01*
X49239Y17745D01*
X49373Y17612D01*
Y17478D01*
X49239Y17345D01*
X48973D01*
X48839Y17478D01*
Y17612D01*
X48973Y17745D01*
X48839Y17878D01*
Y18011D01*
X48973Y17745D02*
X49239D01*
X32009Y28871D02*
X32542D01*
X32275D01*
Y28071D01*
X32809D02*
Y28871D01*
X33208D01*
X33342Y28738D01*
Y28471D01*
X33208Y28338D01*
X32809D01*
X34008Y28071D02*
Y28871D01*
X33608Y28471D01*
X34141D01*
X34941Y28871D02*
X34408D01*
Y28471D01*
X34675Y28604D01*
X34808D01*
X34941Y28471D01*
Y28205D01*
X34808Y28071D01*
X34541D01*
X34408Y28205D01*
X47442Y11500D02*
X47975D01*
X47709D01*
Y10700D01*
X48242D02*
Y11500D01*
X48642D01*
X48775Y11367D01*
Y11100D01*
X48642Y10967D01*
X48242D01*
X49441Y10700D02*
Y11500D01*
X49042Y11100D01*
X49575D01*
X49841Y10700D02*
X50108D01*
X49975D01*
Y11500D01*
X49841Y11367D01*
X56409Y7425D02*
X56942D01*
X56675D01*
Y6625D01*
X57209D02*
Y7425D01*
X57608D01*
X57742Y7292D01*
Y7025D01*
X57608Y6892D01*
X57209D01*
X58408Y6625D02*
Y7425D01*
X58008Y7025D01*
X58541D01*
X59341Y6625D02*
X58808D01*
X59341Y7158D01*
Y7292D01*
X59208Y7425D01*
X58941D01*
X58808Y7292D01*
X6916Y6750D02*
X7449D01*
X7182D01*
Y5950D01*
X7716D02*
Y6750D01*
X8115D01*
X8249Y6616D01*
Y6350D01*
X8115Y6217D01*
X7716D01*
X8915Y5950D02*
Y6750D01*
X8515Y6350D01*
X9048D01*
X9315Y6616D02*
X9448Y6750D01*
X9715D01*
X9848Y6616D01*
Y6083D01*
X9715Y5950D01*
X9448D01*
X9315Y6083D01*
Y6616D01*
X16666Y15862D02*
X17199D01*
X16933D01*
Y15062D01*
X17466D02*
Y15862D01*
X17866D01*
X17999Y15729D01*
Y15462D01*
X17866Y15329D01*
X17466D01*
X18266Y15729D02*
X18399Y15862D01*
X18666D01*
X18799Y15729D01*
Y15595D01*
X18666Y15462D01*
X18532D01*
X18666D01*
X18799Y15329D01*
Y15195D01*
X18666Y15062D01*
X18399D01*
X18266Y15195D01*
X19599Y15862D02*
X19066D01*
Y15462D01*
X19332Y15595D01*
X19465D01*
X19599Y15462D01*
Y15195D01*
X19465Y15062D01*
X19199D01*
X19066Y15195D01*
X19259Y12254D02*
X19792D01*
X19525D01*
Y11454D01*
X20059D02*
Y12254D01*
X20458D01*
X20592Y12121D01*
Y11854D01*
X20458Y11721D01*
X20059D01*
X20858Y12121D02*
X20992Y12254D01*
X21258D01*
X21391Y12121D01*
Y11988D01*
X21258Y11854D01*
X21125D01*
X21258D01*
X21391Y11721D01*
Y11588D01*
X21258Y11454D01*
X20992D01*
X20858Y11588D01*
X22058Y11454D02*
Y12254D01*
X21658Y11854D01*
X22191D01*
X42367Y15800D02*
X42900D01*
X42634D01*
Y15000D01*
X43167D02*
Y15800D01*
X43567D01*
X43700Y15667D01*
Y15400D01*
X43567Y15267D01*
X43167D01*
X43967Y15667D02*
X44100Y15800D01*
X44366D01*
X44500Y15667D01*
Y15533D01*
X44366Y15400D01*
X44233D01*
X44366D01*
X44500Y15267D01*
Y15133D01*
X44366Y15000D01*
X44100D01*
X43967Y15133D01*
X44766Y15000D02*
X45033D01*
X44900D01*
Y15800D01*
X44766Y15667D01*
X43909Y13600D02*
X44442D01*
X44175D01*
Y12800D01*
X44709D02*
Y13600D01*
X45108D01*
X45242Y13467D01*
Y13200D01*
X45108Y13067D01*
X44709D01*
X46041Y12800D02*
X45508D01*
X46041Y13333D01*
Y13467D01*
X45908Y13600D01*
X45642D01*
X45508Y13467D01*
X46308Y12933D02*
X46441Y12800D01*
X46708D01*
X46841Y12933D01*
Y13467D01*
X46708Y13600D01*
X46441D01*
X46308Y13467D01*
Y13333D01*
X46441Y13200D01*
X46841D01*
X37609Y7639D02*
X38142D01*
X37875D01*
Y6839D01*
X38409D02*
Y7639D01*
X38808D01*
X38942Y7506D01*
Y7239D01*
X38808Y7106D01*
X38409D01*
X39741Y6839D02*
X39208D01*
X39741Y7372D01*
Y7506D01*
X39608Y7639D01*
X39342D01*
X39208Y7506D01*
X40008D02*
X40141Y7639D01*
X40408D01*
X40541Y7506D01*
Y7372D01*
X40408Y7239D01*
X40541Y7106D01*
Y6973D01*
X40408Y6839D01*
X40141D01*
X40008Y6973D01*
Y7106D01*
X40141Y7239D01*
X40008Y7372D01*
Y7506D01*
X40141Y7239D02*
X40408D01*
X34975Y18375D02*
X35509D01*
X35242D01*
Y17575D01*
X35775D02*
Y18375D01*
X36175D01*
X36308Y18242D01*
Y17975D01*
X36175Y17842D01*
X35775D01*
X36575Y17575D02*
X36842D01*
X36708D01*
Y18375D01*
X36575Y18242D01*
X37775Y18375D02*
X37241D01*
Y17975D01*
X37508Y18108D01*
X37641D01*
X37775Y17975D01*
Y17708D01*
X37641Y17575D01*
X37375D01*
X37241Y17708D01*
X26060Y9071D02*
X26593D01*
X26327D01*
Y8271D01*
X26860D02*
Y9071D01*
X27260D01*
X27393Y8938D01*
Y8671D01*
X27260Y8538D01*
X26860D01*
X28193Y8271D02*
X27659D01*
X28193Y8804D01*
Y8938D01*
X28059Y9071D01*
X27793D01*
X27659Y8938D01*
X28992Y9071D02*
X28726Y8938D01*
X28459Y8671D01*
Y8404D01*
X28593Y8271D01*
X28859D01*
X28992Y8404D01*
Y8538D01*
X28859Y8671D01*
X28459D01*
X27734Y15250D02*
X28267D01*
X28000D01*
Y14450D01*
X28534D02*
Y15250D01*
X28933D01*
X29067Y15117D01*
Y14850D01*
X28933Y14717D01*
X28534D01*
X29866Y14450D02*
X29333D01*
X29866Y14983D01*
Y15117D01*
X29733Y15250D01*
X29467D01*
X29333Y15117D01*
X30133Y15250D02*
X30666D01*
Y15117D01*
X30133Y14583D01*
Y14450D01*
X47809Y6600D02*
X48342D01*
X48075D01*
Y5800D01*
X48608D02*
Y6600D01*
X49008D01*
X49142Y6467D01*
Y6200D01*
X49008Y6067D01*
X48608D01*
X49941Y6600D02*
X49675Y6467D01*
X49408Y6200D01*
Y5933D01*
X49541Y5800D01*
X49808D01*
X49941Y5933D01*
Y6067D01*
X49808Y6200D01*
X49408D01*
X1419Y15406D02*
Y16206D01*
X1819D01*
X1952Y16072D01*
Y15806D01*
X1819Y15672D01*
X1419D01*
X1686D02*
X1952Y15406D01*
X2219D02*
X2486D01*
X2352D01*
Y16206D01*
X2219Y16072D01*
X3419Y16206D02*
X2885D01*
Y15806D01*
X3152Y15939D01*
X3285D01*
X3419Y15806D01*
Y15539D01*
X3285Y15406D01*
X3019D01*
X2885Y15539D01*
X1419Y17178D02*
Y17978D01*
X1819D01*
X1952Y17845D01*
Y17578D01*
X1819Y17445D01*
X1419D01*
X1686D02*
X1952Y17178D01*
X2219D02*
X2486D01*
X2352D01*
Y17978D01*
X2219Y17845D01*
X3419Y17178D02*
X2885D01*
X3419Y17711D01*
Y17845D01*
X3285Y17978D01*
X3019D01*
X2885Y17845D01*
X1446Y18994D02*
Y19794D01*
X1846D01*
X1980Y19660D01*
Y19394D01*
X1846Y19261D01*
X1446D01*
X1713D02*
X1980Y18994D01*
X2246D02*
X2513D01*
X2379D01*
Y19794D01*
X2246Y19660D01*
X2913D02*
X3046Y19794D01*
X3312D01*
X3446Y19660D01*
Y19127D01*
X3312Y18994D01*
X3046D01*
X2913Y19127D01*
Y19660D01*
X1446Y20663D02*
Y21463D01*
X1846D01*
X1980Y21330D01*
Y21063D01*
X1846Y20930D01*
X1446D01*
X1713D02*
X1980Y20663D01*
X2246D02*
X2513D01*
X2379D01*
Y21463D01*
X2246Y21330D01*
X3312Y20663D02*
Y21463D01*
X2913Y21063D01*
X3446D01*
X42884Y8975D02*
X43417D01*
X43150D01*
Y8175D01*
X43683D02*
Y8975D01*
X44083D01*
X44217Y8842D01*
Y8575D01*
X44083Y8442D01*
X43683D01*
X45016Y8975D02*
X44483D01*
Y8575D01*
X44750Y8708D01*
X44883D01*
X45016Y8575D01*
Y8308D01*
X44883Y8175D01*
X44616D01*
X44483Y8308D01*
D52*
X59200Y3000D02*
G03*
X59200Y3000I-2200J0D01*
G01*
Y27000D02*
G03*
X59200Y27000I-2200J0D01*
G01*
X5200Y3000D02*
G03*
X5200Y3000I-2200J0D01*
G01*
Y27000D02*
G03*
X5200Y27000I-2200J0D01*
G01*
D53*
X10320Y14100D02*
D03*
D54*
X14120D02*
D03*
%TF.MD5,ad4fbd589b6834737f5fb7d302243881*%
M02*
